<svg width="87" height="43" viewBox="0 0 87 43" fill="none" xmlns="http://www.w3.org/2000/svg">
<path d="M2.5 22C3.88071 22 5 20.8807 5 19.5C5 18.1193 3.88071 17 2.5 17C1.11929 17 0 18.1193 0 19.5C0 20.8807 1.11929 22 2.5 22Z" fill="#FF8B37"/>
<g filter="url(#filter0_d_5306_20907)">
<path d="M5.02836 30.66C3.15636 28.836 2.22036 26.532 2.22036 23.748C2.22036 20.964 3.15636 18.672 5.02836 16.872C6.92436 15.048 9.43236 14.136 12.5524 14.136C15.1204 14.136 17.6404 15.048 20.1124 16.872L17.6644 20.796C16.2964 19.572 14.6764 18.96 12.8044 18.96C11.2204 18.96 9.94836 19.404 8.98836 20.292C8.05236 21.156 7.58436 22.308 7.58436 23.748C7.58436 25.188 8.05236 26.352 8.98836 27.24C9.94836 28.104 11.2204 28.536 12.8044 28.536C14.6764 28.536 16.2964 27.924 17.6644 26.7L20.1124 30.624C17.6404 32.448 15.1204 33.36 12.5524 33.36C9.43236 33.36 6.92436 32.46 5.02836 30.66Z" fill="#7B60F1"/>
</g>
<path d="M6 20C8.20914 20 10 18.2091 10 16C10 13.7909 8.20914 12 6 12C3.79086 12 2 13.7909 2 16C2 18.2091 3.79086 20 6 20Z" fill="#55D087"/>
<g filter="url(#filter1_d_5306_20907)">
<path d="M23.592 33V6.972H28.956V17.052C30.348 15.108 32.256 14.136 34.68 14.136C39.072 14.136 41.268 17.076 41.268 22.956V33H35.904V23.064C35.904 20.064 34.764 18.564 32.484 18.564C31.308 18.564 30.42 18.984 29.82 19.824C29.244 20.64 28.956 21.732 28.956 23.1V33H23.592ZM47.5052 30.696C45.5132 28.872 44.5172 26.556 44.5172 23.748C44.5172 20.94 45.5132 18.636 47.5052 16.836C49.5212 15.036 51.9092 14.136 54.6692 14.136C57.4292 14.136 59.8052 15.048 61.7972 16.872C63.8132 18.672 64.8212 20.964 64.8212 23.748C64.8212 26.556 63.8132 28.872 61.7972 30.696C59.8052 32.496 57.4292 33.396 54.6692 33.396C51.9092 33.396 49.5212 32.496 47.5052 30.696ZM49.7372 23.748C49.7372 25.188 50.2172 26.388 51.1772 27.348C52.1612 28.308 53.3252 28.788 54.6692 28.788C56.0372 28.788 57.2012 28.308 58.1612 27.348C59.1212 26.364 59.6012 25.164 59.6012 23.748C59.6012 22.332 59.1212 21.144 58.1612 20.184C57.2012 19.224 56.0372 18.744 54.6692 18.744C53.3252 18.744 52.1612 19.224 51.1772 20.184C50.2172 21.144 49.7372 22.332 49.7372 23.748ZM85.5975 28.716V33H66.8415V29.868L77.2095 18.744H67.3455V14.532H84.9855V17.7L74.6535 28.716H85.5975Z" fill="#7B60F1"/>
</g>
<defs>
<filter id="filter0_d_5306_20907" x="2.2207" y="14.1357" width="17.8916" height="20.2246" filterUnits="userSpaceOnUse" color-interpolation-filters="sRGB">
<feFlood flood-opacity="0" result="BackgroundImageFix"/>
<feColorMatrix in="SourceAlpha" type="matrix" values="0 0 0 0 0 0 0 0 0 0 0 0 0 0 0 0 0 0 127 0" result="hardAlpha"/>
<feOffset dy="1"/>
<feComposite in2="hardAlpha" operator="out"/>
<feColorMatrix type="matrix" values="0 0 0 0 0.147233 0 0 0 0 0.143432 0 0 0 0 0.143432 0 0 0 1 0"/>
<feBlend mode="normal" in2="BackgroundImageFix" result="effect1_dropShadow_5306_20907"/>
<feBlend mode="normal" in="SourceGraphic" in2="effect1_dropShadow_5306_20907" result="shape"/>
</filter>
<filter id="filter1_d_5306_20907" x="23.5918" y="6.97168" width="62.0059" height="27.4248" filterUnits="userSpaceOnUse" color-interpolation-filters="sRGB">
<feFlood flood-opacity="0" result="BackgroundImageFix"/>
<feColorMatrix in="SourceAlpha" type="matrix" values="0 0 0 0 0 0 0 0 0 0 0 0 0 0 0 0 0 0 127 0" result="hardAlpha"/>
<feOffset dy="1"/>
<feComposite in2="hardAlpha" operator="out"/>
<feColorMatrix type="matrix" values="0 0 0 0 0.147233 0 0 0 0 0.143432 0 0 0 0 0.143432 0 0 0 1 0"/>
<feBlend mode="normal" in2="BackgroundImageFix" result="effect1_dropShadow_5306_20907"/>
<feBlend mode="normal" in="SourceGraphic" in2="effect1_dropShadow_5306_20907" result="shape"/>
</filter>
</defs>
</svg>
