<svg width="32" height="33" viewBox="0 0 32 33" fill="none" xmlns="http://www.w3.org/2000/svg">
<g id="icons8-discord 1">
<path id="Vector" d="M12.0999 4.78083C12.0999 4.78083 8.02494 5.06083 5.35994 7.20083C5.34744 7.20583 5.33244 7.21333 5.31994 7.22083C4.85744 7.64833 4.50994 8.31083 4.07994 9.26083C3.64994 10.2108 3.19494 11.4333 2.77994 12.8008C1.95244 15.5383 1.27994 18.8983 1.27994 22.0608C1.27744 22.1733 1.30494 22.2833 1.35994 22.3808C2.29494 24.0233 4.01494 25.0158 5.61994 25.6408C7.22494 26.2658 8.70744 26.5158 9.45994 26.5408C9.67244 26.5483 9.87494 26.4508 9.99994 26.2808L11.5599 24.1208C12.8174 24.4183 14.2924 24.6208 15.9999 24.6208C17.7074 24.6208 19.1824 24.4183 20.4399 24.1208L21.9999 26.2808C22.1249 26.4508 22.3274 26.5483 22.5399 26.5408C23.2924 26.5158 24.7749 26.2658 26.3799 25.6408C27.9849 25.0158 29.7049 24.0233 30.6399 22.3808C30.6949 22.2833 30.7224 22.1733 30.7199 22.0608C30.7199 18.8983 30.0474 15.5383 29.2199 12.8008C28.8049 11.4333 28.3499 10.2108 27.9199 9.26083C27.4899 8.31083 27.1424 7.64833 26.6799 7.22083C26.6674 7.21333 26.6524 7.20583 26.6399 7.20083C23.9749 5.06083 19.8999 4.78083 19.8999 4.78083C19.8524 4.77583 19.8074 4.77583 19.7599 4.78083C19.5374 4.81083 19.3499 4.95583 19.2599 5.16083C19.2599 5.16083 19.0424 5.63833 18.8999 6.32083C17.6524 6.12083 16.6024 6.06083 15.9999 6.06083C15.3974 6.06083 14.3474 6.12083 13.0999 6.32083C12.9574 5.63833 12.7399 5.16083 12.7399 5.16083C12.6299 4.91083 12.3724 4.75833 12.0999 4.78083ZM11.6999 6.16083C11.7474 6.29083 11.7799 6.41333 11.8199 6.56083C10.3774 6.89583 8.79744 7.44333 7.31994 8.36083C7.08744 8.45833 6.93494 8.68333 6.92744 8.93583C6.92244 9.18583 7.06494 9.41833 7.28994 9.52833C7.51744 9.63583 7.78744 9.60333 7.97994 9.44083C10.9449 7.60333 14.7174 7.34083 15.9999 7.34083C17.2824 7.34083 21.0549 7.60333 24.0199 9.44083C24.2124 9.60333 24.4824 9.63583 24.7099 9.52833C24.9349 9.41833 25.0774 9.18583 25.0724 8.93583C25.0649 8.68333 24.9124 8.45833 24.6799 8.36083C23.2024 7.44333 21.6224 6.89583 20.1799 6.56083C20.2199 6.41333 20.2524 6.29083 20.2999 6.16083C21.0299 6.25083 23.8674 6.63333 25.7999 8.16083C25.9249 8.27583 26.3599 8.91583 26.7599 9.80083C27.1599 10.6858 27.5799 11.8383 27.9799 13.1608C28.7599 15.7408 29.3899 18.9233 29.4199 21.8408C28.6924 23.0183 27.3274 23.8933 25.9199 24.4408C24.6399 24.9383 23.4449 25.1608 22.8199 25.2208L21.7399 23.7608C22.2899 23.5833 22.7849 23.3908 23.2199 23.2008C24.8349 22.4908 25.6999 21.7408 25.6999 21.7408C25.9649 21.5033 25.9874 21.0958 25.7499 20.8308C25.5124 20.5658 25.1049 20.5433 24.8399 20.7808C24.8399 20.7808 24.1699 21.3933 22.6999 22.0408C22.1599 22.2783 21.5049 22.5133 20.7599 22.7208C20.5874 22.7008 20.4149 22.7508 20.2799 22.8608C19.0874 23.1508 17.6699 23.3408 15.9999 23.3408C14.3174 23.3408 12.8974 23.1333 11.6999 22.8408C11.5649 22.7508 11.3999 22.7133 11.2399 22.7408C10.4924 22.5333 9.84244 22.2783 9.29994 22.0408C7.82994 21.3933 7.15994 20.7808 7.15994 20.7808C7.01494 20.6458 6.81494 20.5883 6.61994 20.6208C6.37244 20.6583 6.16744 20.8358 6.09994 21.0783C6.02994 21.3183 6.10994 21.5783 6.29994 21.7408C6.29994 21.7408 7.16494 22.4908 8.77994 23.2008C9.21494 23.3908 9.70994 23.5833 10.2599 23.7608L9.17994 25.2208C8.55494 25.1608 7.35994 24.9383 6.07994 24.4408C4.67244 23.8933 3.30744 23.0183 2.57994 21.8408C2.60994 18.9233 3.23994 15.7408 4.01994 13.1608C4.41994 11.8383 4.83994 10.6858 5.23994 9.80083C5.63994 8.91583 6.07494 8.27583 6.19994 8.16083C8.13244 6.63333 10.9699 6.25083 11.6999 6.16083ZM11.8399 13.7408C10.2074 13.7408 8.95994 15.2233 8.95994 16.9408C8.95994 18.6583 10.2074 20.1408 11.8399 20.1408C13.4724 20.1408 14.7199 18.6583 14.7199 16.9408C14.7199 15.2233 13.4724 13.7408 11.8399 13.7408ZM20.1599 13.7408C18.5274 13.7408 17.2799 15.2233 17.2799 16.9408C17.2799 18.6583 18.5274 20.1408 20.1599 20.1408C21.7924 20.1408 23.0399 18.6583 23.0399 16.9408C23.0399 15.2233 21.7924 13.7408 20.1599 13.7408ZM11.8399 15.0208C12.6824 15.0208 13.4399 15.8308 13.4399 16.9408C13.4399 18.0508 12.6824 18.8608 11.8399 18.8608C10.9974 18.8608 10.2399 18.0508 10.2399 16.9408C10.2399 15.8308 10.9974 15.0208 11.8399 15.0208ZM20.1599 15.0208C21.0024 15.0208 21.7599 15.8308 21.7599 16.9408C21.7599 18.0508 21.0024 18.8608 20.1599 18.8608C19.3174 18.8608 18.5599 18.0508 18.5599 16.9408C18.5599 15.8308 19.3174 15.0208 20.1599 15.0208Z" fill="black"/>
</g>
</svg>
