<svg width="16" height="16" viewBox="0 0 16 16" fill="none" xmlns="http://www.w3.org/2000/svg">
<path d="M14.1339 1.86612C13.6457 1.37796 12.8543 1.37796 12.3661 1.86612L11.2411 2.99111L2.78701 11.4452C2.43456 11.7977 2.17548 12.2324 2.03319 12.7101L1.5 14.5L3.28993 13.9668C3.76762 13.8245 4.20234 13.5654 4.55479 13.213L14.1339 3.63388C14.622 3.14573 14.622 2.35427 14.1339 1.86612Z" fill="#A3A3A3"/>
<path d="M11.2411 2.99111L12.3661 1.86612C12.8543 1.37796 13.6457 1.37796 14.1339 1.86612C14.622 2.35427 14.622 3.14573 14.1339 3.63388L4.55479 13.213C4.20234 13.5654 3.76762 13.8245 3.28993 13.9668L1.5 14.5L2.03319 12.7101C2.17548 12.2324 2.43456 11.7977 2.78701 11.4452L11.2411 2.99111ZM11.2411 2.99111L13 4.75" stroke="#A3A3A3" stroke-width="0.769231" stroke-linecap="round" stroke-linejoin="round"/>
</svg>
