<svg width="21" height="20" viewBox="0 0 21 20" fill="none" xmlns="http://www.w3.org/2000/svg">
<path d="M18 10C18 14.1421 14.6421 17.5 10.5 17.5C6.35786 17.5 3 14.1421 3 10C3 5.85786 6.35786 2.5 10.5 2.5C14.6421 2.5 18 5.85786 18 10Z" fill="#FFF7F7"/>
<path d="M8.625 8.125L12.375 11.875M12.375 8.125L8.625 11.875M18 10C18 14.1421 14.6421 17.5 10.5 17.5C6.35786 17.5 3 14.1421 3 10C3 5.85786 6.35786 2.5 10.5 2.5C14.6421 2.5 18 5.85786 18 10Z" stroke="#BB0007" stroke-opacity="0.836" stroke-linecap="round" stroke-linejoin="round"/>
</svg>
