<svg width="32" height="33" viewBox="0 0 32 33" fill="none" xmlns="http://www.w3.org/2000/svg">
<g id="heroicons-outline/globe-alt">
<path id="Vector" d="M16 28.5C21.5901 28.5 26.2874 24.6776 27.6209 19.5039M16 28.5C10.4099 28.5 5.71256 24.6776 4.37906 19.5039M16 28.5C19.3137 28.5 22 23.1274 22 16.5C22 9.87258 19.3137 4.5 16 4.5M16 28.5C12.6863 28.5 10 23.1274 10 16.5C10 9.87258 12.6863 4.5 16 4.5M16 4.5C20.4869 4.5 24.3987 6.96259 26.4574 10.6099M16 4.5C11.5131 4.5 7.60132 6.96259 5.54257 10.6099M26.4574 10.6099C23.653 13.0339 19.9977 14.5 16 14.5C12.0023 14.5 8.34703 13.0339 5.54257 10.6099M26.4574 10.6099C27.4396 12.3499 28 14.3595 28 16.5C28 17.5373 27.8684 18.5439 27.6209 19.5039M27.6209 19.5039C24.1778 21.413 20.2159 22.5 16 22.5C11.7841 22.5 7.82216 21.413 4.37906 19.5039M4.37906 19.5039C4.13162 18.5439 4 17.5373 4 16.5C4 14.3595 4.56043 12.3499 5.54257 10.6099" stroke="#0F172A" stroke-width="2" stroke-linecap="round" stroke-linejoin="round"/>
</g>
</svg>
