<svg width="16" height="16" viewBox="0 0 16 16" fill="none" xmlns="http://www.w3.org/2000/svg">
<path d="M2 7.04386C2 6.66095 2 6.4695 2.04935 6.29319C2.09307 6.13701 2.16491 5.99012 2.26135 5.85973C2.37022 5.71253 2.52135 5.59499 2.82359 5.35991L7.34513 1.84315C7.57935 1.66099 7.69646 1.5699 7.82577 1.53489C7.93987 1.504 8.06013 1.504 8.17423 1.53489C8.30354 1.5699 8.42065 1.66099 8.65487 1.84315L13.1764 5.35991C13.4787 5.59499 13.6298 5.71253 13.7386 5.85973C13.8351 5.99012 13.9069 6.13701 13.9506 6.29319C14 6.4695 14 6.66095 14 7.04386V11.8671C14 12.6139 14 12.9872 13.8547 13.2725C13.7268 13.5233 13.5229 13.7273 13.272 13.8552C12.9868 14.0005 12.6134 14.0005 11.8667 14.0005H4.13333C3.3866 14.0005 3.01323 14.0005 2.72801 13.8552C2.47713 13.7273 2.27316 13.5233 2.14532 13.2725C2 12.9872 2 12.6139 2 11.8671V7.04386Z" fill="#A3A3A3"/>
<path d="M6 14.0005V9.06714C6 8.69378 6 8.50709 6.07266 8.36448C6.13658 8.23904 6.23857 8.13706 6.36401 8.07314C6.50661 8.00048 6.6933 8.00048 7.06667 8.00048H8.93333C9.3067 8.00048 9.49339 8.00048 9.63599 8.07314C9.76144 8.13706 9.86342 8.23904 9.92734 8.36448C10 8.50709 10 8.69378 10 9.06714V14.0005" fill="#A3A3A3"/>
<path d="M6 14.0005V9.06714C6 8.69378 6 8.50709 6.07266 8.36448C6.13658 8.23904 6.23857 8.13706 6.36401 8.07314C6.50661 8.00048 6.6933 8.00048 7.06667 8.00048H8.93333C9.3067 8.00048 9.49339 8.00048 9.63599 8.07314C9.76144 8.13706 9.86342 8.23904 9.92734 8.36448C10 8.50709 10 8.69378 10 9.06714V14.0005M7.34513 1.84315L2.82359 5.35991C2.52135 5.59499 2.37022 5.71253 2.26135 5.85973C2.16491 5.99012 2.09307 6.13701 2.04935 6.29319C2 6.4695 2 6.66095 2 7.04386V11.8671C2 12.6139 2 12.9872 2.14532 13.2725C2.27316 13.5233 2.47713 13.7273 2.72801 13.8552C3.01323 14.0005 3.3866 14.0005 4.13333 14.0005H11.8667C12.6134 14.0005 12.9868 14.0005 13.272 13.8552C13.5229 13.7273 13.7268 13.5233 13.8547 13.2725C14 12.9872 14 12.6139 14 11.8671V7.04386C14 6.66095 14 6.4695 13.9506 6.29319C13.9069 6.13701 13.8351 5.99012 13.7386 5.85973C13.6298 5.71253 13.4787 5.59499 13.1764 5.35991L8.65487 1.84315C8.42065 1.66099 8.30354 1.5699 8.17423 1.53489C8.06013 1.504 7.93987 1.504 7.82577 1.53489C7.69646 1.5699 7.57935 1.66099 7.34513 1.84315Z" stroke="#A3A3A3" stroke-width="1.13333" stroke-linecap="round" stroke-linejoin="round"/>
</svg>
