<svg width="26" height="27" viewBox="0 0 26 27" fill="none" xmlns="http://www.w3.org/2000/svg">
<g id="Union">
<path d="M4.80048 1.96752C5.1688 1.55599 5.13378 0.923799 4.72226 0.555473C4.31073 0.187146 3.67853 0.222167 3.31021 0.633694C1.70894 2.42277 0.594735 4.65991 0.179467 7.13515C0.0880887 7.67982 0.455556 8.19545 1.00023 8.28683C1.5449 8.3782 2.06052 8.01074 2.1519 7.46606C2.50271 5.37501 3.44402 3.48308 4.80048 1.96752Z" fill="#7B60F1"/>
<path d="M22.6893 0.633694C22.321 0.222167 21.6888 0.187146 21.2773 0.555473C20.8658 0.923799 20.8307 1.55599 21.1991 1.96752C22.5555 3.48308 23.4968 5.37501 23.8476 7.46606C23.939 8.01074 24.4546 8.3782 24.9993 8.28683C25.544 8.19545 25.9115 7.67982 25.8201 7.13515C25.4048 4.65991 24.2906 2.42277 22.6893 0.633694Z" fill="#7B60F1"/>
<path fill-rule="evenodd" clip-rule="evenodd" d="M13 0.300598C8.02954 0.300598 4.00016 4.32989 4.00002 9.30033L3.99975 10.3006C3.99975 13.1314 2.93173 15.7105 1.17502 17.6604C0.953019 17.9069 0.867645 18.2473 0.947105 18.5693C1.02656 18.8914 1.26052 19.153 1.57167 19.2679C3.6305 20.0279 5.78578 20.5885 8.01387 20.9263C8.00469 21.0499 8.00002 21.1748 8.00002 21.3006C8.00002 24.062 10.2386 26.3006 13 26.3006C15.7614 26.3006 18 24.062 18 21.3006C18 21.1748 17.9953 21.0499 17.9862 20.9262C20.2141 20.5884 22.3692 20.0279 24.4278 19.2679C24.739 19.153 24.9729 18.8914 25.0524 18.5693C25.1319 18.2473 25.0465 17.9069 24.8245 17.6604C23.0678 15.7105 21.9998 13.1314 21.9998 10.3006V9.36618L22 9.3006C22 4.33004 17.9706 0.300598 13 0.300598ZM10 21.3006C10 21.2556 10.001 21.2108 10.003 21.1663C10.9902 21.2552 11.9898 21.3006 12.9998 21.3006C14.0099 21.3006 15.0096 21.2552 15.9971 21.1662C15.999 21.2108 16 21.2555 16 21.3006C16 22.9575 14.6569 24.3006 13 24.3006C11.3432 24.3006 10 22.9575 10 21.3006Z" fill="#7B60F1"/>
</g>
</svg>
