<svg width="49" height="49" viewBox="0 0 49 49" fill="none" xmlns="http://www.w3.org/2000/svg">
<path fill-rule="evenodd" clip-rule="evenodd" d="M24.6875 4.84766C13.9179 4.84766 5.1875 13.5781 5.1875 24.3477C5.1875 35.1172 13.9179 43.8477 24.6875 43.8477C35.4571 43.8477 44.1875 35.1172 44.1875 24.3477C44.1875 13.5781 35.4571 4.84766 24.6875 4.84766ZM26.1875 18.3477C26.1875 17.5192 25.5159 16.8477 24.6875 16.8477C23.8591 16.8477 23.1875 17.5192 23.1875 18.3477V22.8477H18.6875C17.8591 22.8477 17.1875 23.5192 17.1875 24.3477C17.1875 25.1761 17.8591 25.8477 18.6875 25.8477H23.1875V30.3477C23.1875 31.1761 23.8591 31.8477 24.6875 31.8477C25.5159 31.8477 26.1875 31.1761 26.1875 30.3477V25.8477H30.6875C31.5159 25.8477 32.1875 25.1761 32.1875 24.3477C32.1875 23.5192 31.5159 22.8477 30.6875 22.8477H26.1875V18.3477Z" fill="#7B60F1"/>
</svg>
