<svg width="28" height="28" viewBox="0 0 28 28" fill="none" xmlns="http://www.w3.org/2000/svg">
<g id="heroicons-solid/plus">
<path id="Vector (Stroke)" fill-rule="evenodd" clip-rule="evenodd" d="M13.75 4.71875C14.216 4.71875 14.5938 5.09651 14.5938 5.5625V13.1562H22.1875C22.6535 13.1562 23.0312 13.534 23.0312 14C23.0312 14.466 22.6535 14.8438 22.1875 14.8438H14.5938V22.4375C14.5938 22.9035 14.216 23.2813 13.75 23.2813C13.284 23.2813 12.9062 22.9035 12.9062 22.4375V14.8437H5.3125C4.84651 14.8437 4.46875 14.466 4.46875 14C4.46875 13.534 4.84651 13.1562 5.3125 13.1562H12.9062V5.5625C12.9062 5.09651 13.284 4.71875 13.75 4.71875Z" fill="white"/>
</g>
</svg>
