<svg width="17" height="17" viewBox="0 0 17 17" fill="none" xmlns="http://www.w3.org/2000/svg">
<path d="M6.92969 5.68444C7.71074 5.00102 8.97707 5.00102 9.75811 5.68444C10.5392 6.36786 10.5392 7.47589 9.75811 8.15931C9.62217 8.27826 9.47153 8.37651 9.3113 8.45405C8.81418 8.69464 8.3439 9.11959 8.3439 9.67188V10.1719M14.3438 8.67188C14.3438 11.9856 11.6575 14.6719 8.34375 14.6719C5.03004 14.6719 2.34375 11.9856 2.34375 8.67188C2.34375 5.35817 5.03004 2.67188 8.34375 2.67188C11.6575 2.67188 14.3438 5.35817 14.3438 8.67188ZM8.34375 12.1719H8.34875V12.1769H8.34375V12.1719Z" stroke="#7E808A" stroke-linecap="round" stroke-linejoin="round"/>
</svg>
