<svg width="20" height="20" viewBox="0 0 20 20" fill="none" xmlns="http://www.w3.org/2000/svg">
<g id="heroicons-mini/arrow-right">
<path id="Vector (Stroke)" fill-rule="evenodd" clip-rule="evenodd" d="M3.16748 9.95493C3.16748 9.55985 3.48775 9.23958 3.88283 9.23958L14.0293 9.23958L10.0636 5.46313C9.77883 5.1893 9.76995 4.73645 10.0438 4.45166C10.3176 4.16688 10.7705 4.158 11.0552 4.43183L16.3012 9.43928C16.4414 9.57415 16.5207 9.76034 16.5207 9.95493C16.5207 10.1495 16.4414 10.3357 16.3012 10.4706L11.0552 15.478C10.7705 15.7519 10.3176 15.743 10.0438 15.4582C9.76995 15.1734 9.77883 14.7206 10.0636 14.4467L14.0293 10.6703L3.88283 10.6703C3.48775 10.6703 3.16748 10.35 3.16748 9.95493Z" fill="#7B60F1"/>
</g>
</svg>
