<svg width="35" height="34" viewBox="0 0 35 34" fill="none" xmlns="http://www.w3.org/2000/svg">
<path fill-rule="evenodd" clip-rule="evenodd" d="M4.125 17C4.125 16.301 4.69164 15.7344 5.39062 15.7344L26.6364 15.7344L23.0919 12.4431C22.5797 11.9674 22.5501 11.1666 23.0257 10.6544C23.5013 10.1422 24.3021 10.1126 24.8143 10.5882L30.7206 16.0726C30.9785 16.312 31.125 16.6481 31.125 17C31.125 17.3519 30.9785 17.688 30.7206 17.9274L24.8143 23.4118C24.3021 23.8874 23.5013 23.8578 23.0257 23.3456C22.5501 22.8334 22.5797 22.0326 23.0919 21.5569L26.6364 18.2656L5.39063 18.2656C4.69164 18.2656 4.125 17.699 4.125 17Z" fill="white"/>
</svg>
