<svg width="16" height="16" viewBox="0 0 16 16" fill="none" xmlns="http://www.w3.org/2000/svg">
<path d="M6.39617 2.6267C6.45645 2.26506 6.76934 2 7.13597 2H8.86528C9.23191 2 9.5448 2.26506 9.60507 2.6267L9.74741 3.48073C9.78897 3.7301 9.95562 3.93781 10.1768 4.06024C10.2262 4.08761 10.2751 4.11589 10.3234 4.14505C10.5401 4.27589 10.8037 4.31658 11.0407 4.22777L11.8519 3.92385C12.1953 3.79523 12.5813 3.93367 12.7646 4.25118L13.6292 5.74881C13.8126 6.06632 13.7395 6.46982 13.4564 6.70284L12.7868 7.25405C12.5918 7.41459 12.4952 7.66248 12.4998 7.91502C12.5004 7.94328 12.5006 7.97161 12.5006 8C12.5006 8.02839 12.5004 8.05671 12.4998 8.08497C12.4952 8.33751 12.5918 8.58541 12.7868 8.74594L13.4564 9.29715C13.7395 9.53017 13.8126 9.93367 13.6292 10.2512L12.7646 11.7488C12.5813 12.0663 12.1953 12.2048 11.8519 12.0761L11.0407 11.7722C10.8037 11.6834 10.5401 11.7241 10.3234 11.8549C10.2751 11.8841 10.2263 11.9124 10.1768 11.9398C9.95562 12.0622 9.78897 12.2699 9.74741 12.5193L9.60507 13.3733C9.5448 13.7349 9.23191 14 8.86528 14H7.13597C6.76934 14 6.45645 13.7349 6.39617 13.3733L6.25383 12.5193C6.21227 12.2699 6.04563 12.0622 5.82445 11.9398C5.775 11.9124 5.72612 11.8841 5.67783 11.855C5.46114 11.7241 5.19759 11.6834 4.96054 11.7722L4.1493 12.0762C3.80597 12.2048 3.41998 12.0663 3.23666 11.7488L2.37201 10.2512C2.18869 9.93368 2.26179 9.53018 2.54485 9.29716L3.21442 8.74595C3.40942 8.58542 3.50609 8.33752 3.50141 8.08498C3.50089 8.05672 3.50062 8.02839 3.50062 8C3.50062 7.97161 3.50089 7.94329 3.50141 7.91503C3.50609 7.66249 3.40942 7.4146 3.21442 7.25406L2.54485 6.70285C2.26179 6.46983 2.18869 6.06633 2.37201 5.74882L3.23666 4.25119C3.41998 3.93368 3.80597 3.79524 4.1493 3.92386L4.96053 4.22778C5.19758 4.31658 5.46113 4.2759 5.67782 4.14505C5.72611 4.11589 5.77499 4.08761 5.82445 4.06024C6.04563 3.93781 6.21227 3.7301 6.25383 3.48073L6.39617 2.6267Z" fill="#A3A3A3"/>
<path d="M10.0005 7.99995C10.0005 9.10452 9.10504 9.99995 8.00047 9.99995C6.8959 9.99995 6.00047 9.10452 6.00047 7.99995C6.00047 6.89538 6.8959 5.99995 8.00047 5.99995C9.10504 5.99995 10.0005 6.89538 10.0005 7.99995Z" fill="#A3A3A3"/>
<path d="M6.39617 2.6267C6.45645 2.26506 6.76934 2 7.13597 2H8.86528C9.23191 2 9.5448 2.26506 9.60507 2.6267L9.74741 3.48073C9.78897 3.7301 9.95562 3.93781 10.1768 4.06024C10.2262 4.08761 10.2751 4.11589 10.3234 4.14505C10.5401 4.27589 10.8037 4.31658 11.0407 4.22777L11.8519 3.92385C12.1953 3.79523 12.5813 3.93367 12.7646 4.25118L13.6292 5.74881C13.8126 6.06632 13.7395 6.46982 13.4564 6.70284L12.7868 7.25405C12.5918 7.41459 12.4952 7.66248 12.4998 7.91502C12.5004 7.94328 12.5006 7.97161 12.5006 8C12.5006 8.02839 12.5004 8.05671 12.4998 8.08497C12.4952 8.33751 12.5918 8.58541 12.7868 8.74594L13.4564 9.29715C13.7395 9.53017 13.8126 9.93367 13.6292 10.2512L12.7646 11.7488C12.5813 12.0663 12.1953 12.2048 11.8519 12.0761L11.0407 11.7722C10.8037 11.6834 10.5401 11.7241 10.3234 11.8549C10.2751 11.8841 10.2263 11.9124 10.1768 11.9398C9.95562 12.0622 9.78897 12.2699 9.74741 12.5193L9.60507 13.3733C9.5448 13.7349 9.23191 14 8.86528 14H7.13597C6.76934 14 6.45645 13.7349 6.39617 13.3733L6.25383 12.5193C6.21227 12.2699 6.04563 12.0622 5.82445 11.9398C5.775 11.9124 5.72612 11.8841 5.67783 11.855C5.46114 11.7241 5.19759 11.6834 4.96054 11.7722L4.1493 12.0762C3.80597 12.2048 3.41998 12.0663 3.23666 11.7488L2.37201 10.2512C2.18869 9.93368 2.26179 9.53018 2.54485 9.29716L3.21442 8.74595C3.40942 8.58542 3.50609 8.33752 3.50141 8.08498C3.50089 8.05672 3.50062 8.02839 3.50062 8C3.50062 7.97161 3.50089 7.94329 3.50141 7.91503C3.50609 7.66249 3.40942 7.4146 3.21442 7.25406L2.54485 6.70285C2.26179 6.46983 2.18869 6.06633 2.37201 5.74882L3.23666 4.25119C3.41998 3.93368 3.80597 3.79524 4.1493 3.92386L4.96053 4.22778C5.19758 4.31658 5.46113 4.2759 5.67782 4.14505C5.72611 4.11589 5.77499 4.08761 5.82445 4.06024C6.04563 3.93781 6.21227 3.7301 6.25383 3.48073L6.39617 2.6267Z" stroke="#A3A3A3" stroke-width="0.769231" stroke-linecap="round" stroke-linejoin="round"/>
<path d="M10.0005 7.99995C10.0005 9.10452 9.10504 9.99995 8.00047 9.99995C6.8959 9.99995 6.00047 9.10452 6.00047 7.99995C6.00047 6.89538 6.8959 5.99995 8.00047 5.99995C9.10504 5.99995 10.0005 6.89538 10.0005 7.99995Z" stroke="#A3A3A3" stroke-width="0.769231" stroke-linecap="round" stroke-linejoin="round"/>
</svg>
