<svg width="32" height="33" viewBox="0 0 32 33" fill="none" xmlns="http://www.w3.org/2000/svg">
<g id="icons8-telegram (1) 1">
<path id="Vector" d="M28.4011 4.13209C28.0894 4.14576 27.786 4.23252 27.5124 4.34209C27.2415 4.45092 25.6824 5.11641 23.3799 6.10084C21.0774 7.08526 18.0843 8.36718 15.1174 9.63834C9.18345 12.1806 3.35236 14.6821 3.35236 14.6821L3.39486 14.6658C3.39486 14.6658 3.04293 14.7835 2.68611 15.0321C2.50771 15.1564 2.31577 15.3169 2.15861 15.5508C2.00146 15.7848 1.88657 16.1164 1.92986 16.4671C2.08194 17.6989 3.35861 18.0483 3.35861 18.0483L3.36361 18.0508L9.06111 20.0008C9.20638 20.4854 10.7892 25.7683 11.1374 26.8871C11.3297 27.5056 11.5096 27.8624 11.6974 28.1058C11.7913 28.2276 11.8898 28.3219 11.9986 28.3908C12.0419 28.4182 12.0874 28.4388 12.1324 28.4571H12.1349C12.1404 28.4595 12.1456 28.4597 12.1511 28.4621L12.1361 28.4583C12.1466 28.4626 12.1569 28.4697 12.1674 28.4733C12.1877 28.4805 12.2001 28.4802 12.2261 28.4858C12.8786 28.7137 13.4186 28.2908 13.4186 28.2908L13.4411 28.2733L16.9411 25.0271L22.6211 29.4558L22.6924 29.4883C23.6866 29.9298 24.5857 29.6835 25.0836 29.2783C25.5815 28.8732 25.7774 28.3508 25.7774 28.3508L25.7986 28.2958L29.9724 6.54209C30.0792 6.05541 30.0943 5.63473 29.9936 5.25459C29.8929 4.87445 29.6482 4.544 29.3411 4.36084C29.034 4.17768 28.7128 4.11841 28.4011 4.13209ZM28.4349 5.43334C28.5615 5.42747 28.6553 5.44195 28.6849 5.45959C28.7144 5.47723 28.7277 5.47491 28.7561 5.58209C28.7845 5.68927 28.7999 5.91502 28.7224 6.26834L28.7199 6.27584L24.5699 27.9033C24.56 27.9251 24.4736 28.1252 24.2761 28.2858C24.0747 28.4497 23.8507 28.5777 23.2561 28.3283L17.0449 23.4846L16.8699 23.3471L16.8661 23.3508L15.0086 21.9571L25.4474 9.67584C25.5276 9.58171 25.5788 9.46637 25.5949 9.34375C25.6109 9.22113 25.5911 9.09649 25.5378 8.98489C25.4845 8.87329 25.4 8.77952 25.2946 8.71492C25.1891 8.65031 25.0672 8.61763 24.9436 8.62084C24.8228 8.62397 24.7054 8.66124 24.6049 8.72834L9.49987 18.7983L3.79361 16.8446C3.79361 16.8446 3.22699 16.5293 3.19986 16.3096C3.19836 16.2974 3.19167 16.3084 3.22111 16.2646C3.25056 16.2208 3.32457 16.1467 3.41736 16.0821C3.60295 15.9528 3.81486 15.8746 3.81486 15.8746L3.83611 15.8671L3.85736 15.8583C3.85736 15.8583 9.68876 13.3568 15.6224 10.8146C18.5892 9.5435 21.5817 8.26251 23.8836 7.27834C26.1849 6.29441 27.8478 5.58619 27.9886 5.52959C28.1489 5.4654 28.3083 5.4392 28.4349 5.43334ZM21.5124 12.3283L13.5961 21.6421L13.5924 21.6458C13.58 21.6607 13.5683 21.6761 13.5574 21.6921C13.5448 21.7094 13.5331 21.7273 13.5224 21.7458C13.4779 21.8213 13.4494 21.9051 13.4386 21.9921C13.4386 21.9938 13.4386 21.9954 13.4386 21.9971L12.4074 26.6346C12.3902 26.5845 12.3782 26.5662 12.3599 26.5071V26.5058C12.0323 25.4534 10.539 20.4711 10.3324 19.7821L21.5124 12.3283ZM14.4899 23.1683L15.9124 24.2358L13.8224 26.1733L14.4899 23.1683Z" fill="black"/>
</g>
</svg>
