<svg width="32" height="33" viewBox="0 0 32 33" fill="none" xmlns="http://www.w3.org/2000/svg">
<g id="icons8-twitter 1" clip-path="url(#clip0_5211_172604)">
<path id="Vector" d="M21.9 3.80083C18.0725 3.80083 14.96 6.91333 14.96 10.7408C14.96 10.9708 15.0175 11.1958 15.04 11.4208C10.3075 10.9683 6.12253 8.68833 3.28003 5.20083C3.14753 5.03333 2.94253 4.94333 2.72753 4.95833C2.51503 4.97333 2.32503 5.09583 2.22003 5.28083C1.62253 6.30833 1.28003 7.49083 1.28003 8.76083C1.28003 10.2983 1.83003 11.7058 2.68003 12.8608C2.51503 12.7883 2.33503 12.7483 2.18003 12.6608C1.98253 12.5558 1.74503 12.5608 1.55253 12.6758C1.36003 12.7908 1.24253 12.9983 1.24003 13.2208V13.3008C1.24003 15.6583 2.46003 17.7058 4.26003 18.9608C4.24003 18.9583 4.22003 18.9658 4.20003 18.9608C3.98003 18.9233 3.75753 19.0008 3.61003 19.1683C3.46253 19.3358 3.41503 19.5683 3.48003 19.7808C4.19503 22.0033 6.02003 23.7008 8.28003 24.3208C6.48003 25.3908 4.39253 26.0208 2.14003 26.0208C1.65253 26.0208 1.18503 25.9958 0.720031 25.9408C0.420031 25.9008 0.132531 26.0758 0.0325308 26.3608C-0.0699692 26.6458 0.0425308 26.9633 0.300031 27.1208C3.18753 28.9733 6.61503 30.0608 10.3 30.0608C16.2725 30.0608 20.9575 27.5658 24.1 24.0008C27.2425 20.4358 28.88 15.8058 28.88 11.4808C28.88 11.2983 28.865 11.1208 28.86 10.9408C30.0325 10.0433 31.08 8.99083 31.9 7.76083C32.0625 7.52333 32.045 7.20583 31.8575 6.98583C31.6725 6.76583 31.36 6.69833 31.1 6.82083C30.77 6.96833 30.385 6.98333 30.04 7.10083C30.495 6.49333 30.885 5.83833 31.12 5.10083C31.2 4.84833 31.1125 4.57083 30.905 4.40583C30.6975 4.24333 30.4075 4.22333 30.18 4.36083C29.0875 5.00833 27.8775 5.46333 26.6 5.74083C25.36 4.58083 23.7275 3.80083 21.9 3.80083ZM21.9 5.08083C23.5325 5.08083 25.0075 5.77833 26.04 6.88083C26.195 7.04083 26.4225 7.10833 26.64 7.06083C27.475 6.89583 28.2675 6.65333 29.04 6.34083C28.595 6.94083 28.045 7.45333 27.4 7.84083C27.1075 7.98333 26.97 8.32083 27.0775 8.62833C27.1825 8.93333 27.5025 9.11083 27.82 9.04083C28.46 8.96333 29.03 8.70333 29.64 8.54083C29.0925 9.13333 28.4925 9.66833 27.84 10.1408C27.6625 10.2708 27.565 10.4808 27.58 10.7008C27.59 10.9608 27.6 11.2183 27.6 11.4808C27.6 15.4808 26.065 19.8233 23.14 23.1408C20.215 26.4583 15.92 28.7808 10.3 28.7808C7.74753 28.7808 5.33753 28.2158 3.16003 27.2208C5.86003 27.0133 8.35003 26.0583 10.36 24.4808C10.57 24.3133 10.6525 24.0333 10.5675 23.7783C10.4825 23.5233 10.2475 23.3483 9.98003 23.3408C7.87003 23.3033 6.10253 22.0758 5.16003 20.3408C5.19503 20.3408 5.22503 20.3408 5.26003 20.3408C5.89253 20.3408 6.51753 20.2608 7.10003 20.1008C7.38003 20.0183 7.57253 19.7583 7.56253 19.4658C7.55253 19.1733 7.34503 18.9233 7.06003 18.8608C4.78253 18.4008 3.07503 16.5458 2.68003 14.2408C3.32503 14.4633 3.98503 14.6383 4.70003 14.6608C4.99253 14.6783 5.25753 14.4958 5.34753 14.2183C5.43753 13.9408 5.32753 13.6358 5.08003 13.4808C3.56003 12.4633 2.56003 10.7308 2.56003 8.76083C2.56003 8.03083 2.75003 7.36083 3.00003 6.72083C6.20003 10.2333 10.68 12.5658 15.74 12.8208C15.94 12.8308 16.135 12.7483 16.265 12.5958C16.395 12.4408 16.445 12.2358 16.4 12.0408C16.3025 11.6258 16.24 11.1858 16.24 10.7408C16.24 7.60583 18.765 5.08083 21.9 5.08083Z" fill="black"/>
</g>
<defs>
<clipPath id="clip0_5211_172604">
<rect width="32" height="32" fill="white" transform="translate(0 0.300598)"/>
</clipPath>
</defs>
</svg>
