<svg width="202" height="155" viewBox="0 0 202 155" fill="none" xmlns="http://www.w3.org/2000/svg">
<path opacity="0.1" d="M182.794 105.909C177.801 80.7334 148.552 60.613 142.847 34.377C132.478 0.998965 98.3029 -4.27804 76.0951 10.218C40.9069 33.1872 78.4453 38.8869 9.4522 93.2305C-7.5839 106.649 -2.1554 165.882 51.4387 152.288C80.2807 144.973 89.0488 143.946 102.022 142.741C134.721 139.705 191.174 148.17 182.794 105.909Z" fill="#55D087"/>
<path d="M149.64 148.746L37.6487 148.838C33.2039 148.842 30.1979 145.842 30.1943 141.397L30.1265 71.2772L157.013 71.1716L157.081 141.291C157.085 145.736 154.085 148.742 149.64 148.746Z" fill="white"/>
<path d="M37.64 149.138C35.3816 149.138 33.4469 148.399 32.0441 146.998C30.6395 145.596 29.8961 143.659 29.894 141.397L29.8259 70.978H30.1259L157.313 70.8718L157.381 141.291C157.385 145.926 154.274 149.042 149.64 149.046L37.6487 149.138H37.64ZM30.4268 71.5774L30.4943 141.397C30.4961 143.496 31.1786 145.286 32.468 146.574C33.7559 147.859 35.5442 148.538 37.64 148.538H37.6484L149.64 148.446C153.915 148.442 156.785 145.567 156.781 141.292L156.714 71.4724L30.4268 71.5774Z" fill="#7B60F1"/>
<path d="M157.092 70.6771L96.5819 24.7578C94.7849 23.3931 92.2778 23.3961 90.4799 24.7629L30.0464 70.7827C29.888 70.9036 29.8031 71.0983 29.8226 71.2966C29.8424 71.4952 29.9633 71.6692 30.1427 71.7568L87.5801 99.7594C90.9494 101.469 94.9853 101.547 98.42 99.9775C98.4797 99.9502 98.5397 99.9223 98.5985 99.8944L156.995 71.6527C157.175 71.5654 157.296 71.3911 157.317 71.1919C157.336 70.993 157.251 70.7977 157.092 70.6771Z" fill="#7B60F1"/>
<path d="M124.007 142.17C123.726 142.17 123.472 142.124 123.244 142.033C123.019 141.939 122.827 141.809 122.668 141.643C122.511 141.476 122.39 141.281 122.306 141.056C122.221 140.831 122.179 140.588 122.179 140.328V140.187C122.179 139.89 122.222 139.62 122.309 139.379C122.396 139.137 122.516 138.931 122.671 138.76C122.826 138.586 123.009 138.454 123.22 138.363C123.431 138.271 123.659 138.225 123.905 138.225C124.177 138.225 124.415 138.271 124.619 138.363C124.823 138.454 124.991 138.583 125.125 138.749C125.261 138.913 125.362 139.109 125.427 139.336C125.495 139.564 125.529 139.815 125.529 140.089V140.451H122.59V139.843H124.693V139.776C124.688 139.623 124.657 139.481 124.601 139.347C124.547 139.213 124.464 139.106 124.352 139.023C124.239 138.941 124.089 138.9 123.902 138.9C123.761 138.9 123.636 138.931 123.525 138.992C123.418 139.05 123.327 139.136 123.255 139.248C123.182 139.361 123.126 139.497 123.086 139.656C123.048 139.813 123.03 139.99 123.03 140.187V140.328C123.03 140.494 123.052 140.649 123.097 140.792C123.143 140.932 123.211 141.056 123.3 141.161C123.39 141.266 123.497 141.35 123.624 141.411C123.75 141.469 123.895 141.498 124.056 141.498C124.26 141.498 124.442 141.457 124.601 141.375C124.761 141.293 124.899 141.177 125.016 141.027L125.463 141.46C125.381 141.579 125.274 141.694 125.143 141.804C125.011 141.912 124.851 142 124.661 142.068C124.473 142.136 124.256 142.17 124.007 142.17ZM126.837 138.296L127.561 139.558L128.3 138.296H129.231L128.078 140.163L129.277 142.1H128.345L127.572 140.785L126.798 142.1H125.863L127.059 140.163L125.909 138.296H126.837ZM131.956 141.337V139.523C131.956 139.387 131.931 139.27 131.882 139.171C131.833 139.073 131.758 138.997 131.657 138.943C131.559 138.889 131.434 138.862 131.284 138.862C131.146 138.862 131.027 138.885 130.926 138.932C130.825 138.979 130.747 139.042 130.69 139.122C130.634 139.202 130.606 139.292 130.606 139.393H129.762C129.762 139.243 129.798 139.097 129.871 138.957C129.944 138.816 130.049 138.691 130.188 138.581C130.326 138.47 130.491 138.384 130.683 138.32C130.875 138.257 131.091 138.225 131.33 138.225C131.616 138.225 131.869 138.273 132.09 138.37C132.312 138.466 132.487 138.611 132.613 138.806C132.742 138.998 132.807 139.239 132.807 139.53V141.221C132.807 141.394 132.818 141.55 132.842 141.688C132.868 141.824 132.904 141.943 132.951 142.043V142.1H132.082C132.043 142.008 132.011 141.892 131.988 141.752C131.966 141.609 131.956 141.47 131.956 141.337ZM132.079 139.786L132.086 140.31H131.478C131.321 140.31 131.182 140.325 131.063 140.356C130.943 140.384 130.844 140.426 130.764 140.482C130.684 140.539 130.625 140.607 130.585 140.686C130.545 140.766 130.525 140.856 130.525 140.957C130.525 141.058 130.548 141.15 130.595 141.235C130.642 141.317 130.71 141.381 130.799 141.428C130.891 141.475 131.001 141.498 131.13 141.498C131.303 141.498 131.454 141.463 131.583 141.393C131.715 141.32 131.818 141.232 131.893 141.129C131.968 141.024 132.007 140.924 132.012 140.831L132.286 141.207C132.258 141.303 132.21 141.406 132.142 141.516C132.074 141.626 131.985 141.732 131.875 141.832C131.767 141.931 131.637 142.012 131.485 142.075C131.335 142.138 131.161 142.17 130.965 142.17C130.716 142.17 130.495 142.121 130.3 142.022C130.106 141.922 129.953 141.787 129.843 141.618C129.733 141.447 129.678 141.254 129.678 141.038C129.678 140.836 129.715 140.658 129.79 140.504C129.868 140.347 129.98 140.215 130.128 140.11C130.278 140.004 130.461 139.925 130.676 139.871C130.892 139.815 131.138 139.786 131.415 139.786H132.079Z" fill="#1E293B"/>
<path d="M134.54 139.069V142.1H133.693V138.296H134.491L134.54 139.069ZM134.403 140.057L134.115 140.054C134.115 139.791 134.147 139.548 134.213 139.326C134.279 139.103 134.375 138.91 134.501 138.746C134.628 138.579 134.785 138.452 134.972 138.363C135.162 138.271 135.381 138.225 135.63 138.225C135.803 138.225 135.961 138.251 136.104 138.303C136.25 138.352 136.375 138.431 136.481 138.538C136.588 138.646 136.67 138.784 136.727 138.953C136.785 139.122 136.815 139.326 136.815 139.565V142.1H135.967V139.639C135.967 139.454 135.939 139.308 135.883 139.203C135.829 139.097 135.75 139.022 135.647 138.978C135.547 138.931 135.426 138.907 135.285 138.907C135.126 138.907 134.99 138.938 134.877 138.999C134.767 139.06 134.677 139.143 134.607 139.248C134.536 139.354 134.485 139.476 134.452 139.614C134.419 139.752 134.403 139.9 134.403 140.057ZM136.762 139.832L136.365 139.92C136.365 139.69 136.396 139.473 136.459 139.27C136.525 139.063 136.62 138.883 136.744 138.728C136.871 138.571 137.027 138.448 137.212 138.359C137.397 138.27 137.609 138.225 137.848 138.225C138.043 138.225 138.216 138.252 138.368 138.306C138.523 138.358 138.654 138.44 138.762 138.552C138.87 138.665 138.952 138.811 139.008 138.992C139.065 139.17 139.093 139.386 139.093 139.639V142.1H138.242V139.635C138.242 139.443 138.214 139.294 138.157 139.189C138.104 139.083 138.026 139.011 137.925 138.971C137.825 138.929 137.704 138.907 137.563 138.907C137.432 138.907 137.316 138.932 137.215 138.981C137.117 139.028 137.034 139.095 136.966 139.182C136.898 139.266 136.846 139.363 136.811 139.473C136.778 139.584 136.762 139.703 136.762 139.832ZM140.872 138.296V142.1H140.021V138.296H140.872ZM139.965 137.297C139.965 137.168 140.007 137.062 140.091 136.977C140.178 136.891 140.297 136.847 140.45 136.847C140.6 136.847 140.718 136.891 140.805 136.977C140.891 137.062 140.935 137.168 140.935 137.297C140.935 137.424 140.891 137.529 140.805 137.614C140.718 137.698 140.6 137.74 140.45 137.74C140.297 137.74 140.178 137.698 140.091 137.614C140.007 137.529 139.965 137.424 139.965 137.297ZM142.64 139.108V142.1H141.793V138.296H142.591L142.64 139.108ZM142.489 140.057L142.215 140.054C142.217 139.784 142.254 139.537 142.327 139.312C142.402 139.087 142.505 138.893 142.636 138.732C142.77 138.57 142.929 138.446 143.115 138.359C143.3 138.27 143.506 138.225 143.733 138.225C143.916 138.225 144.081 138.251 144.229 138.303C144.379 138.352 144.507 138.433 144.612 138.545C144.72 138.658 144.802 138.804 144.858 138.985C144.915 139.163 144.943 139.382 144.943 139.642V142.1H144.092V139.639C144.092 139.456 144.065 139.312 144.011 139.206C143.959 139.098 143.883 139.022 143.782 138.978C143.684 138.931 143.561 138.907 143.413 138.907C143.268 138.907 143.138 138.938 143.023 138.999C142.908 139.06 142.811 139.143 142.731 139.248C142.654 139.354 142.594 139.476 142.552 139.614C142.51 139.752 142.489 139.9 142.489 140.057ZM147.952 141.337V139.523C147.952 139.387 147.927 139.27 147.878 139.171C147.829 139.073 147.754 138.997 147.653 138.943C147.555 138.889 147.431 138.862 147.281 138.862C147.142 138.862 147.023 138.885 146.922 138.932C146.821 138.979 146.743 139.042 146.686 139.122C146.63 139.202 146.602 139.292 146.602 139.393H145.758C145.758 139.243 145.795 139.097 145.867 138.957C145.94 138.816 146.045 138.691 146.184 138.581C146.322 138.47 146.487 138.384 146.679 138.32C146.872 138.257 147.087 138.225 147.326 138.225C147.612 138.225 147.865 138.273 148.086 138.37C148.308 138.466 148.483 138.611 148.609 138.806C148.738 138.998 148.803 139.239 148.803 139.53V141.221C148.803 141.394 148.815 141.55 148.838 141.688C148.864 141.824 148.9 141.943 148.947 142.043V142.1H148.079C148.039 142.008 148.007 141.892 147.984 141.752C147.963 141.609 147.952 141.47 147.952 141.337ZM148.075 139.786L148.082 140.31H147.474C147.317 140.31 147.179 140.325 147.059 140.356C146.94 140.384 146.84 140.426 146.76 140.482C146.681 140.539 146.621 140.607 146.581 140.686C146.541 140.766 146.521 140.856 146.521 140.957C146.521 141.058 146.545 141.15 146.591 141.235C146.638 141.317 146.706 141.381 146.795 141.428C146.887 141.475 146.997 141.498 147.126 141.498C147.299 141.498 147.45 141.463 147.579 141.393C147.711 141.32 147.814 141.232 147.889 141.129C147.964 141.024 148.004 140.924 148.008 140.831L148.282 141.207C148.254 141.303 148.206 141.406 148.138 141.516C148.07 141.626 147.981 141.732 147.871 141.832C147.763 141.931 147.633 142.012 147.481 142.075C147.331 142.138 147.157 142.17 146.961 142.17C146.712 142.17 146.491 142.121 146.296 142.022C146.102 141.922 145.949 141.787 145.839 141.618C145.729 141.447 145.674 141.254 145.674 141.038C145.674 140.836 145.711 140.658 145.786 140.504C145.864 140.347 145.976 140.215 146.124 140.11C146.274 140.004 146.457 139.925 146.672 139.871C146.888 139.815 147.134 139.786 147.411 139.786H148.075Z" fill="#7B60F1"/>
<path d="M119.229 49.4915C121.374 58.9883 124.31 65.0981 122.848 68.6069C122.079 70.4516 120.502 71.9981 117.891 71.9981C113.821 71.9981 113.821 67.1981 109.75 67.1981C105.68 67.1981 105.681 71.9981 101.611 71.9981C97.5416 71.9981 97.5416 67.1981 93.4721 67.1981C89.4026 67.1981 89.4026 71.9981 85.3331 71.9981C81.2636 71.9981 81.2636 67.1981 77.1941 67.1981C73.1246 67.1981 73.1252 71.9981 69.056 71.9981C66.6401 71.9981 65.2745 70.5752 64.4081 68.9309C62.3267 64.9805 67.1777 56.288 69.056 48.6227C71.1314 40.1522 70.9565 29.602 71.2349 23.2387C71.7722 10.9678 81.1919 0.998779 93.4748 0.998779C105.758 0.998779 114.82 10.9885 115.715 23.2387C116.197 29.8429 117.266 40.7978 119.229 49.4912V49.4915Z" fill="white"/>
<path d="M117.891 72.2984C115.717 72.2984 114.636 71.0246 113.592 69.7922C112.591 68.6123 111.647 67.4984 109.75 67.4984C107.854 67.4984 106.91 68.6126 105.909 69.7922C104.865 71.024 103.785 72.2984 101.611 72.2984C99.437 72.2984 98.357 71.0246 97.3127 69.7922C96.3125 68.6123 95.3678 67.4984 93.4721 67.4984C91.5764 67.4984 90.6317 68.6126 89.6315 69.7922C88.5869 71.024 87.5069 72.2984 85.3331 72.2984C83.1593 72.2984 82.0793 71.0246 81.0347 69.7922C80.0345 68.6123 79.0898 67.4984 77.1941 67.4984C75.2984 67.4984 74.354 68.6126 73.3541 69.7922C72.3098 71.024 71.2298 72.2984 69.0563 72.2984C66.8945 72.2984 65.2874 71.2427 64.1432 69.071C62.6921 66.3167 64.4351 61.4471 66.2804 56.2916C67.1969 53.7311 68.1446 51.0836 68.765 48.5513C70.4246 41.7773 70.6346 33.8174 70.8032 27.4211C70.8431 25.9081 70.8806 24.4789 70.9355 23.2258C71.2013 17.1517 73.6169 11.4985 77.7365 7.30721C81.9251 3.04601 87.5144 0.699402 93.4748 0.699402C99.3938 0.699402 104.936 3.04931 109.08 7.31651C113.105 11.4604 115.568 17.1079 116.014 23.2174C116.444 29.1086 117.471 40.3466 119.522 49.4258C120.217 52.5053 120.995 55.2254 121.682 57.6254C123.115 62.6369 124.151 66.2576 123.124 68.7227C122.568 70.058 121.148 72.2984 117.891 72.2984ZM109.75 66.8984C111.924 66.8984 113.005 68.1722 114.049 69.4046C115.05 70.5845 115.995 71.6984 117.891 71.6984C120.8 71.6984 122.072 69.6896 122.571 68.492C123.517 66.221 122.505 62.6849 121.105 57.7904C120.416 55.3829 119.636 52.6541 118.936 49.5584C116.878 40.4405 115.847 29.1689 115.416 23.2615C114.501 10.7413 105.069 1.2997 93.4748 1.2997C81.7109 1.2997 72.0737 10.9426 71.5346 23.2528C71.48 24.5008 71.4422 25.9274 71.4026 27.4376C71.2421 33.5234 71.0225 41.858 69.3473 48.6947C68.7197 51.2567 67.7663 53.9195 66.8447 56.4944C65.045 61.5218 63.3452 66.2708 64.6736 68.7917C65.7044 70.7477 67.1378 71.6984 69.056 71.6984C70.9514 71.6984 71.8961 70.5842 72.8963 69.4046C73.9406 68.1725 75.0206 66.8984 77.1941 66.8984C79.3676 66.8984 80.4479 68.1722 81.4925 69.4046C82.4927 70.5845 83.4374 71.6984 85.3331 71.6984C87.2288 71.6984 88.1738 70.5839 89.174 69.4046C90.2186 68.1725 91.2986 66.8984 93.4724 66.8984C95.6462 66.8984 96.7262 68.1725 97.7708 69.4046C98.771 70.5845 99.7154 71.6984 101.611 71.6984C103.507 71.6984 104.452 70.5839 105.453 69.4046C106.497 68.1725 107.577 66.8984 109.751 66.8984H109.75Z" fill="#292A2E"/>
<path d="M85.1177 24.6745C86.4791 24.6745 87.5828 23.5709 87.5828 22.2094C87.5828 20.848 86.4791 19.7443 85.1177 19.7443C83.7563 19.7443 82.6526 20.848 82.6526 22.2094C82.6526 23.5709 83.7563 24.6745 85.1177 24.6745Z" fill="#292A2E"/>
<path d="M102.022 24.6745C103.383 24.6745 104.487 23.5709 104.487 22.2094C104.487 20.848 103.383 19.7443 102.022 19.7443C100.661 19.7443 99.5569 20.848 99.5569 22.2094C99.5569 23.5709 100.661 24.6745 102.022 24.6745Z" fill="#292A2E"/>
<path d="M97.9841 28.8627C98.5901 28.8627 99.0509 29.4204 98.9243 30.0129C98.396 32.4846 96.1994 34.0383 93.5696 34.0383C90.9398 34.0383 88.7435 32.4846 88.2149 30.0129C88.0883 29.4204 88.5491 28.8627 89.1551 28.8627H97.9841Z" fill="white"/>
<path d="M93.5697 34.3383C90.7365 34.3383 88.4667 32.6253 87.9216 30.0756C87.843 29.7072 87.9342 29.3268 88.1727 29.0319C88.4139 28.7337 88.7721 28.5627 89.1549 28.5627H97.9839C98.3667 28.5627 98.7249 28.7337 98.9661 29.0319C99.2043 29.3265 99.2961 29.7069 99.2172 30.0756C98.6724 32.6253 96.4023 34.3383 93.5694 34.3383H93.5697ZM89.1552 29.1627C88.9542 29.1627 88.7661 29.2527 88.6392 29.4093C88.5153 29.5626 88.4676 29.7597 88.5084 29.9502C88.9926 32.2161 91.0266 33.7383 93.5697 33.7383C96.1128 33.7383 98.1465 32.2161 98.631 29.9502C98.6715 29.7597 98.6238 29.5626 98.4996 29.4093C98.373 29.2527 98.1849 29.1627 97.9839 29.1627H89.1549H89.1552Z" fill="#292A2E"/>
<path d="M150.564 59.5689C150.436 59.5689 150.318 59.4867 150.279 59.3582C150.263 59.3052 148.671 54.0043 149.502 48.0267C150.273 42.4838 153.33 35.2079 163.519 32.022C165.177 31.5037 166.634 31.1833 167.914 31.0143C168.394 28.0158 170.221 24.7631 174.305 22.5189C184.01 17.1864 190.565 21.9708 190.63 22.0197C190.761 22.1186 190.788 22.3052 190.689 22.4366C190.59 22.5683 190.404 22.5946 190.272 22.4962C190.21 22.4497 183.945 17.9014 174.592 23.0413C170.775 25.1386 169.028 28.1487 168.531 30.9431C173.025 30.5005 175.178 31.9996 176.143 33.1321C177.372 34.5725 177.643 36.5539 176.834 38.1802C176.148 39.5589 174.827 40.3317 173.306 40.2393C170.797 40.0921 168.72 37.9808 168.016 34.8604C167.797 33.8885 167.718 32.7903 167.833 31.6405C166.553 31.8148 165.168 32.1313 163.697 32.5912C155.756 35.0744 151.179 40.2954 150.093 48.1089C149.279 53.9575 150.833 59.1323 150.849 59.1839C150.897 59.3412 150.808 59.5081 150.651 59.5561C150.622 59.565 150.593 59.5692 150.564 59.5692V59.5689ZM168.44 31.5672C168.311 32.6973 168.383 33.7777 168.597 34.729C169.241 37.5836 171.103 39.5127 173.341 39.6442C174.615 39.7169 175.724 39.0725 176.3 37.9144C177.002 36.5023 176.763 34.777 175.69 33.5184C174.296 31.8843 171.753 31.2238 168.44 31.5669V31.5672Z" fill="#292A2E"/>
<path d="M197.572 25.0323C197.169 25.0323 196.773 24.917 196.426 24.6935C195.948 24.3859 195.618 23.9108 195.497 23.3553C195.248 22.2087 195.978 21.0729 197.125 20.8238C198.272 20.5746 199.407 21.3051 199.657 22.4516C199.905 23.5985 199.175 24.734 198.028 24.9831C197.877 25.0162 197.724 25.0323 197.572 25.0323ZM197.577 21.371C197.47 21.371 197.361 21.3826 197.251 21.4061C196.426 21.5856 195.9 22.4031 196.08 23.2286C196.166 23.6286 196.404 23.9707 196.748 24.1922C197.092 24.4136 197.502 24.4881 197.902 24.4008C198.727 24.2214 199.253 23.4039 199.074 22.5783C198.918 21.8618 198.282 21.371 197.577 21.371Z" fill="#292A2E"/>
<path d="M196.675 29.8968C196.271 29.8968 195.875 29.7814 195.528 29.5579C195.05 29.2504 194.72 28.7753 194.599 28.2198C194.479 27.6642 194.581 27.095 194.889 26.6169C195.196 26.1389 195.672 25.8093 196.227 25.6886C196.782 25.5675 197.352 25.6707 197.83 25.9782C198.308 26.2858 198.638 26.7609 198.759 27.3164C198.879 27.8719 198.776 28.4412 198.469 28.9192C198.161 29.3973 197.686 29.7269 197.13 29.8476C196.979 29.8807 196.826 29.8968 196.675 29.8968ZM196.682 26.2354C196.573 26.2354 196.463 26.2471 196.353 26.2709C195.953 26.3579 195.612 26.5952 195.39 26.9394C195.169 27.2836 195.095 27.6934 195.182 28.0934C195.269 28.4933 195.506 28.8355 195.85 29.0569C196.195 29.2787 196.604 29.3526 197.004 29.2656C197.404 29.1785 197.746 28.9413 197.967 28.5971C198.188 28.2528 198.263 27.843 198.176 27.4431C198.089 27.0431 197.851 26.701 197.507 26.4795C197.257 26.3186 196.972 26.2357 196.682 26.2357L196.682 26.2354Z" fill="#292A2E"/>
<path d="M199.875 25.9023C200.063 24.8843 198.98 23.8311 197.456 23.5499C195.932 23.2686 194.544 23.8659 194.356 24.8839C194.168 25.9018 195.251 26.955 196.776 27.2363C198.3 27.5175 199.688 26.9203 199.875 25.9023Z" fill="white"/>
<path d="M197.528 27.6053C197.264 27.6053 196.994 27.5806 196.723 27.5308C195.928 27.3842 195.216 27.0364 194.718 26.5515C194.187 26.0356 193.955 25.4246 194.065 24.8312C194.174 24.2378 194.609 23.7499 195.289 23.4573C195.927 23.1822 196.716 23.1118 197.511 23.2582C198.306 23.4048 199.018 23.7526 199.517 24.2375C200.048 24.7534 200.28 25.3644 200.17 25.9578C200.06 26.5512 199.626 27.039 198.946 27.3317C198.525 27.5129 198.038 27.6053 197.528 27.6053ZM196.705 23.7791C196.276 23.7791 195.871 23.8554 195.524 24.0048C195.033 24.2161 194.723 24.5481 194.65 24.9394C194.578 25.3307 194.749 25.7515 195.133 26.1241C195.548 26.5276 196.151 26.8194 196.831 26.9446C197.51 27.0694 198.178 27.0128 198.71 26.7842C199.201 26.5729 199.511 26.2409 199.584 25.8496C199.656 25.4583 199.485 25.0374 199.101 24.6646C198.686 24.2611 198.083 23.9696 197.403 23.8441C197.167 23.8006 196.933 23.7791 196.705 23.7791Z" fill="#292A2E"/>
<path d="M196.772 23.4819L196.172 27.078L197.057 27.2795L197.798 23.6289L196.772 23.4819Z" fill="#292A2E"/>
<path d="M200.364 27.3504C200.524 27.3504 200.654 27.2207 200.654 27.0607C200.654 26.9007 200.524 26.771 200.364 26.771C200.204 26.771 200.075 26.9007 200.075 27.0607C200.075 27.2207 200.204 27.3504 200.364 27.3504Z" fill="#292A2E"/>
<path d="M200.87 25.8677C201.03 25.8677 201.159 25.738 201.159 25.578C201.159 25.418 201.03 25.2883 200.87 25.2883C200.71 25.2883 200.58 25.418 200.58 25.578C200.58 25.738 200.71 25.8677 200.87 25.8677Z" fill="#292A2E"/>
<path d="M43.0421 56.6278C42.9828 56.6278 42.9226 56.6099 42.8701 56.5727C42.736 56.4776 42.7041 56.2916 42.7995 56.1572C42.8546 56.0791 48.241 48.2921 42.2279 41.1932C39.7608 38.2806 36.4231 37.1647 33.5563 37.1647C33.5298 37.1647 33.5029 37.1647 33.4767 37.1647C34.0477 39.1484 33.9458 40.9122 33.1373 42.2653C32.3731 43.5444 31.0093 44.2961 29.6559 44.1786C28.4629 44.0755 27.5202 43.3421 27.0693 42.1663C26.408 40.4413 27.1003 38.7681 28.9207 37.6907C29.8955 37.1138 31.2054 36.7239 32.6726 36.6119C32.2992 35.5866 31.7445 34.5021 31.0141 33.3868C28.8429 30.0709 24.8859 27.7755 20.157 27.0891C16.1499 26.5073 12.3095 27.1925 10.372 28.8335C10.2456 28.9402 10.0575 28.9238 9.95202 28.7986C9.84563 28.6731 9.86112 28.4848 9.9866 28.3784C12.0487 26.6319 16.0742 25.894 20.2425 26.4993C25.1404 27.2101 29.2479 29.6015 31.5127 33.0602C32.3075 34.2741 32.9024 35.4588 33.2913 36.5815C36.3748 36.5093 40.0174 37.6618 42.6821 40.8076C48.9983 48.2644 43.3431 56.4204 43.285 56.5017C43.2269 56.5834 43.1354 56.6278 43.0421 56.6278ZM32.8652 37.1871C31.4391 37.278 30.165 37.6478 29.2247 38.2046C27.6522 39.1353 27.0699 40.5018 27.6263 41.9538C27.9923 42.9081 28.7508 43.503 29.7078 43.5859C30.8287 43.6827 31.9776 43.0449 32.6258 41.9604C33.3685 40.7176 33.4368 39.0656 32.8652 37.1871Z" fill="#292A2E"/>
<path d="M5.22749 33.6401C4.78521 33.773 4.31432 33.7513 3.88068 33.5739C3.37998 33.3689 2.98866 32.9814 2.77944 32.4822C2.57022 31.983 2.56754 31.4323 2.77229 30.9313C2.97734 30.4306 3.36478 30.0393 3.86399 29.8297C4.8925 29.3988 6.08434 29.884 6.51619 30.9143C6.94834 31.9449 6.46165 33.1346 5.43135 33.5668C5.36429 33.5948 5.29634 33.6192 5.22749 33.6401ZM4.23653 30.3283C4.18855 30.3427 4.14116 30.3596 4.09407 30.3796C3.74179 30.5274 3.4682 30.8034 3.32365 31.1569C3.17911 31.5106 3.18089 31.8993 3.32842 32.2516C3.47624 32.6038 3.75252 32.8774 4.10599 33.022C4.45946 33.1665 4.8478 33.165 5.20037 33.0169C5.92757 32.712 6.2712 31.8722 5.96632 31.1447C5.6808 30.4645 4.92737 30.1203 4.23623 30.3281L4.23653 30.3283Z" fill="#292A2E"/>
<path d="M5.22386 28.969C4.78128 29.1022 4.31039 29.0801 3.87675 28.9028C3.37575 28.698 2.98444 28.3103 2.77552 27.8111C2.566 27.3119 2.56332 26.7614 2.76836 26.2604C2.97341 25.7594 3.36085 25.3681 3.86036 25.1586C4.35867 24.9503 4.91033 24.947 5.41103 25.1517C5.91202 25.3565 6.30334 25.7442 6.51226 26.2434C6.72178 26.7424 6.72446 27.2931 6.51941 27.7941C6.31467 28.2951 5.92692 28.6864 5.42742 28.8959C5.36036 28.924 5.29241 28.9484 5.22386 28.969ZM4.23409 25.6566C4.18551 25.6712 4.13783 25.6882 4.09044 25.7082C3.73816 25.856 3.46457 26.132 3.31972 26.4854C3.17548 26.8389 3.17697 27.2278 3.32479 27.5801C3.47262 27.9324 3.7486 28.2063 4.10236 28.3505C4.45583 28.4951 4.84238 28.4939 5.19704 28.3458C5.54931 28.1979 5.82291 27.922 5.96775 27.5685C6.112 27.215 6.11051 26.8261 5.96269 26.4738C5.81486 26.1215 5.53888 25.8476 5.18512 25.7034C4.87904 25.5782 4.54673 25.5627 4.23439 25.6566H4.23409Z" fill="#292A2E"/>
<path d="M4.64548 31.0767C6.1091 31.0767 7.29559 30.2842 7.29559 29.3066C7.29559 28.3291 6.1091 27.5366 4.64548 27.5366C3.18186 27.5366 1.99536 28.3291 1.99536 29.3066C1.99536 30.2842 3.18186 31.0767 4.64548 31.0767Z" fill="white"/>
<path d="M5.81758 31.2069C5.45309 31.3166 5.05611 31.3744 4.6472 31.3747C2.99401 31.3762 1.69816 30.4687 1.69727 29.309C1.69637 28.1491 2.99043 27.2401 4.64333 27.2383C5.40957 27.2377 6.13409 27.4389 6.68337 27.8051C7.2696 28.1959 7.59267 28.7282 7.59327 29.3037C7.59386 29.8792 7.27169 30.412 6.68605 30.804C6.43034 30.975 6.13618 31.1106 5.81758 31.2063V31.2069ZM3.65386 27.9774C2.85751 28.217 2.29304 28.7305 2.29333 29.3084C2.29393 30.1063 3.37132 30.7795 4.64631 30.7786C5.29632 30.778 5.90312 30.6111 6.35434 30.3089C6.76891 30.0315 6.9972 29.6747 6.9969 29.3048C6.9966 28.9347 6.76771 28.5785 6.35255 28.3017C5.90014 28.0001 5.29334 27.8343 4.64393 27.8349C4.29254 27.8349 3.95636 27.8865 3.65386 27.9777V27.9774Z" fill="#292A2E"/>
<path d="M5.29558 31.0225L5.233 27.5805L4.37704 27.5456L4.31714 31.063L5.29558 31.0225Z" fill="#292A2E"/>
<path d="M1.12955 30.0556C1.28065 30.0556 1.40315 29.9331 1.40315 29.782C1.40315 29.6309 1.28065 29.5084 1.12955 29.5084C0.97845 29.5084 0.855957 29.6309 0.855957 29.782C0.855957 29.9331 0.97845 30.0556 1.12955 30.0556Z" fill="#292A2E"/>
<path d="M1.34317 28.5914C1.49428 28.5914 1.61677 28.4689 1.61677 28.3178C1.61677 28.1667 1.49428 28.0442 1.34317 28.0442C1.19207 28.0442 1.06958 28.1667 1.06958 28.3178C1.06958 28.4689 1.19207 28.5914 1.34317 28.5914Z" fill="#292A2E"/>
</svg>
