<svg width="398" height="290" viewBox="0 0 398 290" fill="none" xmlns="http://www.w3.org/2000/svg">
<g clip-path="url(#clip0_5289_11893)">
<path opacity="0.1" d="M264.585 18.7871C165.957 -21.8906 47.6635 48.0448 20.2834 105.731C-45.4622 244.247 69.4315 308.177 119.975 284.792C141.076 275.03 158.312 258.36 174.97 242.142C199.607 218.156 233.497 203.927 267.872 203.137C294.635 202.522 321.27 209.703 347.957 207.594C374.644 205.485 398.217 168.68 397.494 141.92C396.39 101.076 370.348 62.4077 264.586 18.7871H264.585Z" fill="#7B5FF1"/>
<path d="M332.498 14.0327H65.5056C56.0306 14.0327 48.3496 21.7137 48.3496 31.1887V241.296C48.3496 250.771 56.0306 258.452 65.5056 258.452H332.498C341.973 258.452 349.654 250.771 349.654 241.296V31.1887C349.654 21.7137 341.973 14.0327 332.498 14.0327Z" fill="white" stroke="black" stroke-width="2.25"/>
<path d="M332.498 257.83H65.505C56.3881 257.83 48.9707 250.413 48.9707 241.296V31.1881C48.9707 22.0712 56.3876 14.6538 65.505 14.6538H332.498C341.615 14.6538 349.033 22.0707 349.033 31.1881V241.296C349.033 250.412 341.616 257.83 332.498 257.83ZM65.505 15.6598C56.9427 15.6598 49.9773 22.6258 49.9773 31.1875V241.295C49.9773 249.857 56.9433 256.823 65.505 256.823H332.498C341.06 256.823 348.026 249.857 348.026 241.295V31.1881C348.026 22.6258 341.06 15.6604 332.498 15.6604H65.505V15.6598Z" fill="#292A2E"/>
<path d="M348.529 62.7133H349.654V61.5883V31.189C349.654 21.7118 341.972 14.0298 332.499 14.0298H65.5055C56.0278 14.0298 48.3506 21.7121 48.3506 31.189V61.5883V62.7133H49.4756H348.529Z" fill="#7B5FF1" stroke="black" stroke-width="2.25"/>
<path d="M349.069 62.1278H48.9355V31.1885C48.9355 22.0495 56.3686 14.6143 65.5055 14.6143H332.499C341.636 14.6143 349.069 22.0495 349.069 31.1885L349.069 62.1278ZM50.0155 61.0478H347.989V31.1885C347.989 22.6451 341.04 15.6943 332.499 15.6943H65.5049C56.9643 15.6943 50.015 22.6451 50.015 31.1885L50.0155 61.0478Z" fill="#7B5FF1"/>
<path d="M211.976 168.958C211.751 169.044 211.489 168.972 211.343 168.767C207.178 162.905 199.563 160.582 192.824 163.118C192.797 163.128 192.77 163.139 192.743 163.149C189.788 164.279 187.266 166.237 185.45 168.816C185.278 169.06 184.942 169.118 184.698 168.946C184.454 168.775 184.395 168.437 184.567 168.194C186.508 165.439 189.201 163.348 192.357 162.14C192.386 162.129 192.414 162.118 192.443 162.107C199.641 159.398 207.775 161.88 212.224 168.141C212.397 168.384 212.339 168.721 212.096 168.894C212.058 168.921 212.018 168.942 211.976 168.958Z" fill="#292A2E"/>
<path d="M127.152 30.9057V8.46495C127.152 4.33381 123.803 0.984863 119.672 0.984863C115.541 0.984863 112.192 4.33381 112.192 8.46495V30.9057C112.192 35.0369 115.541 38.3858 119.672 38.3858C123.803 38.3858 127.152 35.0369 127.152 30.9057Z" fill="white"/>
<path d="M119.673 38.8879C115.271 38.8879 111.689 35.3066 111.689 30.9046V8.46432C111.689 4.06224 115.271 0.480957 119.673 0.480957C124.075 0.480957 127.656 4.06224 127.656 8.46432V30.9046C127.656 35.3066 124.074 38.8879 119.673 38.8879ZM119.673 1.48698C115.825 1.48698 112.695 4.61682 112.695 8.46432V30.9046C112.695 34.7521 115.825 37.8819 119.673 37.8819C123.52 37.8819 126.65 34.7521 126.65 30.9046V8.46432C126.65 4.61682 123.52 1.48698 119.673 1.48698Z" fill="#262626"/>
<path d="M285.811 30.9043V8.46349C285.811 4.33236 282.462 0.983398 278.331 0.983398C274.2 0.983398 270.851 4.33236 270.851 8.46349V30.9043C270.851 35.0354 274.2 38.3843 278.331 38.3843C282.462 38.3843 285.811 35.0354 285.811 30.9043Z" fill="white"/>
<path d="M278.331 38.8879C273.929 38.8879 270.348 35.3066 270.348 30.9046V8.46432C270.348 4.06224 273.929 0.480957 278.331 0.480957C282.733 0.480957 286.314 4.06224 286.314 8.46432V30.9046C286.314 35.3066 282.733 38.8879 278.331 38.8879ZM278.331 1.48698C274.484 1.48698 271.354 4.61682 271.354 8.46432V30.9046C271.354 34.7521 274.484 37.8819 278.331 37.8819C282.178 37.8819 285.308 34.7521 285.308 30.9046V8.46432C285.308 4.61682 282.178 1.48698 278.331 1.48698Z" fill="#262626"/>
<g opacity="0.08">
<path d="M107.141 83.0991H64.0869V125.416H107.141V83.0991Z" fill="#7B5FF1"/>
<path d="M107.142 137.183H64.0879V179.5H107.142V137.183Z" fill="#7B5FF1"/>
<path d="M107.142 191.267H64.0879V233.584H107.142V191.267Z" fill="#7B5FF1"/>
<path d="M163.833 83.0986H120.779V125.416H163.833V83.0986Z" fill="#7B5FF1"/>
<path d="M163.833 137.182H120.779V179.499H163.833V137.182Z" fill="#7B5FF1"/>
<path d="M219.95 83.0986H176.896V125.416H219.95V83.0986Z" fill="#7B5FF1"/>
<path d="M219.95 137.183H176.896V179.5H219.95V137.183Z" fill="#7B5FF1"/>
<path d="M277.66 83.0986H234.606V125.416H277.66V83.0986Z" fill="#7B5FF1"/>
<path d="M277.66 137.182H234.606V179.499H277.66V137.182Z" fill="#7B5FF1"/>
<path d="M163.833 191.267H120.779V233.584H163.833V191.267Z" fill="#7B5FF1"/>
<path d="M219.95 191.267H176.896V233.584H219.95V191.267Z" fill="#7B5FF1"/>
<path d="M333.916 83.0986H290.862V125.416H333.916V83.0986Z" fill="#7B5FF1"/>
<path d="M333.916 137.183H290.862V179.5H333.916V137.183Z" fill="#7B5FF1"/>
</g>
<path d="M171.252 144.941C175.722 144.941 179.345 141.318 179.345 136.848C179.345 132.378 175.722 128.754 171.252 128.754C166.782 128.754 163.158 132.378 163.158 136.848C163.158 141.318 166.782 144.941 171.252 144.941Z" fill="#292A2E"/>
<path d="M226.748 144.941C231.218 144.941 234.841 141.318 234.841 136.848C234.841 132.378 231.218 128.754 226.748 128.754C222.278 128.754 218.654 132.378 218.654 136.848C218.654 141.318 222.278 144.941 226.748 144.941Z" fill="#292A2E"/>
<path d="M162.902 160.002C166.89 160.002 170.122 158.301 170.122 156.202C170.122 154.103 166.89 152.402 162.902 152.402C158.915 152.402 155.683 154.103 155.683 156.202C155.683 158.301 158.915 160.002 162.902 160.002Z" fill="white"/>
<path d="M235.097 160.002C239.085 160.002 242.317 158.301 242.317 156.202C242.317 154.103 239.085 152.402 235.097 152.402C231.11 152.402 227.877 154.103 227.877 156.202C227.877 158.301 231.11 160.002 235.097 160.002Z" fill="white"/>
<g opacity="0.4">
<path d="M162.902 160.002C166.89 160.002 170.122 158.301 170.122 156.202C170.122 154.103 166.89 152.402 162.902 152.402C158.915 152.402 155.683 154.103 155.683 156.202C155.683 158.301 158.915 160.002 162.902 160.002Z" fill="#7B5FF1"/>
<path d="M235.097 160.002C239.085 160.002 242.317 158.301 242.317 156.202C242.317 154.103 239.085 152.402 235.097 152.402C231.11 152.402 227.877 154.103 227.877 156.202C227.877 158.301 231.11 160.002 235.097 160.002Z" fill="#7B5FF1"/>
</g>
</g>
<defs>
<clipPath id="clip0_5289_11893">
<rect width="397.019" height="289.038" fill="white" transform="translate(0.490723 0.480957)"/>
</clipPath>
</defs>
</svg>
