<svg width="841" height="911" viewBox="0 0 841 911" fill="none" xmlns="http://www.w3.org/2000/svg">
<path d="M657.153 101.768C724.151 158.698 770.047 238.722 802.755 326.802C834.935 414.346 854.454 509.945 829.66 591.58C804.865 673.753 736.285 741.961 659.263 803.725C582.242 865.489 496.78 920.807 420.286 909.529C343.264 897.713 274.684 819.3 193.97 758.611C113.255 697.921 20.4078 655.492 2.99882 590.506C-13.8826 525.52 44.6748 437.977 74.7448 339.692C104.287 241.408 105.342 132.918 156.514 70.6178C207.686 8.85417 310.029 -6.72103 405.515 2.40925C501 11.5395 589.627 44.8382 657.153 101.768Z" fill="#F8E9FB"/>
</svg>
