<svg width="66" height="85" viewBox="0 0 66 85" fill="none" xmlns="http://www.w3.org/2000/svg">
<g id="Group 47884">
<path id="Vector" d="M34.2413 84.5C42.811 84.5672 44.0806 75.8727 44.2086 71.5723C36.3656 71.7872 28.4059 71.9097 20.6431 71.9597C21.1233 76.7891 23.3986 84.5 34.2408 84.5H34.2413Z" fill="#010101" stroke="#010101" stroke-width="0.675809" stroke-linecap="round" stroke-linejoin="round"/>
<path id="Vector_2" d="M51.7558 54.0532C58.6486 46.8554 65.6212 41.3481 65.4878 31.3835C65.3594 21.7897 59.9457 9.79278 51.7743 4.76477C43.6033 -0.263684 33.8225 -0.211872 24.4179 1.6885C2.19099 6.17901 -8.03131 38.5682 9.11579 53.195C14.1799 57.5147 20.1869 61.9679 20.5406 70.493C20.5591 70.9376 20.591 71.4319 20.6433 71.9594C28.4061 71.9099 36.3658 71.7869 44.2088 71.572C44.2178 71.2764 44.2214 71.0007 44.2214 70.7511C44.2214 65.3091 48.5128 57.4408 51.7563 54.0537L51.7558 54.0532Z" fill="white" stroke="#010101" stroke-width="0.675809" stroke-linecap="round" stroke-linejoin="round"/>
<path id="Vector_3" d="M36.6604 71.9857C37.1127 62.887 39.6957 52.6138 43.2275 44.2167C45.0499 39.883 47.5801 35.7308 48.1622 31.0659C48.5078 28.2938 47.8802 25.0382 45.4612 23.6406C43.2419 22.3584 40.1777 23.2644 38.6198 25.2995C37.0618 27.3346 36.8712 30.1901 37.6565 32.6298C37.8331 33.1781 38.1102 33.7683 38.6504 33.9674C39.6795 34.3463 40.5157 33.0798 40.845 32.0341C41.4645 30.0671 41.9096 27.9942 41.6411 25.9492C41.3726 23.9046 40.2877 21.8813 38.4702 20.9072C35.5291 19.3312 31.7576 21.005 29.6229 23.5699C27.7289 25.8451 26.7021 29.2259 28.2046 31.7769C28.693 32.6063 29.727 33.3412 30.5646 32.8672C31.2359 32.4874 31.344 31.5827 31.3751 30.8123C31.4873 28.0162 31.271 24.6147 28.7926 23.3158C27.4338 22.6035 25.7325 22.8067 24.3706 23.5131C20.6991 25.4171 19.5863 30.1698 19.7345 34.3031C19.9071 39.1013 22.3386 42.7029 24.011 47.2038C26.8485 54.84 28.625 53.2041 28.625 72.0717C31.0187 72.0064 32.9322 71.9866 36.6613 71.9866L36.6604 71.9857Z" stroke="#010101" stroke-width="0.675809" stroke-linecap="round" stroke-linejoin="round"/>
</g>
</svg>
