<svg width="106" height="85" viewBox="0 0 106 85" fill="none" xmlns="http://www.w3.org/2000/svg">
<g id="Group 47883">
<path id="Vector" d="M89.086 50.1861C88.7579 53.9317 87.9161 57.6202 86.6746 61.0949C85.7257 63.7634 84.5414 66.3103 83.1644 68.6646C81.0095 72.3603 74.703 81.6423 59.9768 83.9537C56.4094 84.5101 52.7853 84.6389 49.1896 84.3535C41.5483 83.7544 34.0431 81.293 27.5645 77.212C26.2092 76.3558 24.9032 75.4352 23.6478 74.4435C19.3669 71.0688 15.6645 66.9022 13.1315 62.0722C7.32422 50.9995 8.30145 37.0868 14.1232 26.0213C17.2336 20.1141 21.5573 14.5705 27.308 11.2313C27.7577 10.9676 28.2214 10.7177 28.6922 10.4823C37.0825 6.29407 44.6382 4.83156 51.33 5.20968C70.9501 6.34404 83.136 23.3745 87.1243 34.1906C89.0222 39.3488 89.5785 44.8285 89.0866 50.1861H89.086Z" fill="#7B5FF1" stroke="#010101" stroke-width="0.832865" stroke-linecap="round" stroke-linejoin="round"/>
<path id="Vector_2" d="M89.0857 50.1849C85.0263 51.4975 80.5743 51.1055 76.4217 50.0778C73.2185 49.286 69.9081 47.9729 68.017 45.2688C65.0631 41.024 66.5972 34.9591 64.2074 30.3789C61.9098 25.9552 56.6234 24.0291 53.3341 20.2906C50.8583 17.4794 49.6167 13.6199 49.981 9.88815C50.1453 8.26129 50.609 6.67051 51.3297 5.20801C70.9497 6.34236 83.1357 23.3728 87.124 34.1889C89.0218 39.3471 89.5782 44.8268 89.0862 50.1844L89.0857 50.1849Z" fill="#55D087" stroke="#010101" stroke-width="0.832865" stroke-linecap="round" stroke-linejoin="round"/>
<path id="Vector_3" d="M86.6745 61.094C85.7256 63.7625 84.5413 66.3094 83.1643 68.6636C81.0094 72.3593 74.7029 81.6413 59.9767 83.9528C56.4093 84.5091 52.7852 84.638 49.1895 84.3526C48.4832 82.2621 47.9696 80.1144 47.7769 77.9173C47.4205 73.7791 48.3261 69.3987 50.9446 66.1739C53.5703 62.949 58.0789 61.1367 62.0533 62.3355C63.9867 62.9207 65.7063 64.1478 67.6896 64.4971C71.6424 65.2105 75.2526 62.3782 79.0838 61.1795C81.5524 60.4088 84.192 60.4305 86.6751 61.094H86.6745Z" fill="#55D087" stroke="#010101" stroke-width="0.832865" stroke-linecap="round" stroke-linejoin="round"/>
<path id="Vector_4" d="M40.2102 63.9553C35.9181 73.456 31.3102 73.5471 29.8332 75.2278C29.1625 75.9913 28.3918 76.6404 27.5645 77.2112C26.2092 76.355 24.9032 75.4344 23.6478 74.4427C19.3669 71.0679 15.6645 66.9014 13.1315 62.0713C7.32422 50.9987 8.30145 37.0859 14.1232 26.0205C17.2336 20.1133 21.5573 14.5697 27.308 11.2305C31.61 13.8346 34.8993 18.1655 35.7766 23.131C36.7399 28.5463 35.1985 34.4891 37.6816 39.4052C38.8659 41.7455 40.8792 47.766 41.4928 50.3202C42.1846 53.1669 41.4156 61.2868 40.2102 63.9553Z" fill="#55D087" stroke="#010101" stroke-width="0.832865" stroke-linecap="round" stroke-linejoin="round"/>
<path id="Vector_5" d="M72.8544 0.52892C62.1488 1.29682 64.8889 13.2112 66.9483 17.2951C68.2348 19.8453 70.8112 24.3394 72.3181 26.5071C72.8156 27.2234 73.3136 27.9391 73.8111 28.6553C75.2659 26.0723 76.9688 23.4199 78.4835 20.6643C79.9738 17.953 81.2969 15.0946 81.7833 12.0391C82.1026 10.0341 81.7661 -0.110166 72.855 0.52892H72.8544ZM78.393 10.2274C77.9777 11.7726 76.6951 13.0352 75.1637 13.4989C73.6323 13.9625 71.9016 13.6416 70.5913 12.7232C69.9222 12.254 69.3492 11.6249 69.0405 10.8687C68.7984 10.2762 68.7257 9.62381 68.7595 8.98473C68.8467 7.3301 69.6357 5.68602 70.9594 4.6888C73.2431 2.96755 76.006 4.50779 77.2858 5.60662C78.4996 6.64882 78.8083 8.68212 78.393 10.2274Z" fill="#FF8B37" stroke="#010101" stroke-width="0.832865" stroke-linecap="round" stroke-linejoin="round"/>
<path id="Vector_6" d="M12.9174 20.4557C2.21179 21.2236 4.95192 33.138 7.01132 37.2218C8.29726 39.772 10.8741 44.2662 12.3811 46.4338C12.8786 47.1501 13.3766 47.8658 13.8741 48.5821C15.3289 45.9991 17.0318 43.3467 18.5465 40.591C20.0368 37.8798 21.3599 35.0214 21.8463 31.9659C22.1656 29.9609 21.8285 19.8166 12.9174 20.4557ZM18.456 30.1541C18.0407 31.6994 16.7581 32.962 15.2267 33.4256C13.6953 33.8892 11.9646 33.5683 10.6543 32.6499C9.9852 32.1807 9.41219 31.5517 9.10347 30.7954C8.86139 30.203 8.78865 29.5506 8.82252 28.9115C8.90969 27.2563 9.69869 25.6128 11.0224 24.6156C13.3061 22.8943 16.069 24.4346 17.3488 25.5334C18.5626 26.5756 18.8713 28.6089 18.456 30.1541Z" fill="#FF8B37" stroke="#010101" stroke-width="0.832865" stroke-linecap="round" stroke-linejoin="round"/>
<path id="Vector_7" d="M56.7465 44.8457C46.0409 45.6136 48.781 57.5281 50.8404 61.6119C52.1264 64.1621 54.7032 68.6562 56.2102 70.8245C56.7077 71.5407 57.2057 72.2564 57.7032 72.9727C59.158 70.3897 60.8609 67.7373 62.3756 64.9816C63.8659 62.2704 65.189 59.412 65.6754 56.3565C65.9947 54.3515 65.6582 44.2072 56.7471 44.8463L56.7465 44.8457ZM62.2851 54.5442C61.8698 56.0894 60.5872 57.352 59.0558 57.8157C57.5244 58.2793 55.7937 57.9584 54.4834 57.04C53.8143 56.5708 53.2413 55.9417 52.9326 55.1855C52.6905 54.593 52.6177 53.9406 52.6516 53.3016C52.7388 51.6469 53.5278 50.0029 54.8515 49.0056C57.1352 47.2844 59.8981 48.8246 61.1779 49.9234C62.3917 50.9656 62.7004 52.9989 62.2851 54.5442Z" fill="#FF8B37" stroke="#010101" stroke-width="0.832865" stroke-linecap="round" stroke-linejoin="round"/>
<path id="Vector_8" d="M11.6585 60.0735C2.45427 67.7592 -5.42408 83.2022 7.20715 81.1633C49.4523 74.3444 111.729 28.7756 104.835 20.061C102.892 17.6046 92.0672 16.845 81.4482 23.5346" stroke="#010101" stroke-width="0.832865" stroke-linecap="round" stroke-linejoin="round"/>
</g>
</svg>
