<svg width="82" height="87" viewBox="0 0 82 87" fill="none" xmlns="http://www.w3.org/2000/svg">
<g id="Group 47880">
<path id="Vector" d="M71.212 27.0008C72.7734 25.8615 74.5041 24.954 76.33 24.3182C76.7928 24.157 77.3126 24.0158 77.7591 24.215C78.1322 24.3816 78.3686 24.7502 78.5715 25.1053C79.364 26.4855 79.9997 27.9554 80.4616 29.4787C80.5477 29.7604 80.6274 30.0611 80.5549 30.3464C80.4788 30.6489 80.2452 30.8825 80.016 31.0954C78.8477 32.1803 77.5499 33.125 76.1597 33.9047C75.8337 34.0877 75.4904 34.2652 75.1182 34.2951C74.5703 34.3385 74.0549 34.0596 73.5767 33.7897C72.364 33.105 71.088 32.3588 70.4286 31.1325C69.7684 29.9062 69.9432 27.9255 71.2111 27.0008H71.212Z" fill="#010101" stroke="#010101" stroke-width="0.905668" stroke-miterlimit="10"/>
<path id="Vector_2" d="M37.678 6.86043C37.6889 9.84189 37.6988 12.8224 37.7097 15.8039C39.5138 15.7387 41.3179 15.6735 43.122 15.6083C42.9671 12.7138 42.8122 9.81834 42.6583 6.92383C45.0393 6.84322 47.4166 6.67115 49.785 6.4085C49.5794 4.78645 49.6066 3.13542 49.8656 1.52061C43.5395 1.44816 38.1471 1.54235 30.9697 2.19986C31.1925 3.70599 31.1481 5.74374 31.3709 7.24987C33.1795 6.93288 35.2952 7.11311 37.6789 6.85952L37.678 6.86043Z" fill="#7B5FF1" stroke="#010101" stroke-width="1.3585" stroke-linecap="round" stroke-linejoin="round"/>
<path id="Vector_3" d="M17.7343 19.421C12.1201 23.5445 7.94133 29.4241 5.09934 35.7837C1.86702 43.0173 0.343683 51.2543 2.25917 58.9416C4.32771 67.2421 10.3078 74.2564 17.6483 78.6498C24.9887 83.0432 33.5935 84.9922 42.1375 85.4197C47.7355 85.6996 53.491 85.3246 58.6496 83.132C64.2675 80.7447 68.8574 76.3024 72.1187 71.1428C76.5638 64.1121 78.6776 55.5925 77.8036 47.3201C76.9287 39.0477 73.4999 31.1068 66.8641 23.6831C59.5472 15.4976 32.6172 8.48958 17.7343 19.421Z" fill="#7B5FF1" stroke="#010101" stroke-width="1.3585" stroke-linecap="round" stroke-linejoin="round"/>
<path id="Vector_4" d="M21.1902 24.1755C16.459 27.6505 12.9377 32.6054 10.5422 37.9652C7.81798 44.0612 6.53466 51.0023 8.14856 57.4814C9.89197 64.4768 14.932 70.3881 21.1177 74.0896C27.3034 77.7919 34.5551 79.4339 41.7552 79.7943C46.4728 80.0307 51.3236 79.7137 55.6698 77.8662C60.4038 75.8538 64.2719 72.1107 67.0206 67.7626C70.7664 61.8377 72.5479 54.6576 71.8106 47.6866C71.0734 40.7157 68.1835 34.0228 62.591 27.7674C56.4243 20.8698 33.73 14.963 21.1874 24.1755H21.1902Z" fill="white" stroke="#010101" stroke-width="1.3585" stroke-linecap="round" stroke-linejoin="round"/>
<path id="Vector_5" d="M38.7688 49.996C37.624 50.3555 37.0543 51.8716 37.6086 52.9358C38.1629 53.9999 39.6418 54.4229 40.716 53.8876C41.7819 53.3569 42.3362 51.9368 41.8281 50.86C41.32 49.7831 39.9181 49.6346 38.7688 49.996Z" fill="#010101" stroke="#010101" stroke-width="1.3585" stroke-linecap="round" stroke-linejoin="round"/>
<path id="Vector_6" d="M38.975 25.5059C38.6744 34.5145 38.784 43.5377 39.0828 52.8742C46.7937 49.535 54.5055 46.1958 62.2163 42.8566" stroke="#010101" stroke-width="1.3585" stroke-linecap="round" stroke-linejoin="round"/>
</g>
</svg>
