<svg width="74" height="87" viewBox="0 0 74 87" fill="none" xmlns="http://www.w3.org/2000/svg">
<path d="M72.1443 19.107C60.4503 15.9305 41.7984 6.52413 40.3284 1.5C27.1988 12.4963 11.9483 17.4547 1.55536 17.797C0.927443 32.1619 1.30503 54.5976 7.19018 65.5455C11.2458 73.0911 18.9063 78.0832 26.8722 81.2343C31.6336 83.118 36.6085 84.4609 41.402 85.5C50.7698 81.0225 60.5283 76.0821 66.3133 67.4596C71.5328 59.68 71.9268 43.9248 72.2428 34.5611C72.3528 31.3066 73.1924 22.7473 72.1443 19.1062V19.107Z" fill="#7B5FF1" stroke="#010101" stroke-width="1.2312" stroke-linecap="round" stroke-linejoin="round"/>
<path d="M34.2882 21.9637C30.4296 22.4973 26.9494 24.72 24.1274 27.4056C19.2256 32.0694 16.3183 39.0323 17.3755 45.7153C17.8368 48.6283 19.0139 51.4042 20.6226 53.8773C24.4229 59.719 30.7308 63.8656 37.5984 65.0443C45.5487 66.4085 49.2284 62.5565 50.9759 61.0347C55.6052 57.0021 59.7018 50.888 59.522 44.2337C59.2963 35.8755 54.0514 19.2321 34.2882 21.9646V21.9637Z" fill="white" stroke="#010101" stroke-width="1.2312" stroke-linecap="round" stroke-linejoin="round"/>
<path d="M52.7672 36.8229C46.7367 43.583 40.3788 50.0517 33.7237 56.1971C30.3757 52.3541 27.0276 48.5103 24.0342 44.7978C25.4049 43.3843 26.7847 42.8484 28.4977 41.494C30.319 43.4771 32.1511 46.0938 34.167 48.6194C39.1648 43.9565 43.1129 39.5643 49.0366 33.6406C50.2654 34.7356 51.4941 35.8313 52.7672 36.8229Z" fill="#7B5FF1" stroke="#010101" stroke-width="1.2312" stroke-linecap="round" stroke-linejoin="round"/>
</svg>
