<svg width="80" height="85" viewBox="0 0 80 85" fill="none" xmlns="http://www.w3.org/2000/svg">
<g id="Group 47882">
<path id="Vector" d="M43.7136 33.6117C44.0684 27.579 44.8769 23.9105 44.6929 17.87C44.434 9.36194 41.251 1.12551 31.0624 0.530904C27.1356 0.30187 22.9699 1.33595 20.0443 3.96544C16.5941 7.06621 15.6094 12.0135 15.0266 16.6157C14.3302 22.113 13.9289 27.648 14.4212 32.9696C15.6975 33.0244 17.3409 33.2011 19.021 32.9016C18.9226 27.3852 18.9691 21.7376 19.8877 16.2976C20.3722 13.4263 21.1004 10.3897 23.2253 8.39931C25.4154 6.34828 28.6336 5.85204 31.634 5.86183C34.7647 5.8721 38.7458 8.56913 39.8181 15.008C41.1135 22.7888 39.1559 33.3097 39.7139 33.7042C39.8396 33.7928 42.6272 34.104 43.7141 33.6122L43.7136 33.6117Z" fill="#7B5FF1" stroke="#010101" stroke-width="0.734085" stroke-linecap="round" stroke-linejoin="round"/>
<path id="Vector_2" d="M1.6295 40.4495C1.22722 48.5979 1.12837 56.7614 1.33293 64.9171C1.38578 67.0356 1.52428 69.3309 2.89506 70.9473C4.43468 72.763 7.03873 73.1613 9.40835 73.3894C22.5039 74.6486 36.7212 75.6362 49.7634 73.9116C51.6124 73.6669 53.5547 73.3517 55.0073 72.1821C57.6133 70.0831 57.2648 66.1968 57.4473 62.8558C57.8115 56.181 57.8163 42.3136 57.1576 38.489C56.8625 36.7742 56.4431 35.0129 55.3679 33.6446C53.1309 30.7973 48.9618 30.5898 45.3428 30.7038C34.0677 31.0591 19.1139 30.5487 8.502 31.2201C4.73908 31.4585 1.76163 35.2591 1.6295 40.4495Z" fill="#7B5FF1" stroke="#010101" stroke-width="0.734085" stroke-linecap="round" stroke-linejoin="round"/>
<path id="Vector_3" d="M27.881 58.8141C26.1348 58.2313 24.9064 56.4582 24.8091 54.6201C24.7117 52.7819 25.6674 50.9619 27.1371 49.8539C28.6067 48.7459 30.5334 48.3231 32.3623 48.5321C33.2124 48.629 34.0595 48.8609 34.7853 49.3141C35.4817 49.7487 36.0474 50.3776 36.457 51.0891C37.2763 52.5118 37.4583 54.3064 36.8529 55.8323C36.3391 57.1272 35.2463 58.1887 33.9117 58.6859C33.4737 58.8489 33.1957 59.2835 33.2124 59.7503C33.2892 61.9066 33.1223 65.8364 33.0607 67.1671C33.0489 67.4201 32.838 67.6173 32.5845 67.6124L29.332 67.5498C29.0849 67.5449 28.8842 67.3491 28.8739 67.102L28.5798 60.1947C28.5592 59.7102 28.573 59.0461 27.8814 58.8151L27.881 58.8141Z" fill="white" stroke="#010101" stroke-width="0.734085" stroke-linecap="round" stroke-linejoin="round"/>
<path id="Vector_4" d="M77.9009 52.7319C76.6314 49.7691 73.9124 47.4278 70.7548 46.7813C66.1864 45.8456 58.1569 47.9852 62.0403 58.6858C55.0371 66.2723 47.1339 71.9487 41.2515 78.3211C42.8151 80.4039 44.6444 82.662 46.024 84.4996C46.6206 84.0655 47.7002 83.2199 48.2972 82.7858C47.3904 81.4928 46.484 80.1998 45.5772 78.9069C46.4228 78.1561 47.2685 77.4059 48.1142 76.6557C48.9388 77.4862 49.6538 78.4253 50.2347 79.4408C50.5758 79.0229 51.9862 78.0514 52.4825 77.84C51.8644 76.8798 51.0618 76.0209 50.5327 74.8386C55.869 70.1585 60.4992 65.9664 65.0813 62.8412C66.2593 64.0045 67.5591 65.0831 69.0782 65.7413C70.5977 66.399 72.3683 66.6012 73.9138 66.0075C75.6365 65.3459 76.8776 63.7886 77.6567 62.1159C79.0182 59.1947 79.1704 55.6941 77.9009 52.7319ZM74.2872 59.83C73.699 60.9976 72.4897 61.9211 71.183 61.8619C70.5591 61.8335 69.9635 61.5913 69.4178 61.2874C67.3364 60.129 65.8291 57.9903 65.4386 55.6403C65.2737 54.6493 65.1557 53.2486 65.9568 52.2997C67.6736 50.2658 71.7532 50.4019 73.9882 53.3524C74.896 54.5509 75.2944 57.8308 74.2872 59.83Z" fill="#FF8B37" stroke="#010101" stroke-width="0.734085" stroke-linecap="round" stroke-linejoin="round"/>
</g>
</svg>
