<svg width="106" height="87" viewBox="0 0 106 87" fill="none" xmlns="http://www.w3.org/2000/svg">
<g id="Group 47881">
<path id="Vector" d="M21.5534 31.2817C23.3171 29.2642 25.8004 28.0497 28.2206 26.9008C47.8777 17.5734 67.9842 9.1942 88.4467 1.80098C88.977 1.60907 89.5438 1.41591 90.0943 1.53837C91.0399 1.74921 91.5335 2.76932 91.8921 3.66949C95.9838 13.9387 99.9758 24.2458 103.868 34.592C104.167 35.3874 104.468 36.2736 104.156 37.0652C103.826 37.9035 102.928 38.3467 102.106 38.7141C84.788 46.4368 72.8322 52.8087 53.8682 61.2649C49.6477 63.1473 46.143 64.2545 41.574 64.9502C36.3612 65.7443 22.432 63.593 13.7435 62.0754C10.0444 61.429 8.01812 57.4092 9.69093 54.0472C13.8193 45.7475 20.4777 32.5114 21.5508 31.283L21.5534 31.2817Z" fill="#55D087" stroke="#010101" stroke-width="1.89375" stroke-linecap="round" stroke-linejoin="round"/>
<path id="Vector_2" d="M93.435 32.7486C91.1537 33.9316 88.8206 35.016 86.4459 35.997C83.4626 28.8058 80.478 21.6146 77.4619 13.9777C80.2621 12.6344 83.1242 11.4199 86.0355 10.3379" stroke="#010101" stroke-width="1.89375" stroke-linecap="round" stroke-linejoin="round"/>
<path id="Vector_3" d="M82.3311 24.0588C84.3965 23.2747 86.414 22.3632 88.3683 21.333" stroke="#010101" stroke-width="1.89375" stroke-linecap="round" stroke-linejoin="round"/>
<path id="Vector_4" d="M77.0224 39.0601C74.7411 40.2431 72.408 41.3276 70.0333 42.3085C67.05 35.1173 64.0654 27.9261 61.0493 20.2892C63.8495 18.9459 66.7116 17.7314 69.6229 16.6494" stroke="#010101" stroke-width="1.89375" stroke-linecap="round" stroke-linejoin="round"/>
<path id="Vector_5" d="M51.0962 51.9645C48.113 44.7733 45.1284 37.582 42.1123 29.9451C44.8552 28.6293 50.1826 27.0596 52.8435 28.7487M52.8435 28.7487C52.8991 28.7839 52.7919 28.7099 52.8435 28.7487ZM52.8435 28.7487C54.5967 30.2487 55.3685 31.9049 55.3685 33.7987C53.4748 40.1112 47.1623 40.8309 47.1623 40.8309L62.3122 45.1613" stroke="#010101" stroke-width="1.89375" stroke-linecap="round" stroke-linejoin="round"/>
<path id="Vector_6" d="M65.9185 30.3703C67.9839 29.5863 70.0014 28.6747 71.9557 27.6445" stroke="#010101" stroke-width="1.89375" stroke-linecap="round" stroke-linejoin="round"/>
<path id="Vector_7" d="M34.6836 58.7216C31.7004 51.5304 28.7158 44.3392 25.6997 36.7023C28.4999 35.359 31.362 34.1445 34.2733 33.0625" stroke="#010101" stroke-width="1.89375" stroke-linecap="round" stroke-linejoin="round"/>
<path id="Vector_8" d="M30.5688 46.7834C32.6343 45.9993 34.6518 45.0878 36.6061 44.0576" stroke="#010101" stroke-width="1.89375" stroke-linecap="round" stroke-linejoin="round"/>
<path id="Vector_9" d="M15.3231 56.1523C11.9901 58.4084 8.63943 60.7327 6.01596 63.7842C3.3925 66.8357 1.53411 70.7406 1.72601 74.7604C1.91159 78.6375 3.93285 82.1549 5.89982 85.5005" stroke="#010101" stroke-width="1.89375" stroke-linecap="round" stroke-linejoin="round"/>
</g>
</svg>
