<svg width="170" height="48" viewBox="0 0 170 48" fill="none" xmlns="http://www.w3.org/2000/svg">
<g id="full-mina-logo 1" clip-path="url(#clip0_4878_12255)">
<g id="Layer_x0020_1">
<g id="_2985791836672">
<path id="Vector" d="M26.4492 47.9793C25.5666 47.9793 24.6908 47.7077 24.0118 47.0967C23.3329 46.4856 22.9256 45.6777 22.8577 44.7951L22.4503 41.6788C18.6551 40.5926 16.4215 37.7479 15.8104 33.2805L12.3547 6.79567C11.6079 6.65988 10.8678 6.59199 10.121 6.65988C9.03475 6.65988 7.88737 6.79567 6.86898 7.06724V47.2324H0.100098V14.9224C0.100098 10.523 2.06219 7.47459 5.6537 6.18464V4.08676C5.6537 1.64942 7.14055 0.0878906 9.31311 0.0878906C11.4857 0.0878906 12.8367 1.44574 13.1762 3.88308L13.4478 5.77728C17.3787 6.86356 19.6803 10.0409 20.3592 15.1261L23.5434 40.6604C25.4376 40.9999 27.4065 40.9999 29.3007 40.6604L32.4848 15.1261C33.1637 9.97983 35.4653 6.86356 39.3963 5.77728L39.6678 3.88308C40.0073 1.44574 41.4263 0.0878906 43.5309 0.0878906C45.6967 0.0878906 47.1903 1.71052 47.1903 4.08676V6.18464C50.7818 7.47459 52.7439 10.5841 52.7439 14.9224V47.2324H45.9683V7.06724C44.882 6.79567 43.8025 6.65988 42.7162 6.65988C41.9694 6.65988 41.2294 6.72778 40.4826 6.79567L37.0268 33.2805C36.4837 37.68 34.1821 40.5926 30.3869 41.6788L29.9796 44.7951C29.9117 45.6777 29.5043 46.5535 28.8254 47.0967C28.1465 47.7077 27.2707 47.9793 26.3881 47.9793H26.4492ZM23.7403 41.9504L24.0797 44.6593C24.1476 45.2703 24.4192 45.8135 24.8265 46.2141C25.3018 46.6214 25.8449 46.8251 26.4492 46.7572C26.7207 46.7572 27.0602 46.7572 27.3318 46.6214C27.6033 46.5535 27.8749 46.3498 28.0786 46.1462C28.2823 45.9425 28.486 45.7388 28.6217 45.4672C28.7575 45.1957 28.8254 44.9241 28.8254 44.5846L29.1649 41.8757C27.3386 42.1473 25.5055 42.1473 23.7471 41.8757V41.9504H23.7403ZM47.17 46.0104H51.5015V14.9224C51.5015 11.1951 50.0147 8.62198 47.17 7.47459V46.0783V46.0104ZM1.39006 46.0104H5.7216V7.4067C2.8769 8.62198 1.39006 11.2019 1.39006 14.8545V45.9425V46.0104ZM13.7125 7.06724L17.1004 33.0769C17.5756 36.872 19.334 39.3094 22.3824 40.321L19.2661 15.2619C18.723 10.8624 16.8967 8.15352 13.7125 7.06724ZM39.2469 7.06724C36.1306 8.15352 34.3043 10.8624 33.6933 15.2619L30.577 40.321C33.6254 39.2347 35.3838 36.7974 35.8591 33.0769L39.2469 7.06724ZM6.94366 5.70939C8.02994 5.43782 9.10943 5.30203 10.1957 5.30203C10.8746 5.30203 11.5536 5.30203 12.2257 5.43782L12.022 3.95097C11.7505 2.12467 10.8678 1.17417 9.31311 1.17417C7.82626 1.17417 6.87577 2.26045 6.87577 4.01887V5.70939H6.94366ZM42.7026 5.30882C43.7889 5.30882 44.8684 5.44461 45.9547 5.71618V4.01887C45.9547 2.26045 45.0042 1.17417 43.5173 1.17417C42.0305 1.17417 41.08 2.12467 40.8084 3.95097L40.6048 5.43782C41.2837 5.36993 41.9626 5.30203 42.6347 5.30203H42.7026V5.30882Z" fill="black" fill-opacity="0.875"/>
<path id="Vector_2" d="M71.3538 47.2327H64.7139V0.834961H71.3538V47.2327ZM65.9359 46.0106H70.1385V2.05703H65.9359V46.0106Z" fill="black" fill-opacity="0.875"/>
<path id="Vector_3" d="M114.295 47.9798C111.451 47.9798 110.772 45.3388 110.568 44.4562L110.093 42.2904C105.761 41.5436 103.181 38.7668 102.102 33.8242L95.8694 6.73508C95.1225 6.66718 94.4504 6.59929 93.7036 6.59929C92.4815 6.59929 91.3341 6.73508 90.18 7.07454V47.1718H83.4043V14.6513C83.4043 10.4488 85.2985 7.543 88.9579 6.18515V4.01938C88.9579 1.58204 90.4447 0.0205078 92.6173 0.0205078C94.5115 0.0205078 95.8694 1.24257 96.2767 3.20467L96.8199 5.64201C101.022 6.38882 103.528 9.09773 104.743 14.1082L111.111 41.1973C111.858 41.2652 112.53 41.3331 113.277 41.3331C114.499 41.3331 115.646 41.1973 116.801 40.9257V0.835218H123.576V34.3605C123.576 37.8163 121.546 40.5252 118.023 41.8083V43.9062C118.023 46.4115 116.604 48.0409 114.363 48.0409L114.295 47.9798ZM111.315 42.4873L111.722 44.2457C112.198 46.072 112.944 46.8188 114.295 46.8188C115.85 46.8188 116.733 45.7325 116.733 43.9062V42.1478C115.579 42.4194 114.363 42.5552 113.209 42.5552C112.598 42.5552 111.987 42.5552 111.315 42.4873ZM84.5585 46.0109H88.89V7.543C85.9774 8.76506 84.5585 11.2024 84.5585 14.7192V46.0109ZM97.0914 6.93196L103.188 33.5526C104.139 37.8163 106.237 40.1925 109.76 41.0004L103.528 14.3798C102.509 10.0482 100.547 7.74667 97.0914 6.93196ZM117.948 1.98939V40.4573C120.725 39.2352 122.28 37.0694 122.28 34.2926V1.98939H117.948ZM90.18 5.77779C91.3341 5.50622 92.5494 5.30254 93.7036 5.37044C94.3146 5.37044 94.9257 5.37044 95.5978 5.43833L95.1225 3.47624C94.9189 2.66153 94.3757 1.24257 92.6173 1.24257C90.8589 1.24257 90.18 2.66153 90.18 4.08727V5.84568V5.77779Z" fill="black" fill-opacity="0.875"/>
<path id="Vector_4" d="M169.831 47.2335H162.784L159.328 33.4173H139.755L136.367 47.2335H129.32L138.397 13.7081C139.483 9.84507 141.853 7.27194 145.376 6.12456L145.987 3.48354C146.395 2.06459 147.142 0.0957031 149.511 0.0957031C151.948 0.0957031 152.695 1.9899 153.035 3.48354L153.646 6.12456C157.169 7.27873 159.539 9.91975 160.625 13.7081L169.77 47.2335H169.831ZM163.735 46.0114H168.27L159.532 13.9729C158.649 10.8567 156.755 8.623 154.046 7.46883L159.464 28.8685H139.687L145.037 7.46883C142.328 8.623 140.434 10.8567 139.551 13.9729L130.881 46.0114H135.417L138.804 32.1953H160.204L163.735 46.0114ZM141.181 27.6601H157.909L152.695 7.00037C150.597 6.45723 148.432 6.45723 146.327 7.00037L141.181 27.6601ZM146.666 5.64252V5.71041C148.561 5.30306 150.462 5.30306 152.356 5.71041V5.64252L151.881 3.68043C151.405 1.92201 150.726 1.24309 149.511 1.24309C148.221 1.24309 147.617 1.92201 147.142 3.68043L146.666 5.64252Z" fill="black" fill-opacity="0.875"/>
</g>
</g>
</g>
<defs>
<clipPath id="clip0_4878_12255">
<rect width="169.731" height="48" fill="white" transform="translate(0.134277)"/>
</clipPath>
</defs>
</svg>
