<svg width="234" height="96" viewBox="0 0 234 96" fill="none" xmlns="http://www.w3.org/2000/svg">
<g filter="url(#filter0_dddd_4878_12751)">
<path d="M7.5 33C7.5 18.0883 19.5883 6 34.5 6H199.5C214.412 6 226.5 18.0883 226.5 33V60C226.5 74.9117 214.412 87 199.5 87H34.5C19.5883 87 7.5 74.9117 7.5 60V33Z" fill="white" shape-rendering="crispEdges"/>
<path d="M34.5 7.875H199.5C205.917 7.875 210.541 7.87898 214.063 8.35254C217.532 8.81884 219.65 9.7093 221.22 11.2799C222.791 12.8505 223.681 14.9683 224.147 18.4367C224.621 21.9589 224.625 26.583 224.625 33V60C224.625 66.417 224.621 71.0411 224.147 74.5633C223.681 78.0317 222.791 80.1495 221.22 81.7201C219.65 83.2907 217.532 84.1812 214.063 84.6475C210.541 85.121 205.917 85.125 199.5 85.125H34.5C28.083 85.125 23.4589 85.121 19.9367 84.6475C16.4683 84.1812 14.3505 83.2907 12.7799 81.7201C11.2093 80.1495 10.3188 78.0317 9.85254 74.5633C9.37898 71.0411 9.375 66.417 9.375 60V33C9.375 26.583 9.37898 21.9589 9.85254 18.4367C10.3188 14.9683 11.2093 12.8505 12.7799 11.2799C14.3505 9.7093 16.4683 8.81884 19.9367 8.35254C23.4589 7.87898 28.083 7.875 34.5 7.875Z" fill="white"/>
<path d="M34.5 7.875H199.5C205.917 7.875 210.541 7.87898 214.063 8.35254C217.532 8.81884 219.65 9.7093 221.22 11.2799C222.791 12.8505 223.681 14.9683 224.147 18.4367C224.621 21.9589 224.625 26.583 224.625 33V60C224.625 66.417 224.621 71.0411 224.147 74.5633C223.681 78.0317 222.791 80.1495 221.22 81.7201C219.65 83.2907 217.532 84.1812 214.063 84.6475C210.541 85.121 205.917 85.125 199.5 85.125H34.5C28.083 85.125 23.4589 85.121 19.9367 84.6475C16.4683 84.1812 14.3505 83.2907 12.7799 81.7201C11.2093 80.1495 10.3188 78.0317 9.85254 74.5633C9.37898 71.0411 9.375 66.417 9.375 60V33C9.375 26.583 9.37898 21.9589 9.85254 18.4367C10.3188 14.9683 11.2093 12.8505 12.7799 11.2799C14.3505 9.7093 16.4683 8.81884 19.9367 8.35254C23.4589 7.87898 28.083 7.875 34.5 7.875Z" stroke="black" stroke-width="3.75"/>
<path d="M48.729 35.2375H65.4049V39.1862H59.3603V56.5H54.7129V39.1862H48.729V35.2375ZM70.2693 40.9176V44.3196C70.492 43.0641 71.0489 42.1326 71.9399 41.5251C72.8309 40.8974 73.7017 40.5835 74.5522 40.5835C74.8964 40.5835 75.2812 40.624 75.7064 40.705V45.1701C75.1192 45.0284 74.4813 44.9575 73.7928 44.9575C72.8613 44.9575 72.0614 45.2309 71.3932 45.7776C70.7249 46.3041 70.3908 47.0534 70.3908 48.0254V56.5H65.8649V40.9176H70.2693ZM85.1878 50.668L88.8936 40.9176H93.8751L83.7906 63.6078H79.2343L82.7882 55.1939L76.3791 40.9176H81.4821L85.1878 50.668ZM106.03 48.6632C106.03 49.9592 106.384 51.0325 107.093 51.883C107.822 52.7335 108.804 53.1587 110.039 53.1587C111.214 53.1587 112.186 52.7841 112.955 52.0349C113.725 51.2856 114.109 50.2427 114.109 48.9062C114.109 47.4685 113.725 46.3345 112.955 45.5042C112.186 44.674 111.173 44.2589 109.918 44.2589C108.723 44.2589 107.771 44.6841 107.062 45.5346C106.374 46.3649 106.03 47.4077 106.03 48.6632ZM113.988 34.5389H118.514V56.5H113.988V54.2219C112.773 55.9634 111.143 56.8341 109.097 56.8341C106.789 56.8341 104.946 56.0545 103.569 54.4953C102.192 52.936 101.504 50.9819 101.504 48.6329C101.504 46.3446 102.162 44.431 103.478 42.892C104.815 41.353 106.657 40.5835 109.006 40.5835C110.019 40.5835 110.96 40.8062 111.831 41.2517C112.722 41.6972 113.441 42.2946 113.988 43.0439V34.5389ZM129.933 44.2589C129.083 44.2589 128.273 44.4816 127.503 44.9271C126.754 45.3726 126.248 46.0712 125.985 47.023H133.791C133.649 46.1117 133.194 45.4232 132.424 44.9575C131.655 44.4917 130.824 44.2589 129.933 44.2589ZM134.976 51.2755L137.588 53.7662C135.745 55.8115 133.325 56.8341 130.328 56.8341C127.534 56.8341 125.347 56.0747 123.767 54.556C122.188 53.017 121.398 51.0932 121.398 48.7847C121.398 46.4762 122.208 44.5322 123.828 42.9527C125.448 41.3732 127.503 40.5835 129.994 40.5835C132.323 40.5835 134.307 41.3834 135.948 42.9831C137.608 44.5829 138.438 46.8407 138.438 49.7567H125.894C125.934 50.749 126.38 51.559 127.23 52.1867C128.081 52.8145 129.225 53.1284 130.662 53.1284C132.262 53.1284 133.7 52.5107 134.976 51.2755ZM157.817 44.3196C156.096 44.3196 155.235 45.5954 155.235 48.1469V56.5H150.74V48.1165C150.74 45.5852 149.869 44.3196 148.128 44.3196C146.406 44.3196 145.546 45.5954 145.546 48.1469V56.5H141.02V40.9176H145.546V43.0439C146.599 41.4036 147.986 40.5835 149.707 40.5835C151.975 40.5835 153.565 41.4542 154.476 43.1957C155.408 41.4542 157.048 40.5835 159.397 40.5835C163.103 40.5835 164.955 43.0641 164.955 48.0254V56.5H160.43V48.1165C160.43 45.5852 159.559 44.3196 157.817 44.3196ZM170.148 54.556C168.467 53.017 167.626 51.0629 167.626 48.6936C167.626 46.3244 168.467 44.3804 170.148 42.8616C171.849 41.3429 173.863 40.5835 176.192 40.5835C178.521 40.5835 180.526 41.353 182.206 42.892C183.907 44.4107 184.758 46.3446 184.758 48.6936C184.758 51.0629 183.907 53.017 182.206 54.556C180.526 56.0747 178.521 56.8341 176.192 56.8341C173.863 56.8341 171.849 56.0747 170.148 54.556ZM172.031 48.6936C172.031 49.9086 172.436 50.9211 173.246 51.7311C174.076 52.5411 175.058 52.9461 176.192 52.9461C177.346 52.9461 178.329 52.5411 179.139 51.7311C179.949 50.9009 180.354 49.8884 180.354 48.6936C180.354 47.4989 179.949 46.4965 179.139 45.6865C178.329 44.8765 177.346 44.4715 176.192 44.4715C175.058 44.4715 174.076 44.8765 173.246 45.6865C172.436 46.4965 172.031 47.4989 172.031 48.6936Z" fill="#1C2024"/>
</g>
<defs>
<filter id="filter0_dddd_4878_12751" x="0.75" y="0.9375" width="232.5" height="94.5" filterUnits="userSpaceOnUse" color-interpolation-filters="sRGB">
<feFlood flood-opacity="0" result="BackgroundImageFix"/>
<feColorMatrix in="SourceAlpha" type="matrix" values="0 0 0 0 0 0 0 0 0 0 0 0 0 0 0 0 0 0 127 0" result="hardAlpha"/>
<feMorphology radius="0.84375" operator="dilate" in="SourceAlpha" result="effect1_dropShadow_4878_12751"/>
<feOffset/>
<feComposite in2="hardAlpha" operator="out"/>
<feColorMatrix type="matrix" values="0 0 0 0 0 0 0 0 0 0 0 0 0 0 0 0 0 0 0.012 0"/>
<feBlend mode="normal" in2="BackgroundImageFix" result="effect1_dropShadow_4878_12751"/>
<feColorMatrix in="SourceAlpha" type="matrix" values="0 0 0 0 0 0 0 0 0 0 0 0 0 0 0 0 0 0 127 0" result="hardAlpha"/>
<feOffset dy="1.6875"/>
<feGaussianBlur stdDeviation="3.375"/>
<feComposite in2="hardAlpha" operator="out"/>
<feColorMatrix type="matrix" values="0 0 0 0 0.00720803 0 0 0 0 0.00720803 0 0 0 0 0.204792 0 0 0 0.079 0"/>
<feBlend mode="normal" in2="effect1_dropShadow_4878_12751" result="effect2_dropShadow_4878_12751"/>
<feColorMatrix in="SourceAlpha" type="matrix" values="0 0 0 0 0 0 0 0 0 0 0 0 0 0 0 0 0 0 127 0" result="hardAlpha"/>
<feMorphology radius="1.6875" operator="erode" in="SourceAlpha" result="effect3_dropShadow_4878_12751"/>
<feOffset dy="3.375"/>
<feGaussianBlur stdDeviation="0.84375"/>
<feComposite in2="hardAlpha" operator="out"/>
<feColorMatrix type="matrix" values="0 0 0 0 0 0 0 0 0 0 0 0 0 0 0 0 0 0 0.012 0"/>
<feBlend mode="normal" in2="effect2_dropShadow_4878_12751" result="effect3_dropShadow_4878_12751"/>
<feColorMatrix in="SourceAlpha" type="matrix" values="0 0 0 0 0 0 0 0 0 0 0 0 0 0 0 0 0 0 127 0" result="hardAlpha"/>
<feOffset dy="1.6875"/>
<feGaussianBlur stdDeviation="2.53125"/>
<feComposite in2="hardAlpha" operator="out"/>
<feColorMatrix type="matrix" values="0 0 0 0 0 0 0 0 0 0 0 0 0 0 0 0 0 0 0.012 0"/>
<feBlend mode="normal" in2="effect3_dropShadow_4878_12751" result="effect4_dropShadow_4878_12751"/>
<feBlend mode="normal" in="SourceGraphic" in2="effect4_dropShadow_4878_12751" result="shape"/>
</filter>
</defs>
</svg>
