<svg width="491" height="104" viewBox="0 0 491 104" fill="none" xmlns="http://www.w3.org/2000/svg">
<g filter="url(#filter0_ddii_4878_12742)">
<path d="M44.0722 77.8642C37.8642 77.8642 33.4162 77.4802 30.7282 76.7122C28.0402 75.9442 26.6962 74.6962 26.6962 72.9682C26.6962 71.7522 27.1762 70.6642 28.1362 69.7042C29.0962 68.6802 30.0882 67.5602 31.1122 66.3442C32.1362 65.0642 32.6802 63.5602 32.7442 61.8322C33.3842 47.3042 33.4162 34.1522 32.8402 22.3762C32.7762 19.6242 31.8482 18.2482 30.0562 18.2482H28.8082C27.0802 18.2482 25.6722 18.9842 24.5842 20.4562C23.5602 21.9282 22.1522 25.0322 20.3602 29.7682C19.1442 32.7762 17.9602 34.8242 16.8082 35.9122C15.7202 37.0002 14.2482 37.5442 12.3922 37.5442C10.5362 37.5442 9.2242 37.0002 8.4562 35.9122C7.6882 34.8242 7.3042 32.9042 7.3042 30.1522C7.3042 27.7842 7.46419 25.2882 7.78419 22.6642C8.16819 19.9762 8.7122 17.3202 9.4162 14.6962C10.1202 12.0722 11.1442 9.89617 12.4882 8.16817C13.8322 6.44017 15.3362 5.57617 17.0002 5.57617C17.9602 5.57617 21.1602 5.76816 26.6002 6.15216C32.0402 6.53616 37.8642 6.72816 44.0722 6.72816C50.2802 6.72816 56.1042 6.53616 61.5442 6.15216C66.9842 5.76816 70.1842 5.57617 71.1442 5.57617C73.3842 5.57617 75.2722 7.08017 76.8082 10.0882C78.4082 13.0962 79.4962 16.3602 80.0722 19.8802C80.6482 23.4002 80.9362 26.8242 80.9362 30.1522C80.9362 32.8402 80.5522 34.7602 79.7842 35.9122C79.0162 37.0002 77.7042 37.5442 75.8482 37.5442C73.8642 37.5442 72.2962 37.0002 71.1442 35.9122C70.0562 34.7602 68.9682 32.7122 67.8802 29.7682C66.1522 24.9682 64.7442 21.8642 63.6562 20.4562C62.6322 18.9842 61.2242 18.2482 59.4322 18.2482H58.2802C57.3202 18.2482 56.6162 18.5682 56.1682 19.2082C55.7842 19.7842 55.5282 20.8402 55.4002 22.3762C54.9522 33.8322 54.9522 46.9842 55.4002 61.8322C55.4642 63.4322 55.9762 64.8722 56.9362 66.1522C57.9602 67.4322 58.9522 68.6162 59.9122 69.7042C60.9362 70.7282 61.4482 71.8162 61.4482 72.9682C61.4482 74.6962 60.0722 75.9442 57.3202 76.7122C54.6322 77.4802 50.2162 77.8642 44.0722 77.8642ZM125.796 25.1602C129.188 25.1602 131.844 26.2802 133.764 28.5202C135.748 30.6962 136.74 33.7042 136.74 37.5442C136.74 41.0002 135.908 43.6882 134.244 45.6082C132.644 47.5282 130.404 48.4882 127.524 48.4882C125.924 48.4882 124.58 48.2002 123.492 47.6242C122.404 46.9842 121.604 46.2802 121.092 45.5122C120.644 44.7442 120.036 44.0722 119.268 43.4962C118.564 42.8562 117.764 42.5362 116.868 42.5362C115.204 42.5362 113.86 43.5602 112.836 45.6082C111.812 47.6562 111.3 50.3442 111.3 53.6722C111.3 56.6162 111.364 59.4002 111.492 62.0242C111.556 63.5602 111.94 64.8722 112.644 65.9602C113.348 67.0482 114.084 67.8482 114.852 68.3602C115.684 68.8722 116.42 69.5442 117.06 70.3762C117.764 71.1442 118.116 72.0402 118.116 73.0642C118.116 76.2642 112.868 77.8642 102.372 77.8642C92.0042 77.8642 86.8202 76.2322 86.8202 72.9682C86.8202 71.9442 87.4282 70.5682 88.6442 68.8402C89.8602 67.1122 90.5642 65.3522 90.7562 63.5602C91.2682 56.5842 91.3002 50.2482 90.8522 44.5522C90.6602 42.1842 89.9562 40.2002 88.7402 38.6002C87.5882 37.0002 87.0122 35.6882 87.0122 34.6642C87.0122 32.2962 89.1562 30.1202 93.4442 28.1362C97.7322 26.0882 101.764 25.0642 105.54 25.0642C108.356 25.0642 110.084 25.8322 110.724 27.3682C111.364 28.9042 111.428 32.1042 110.916 36.9682L111.588 37.0642C112.868 33.4162 114.724 30.5362 117.156 28.4242C119.652 26.2482 122.532 25.1602 125.796 25.1602ZM155.936 96.4882C151.584 96.4882 148.096 95.5602 145.472 93.7042C142.848 91.8482 141.536 89.3842 141.536 86.3122C141.536 84.2002 142.176 82.4722 143.456 81.1282C144.8 79.7842 146.496 79.1122 148.544 79.1122C150.272 79.1122 151.712 79.5602 152.864 80.4562C154.08 81.3522 155.136 82.2482 156.032 83.1442C156.928 84.0402 157.92 84.4882 159.008 84.4882C160.224 84.4882 161.152 84.0722 161.792 83.2402C162.496 82.4082 162.848 81.2562 162.848 79.7842C162.848 77.0962 161.76 73.4162 159.584 68.7442L147.392 41.0002C146.56 39.1442 145.472 37.6402 144.128 36.4882C142.848 35.2722 141.824 34.2802 141.056 33.5122C140.288 32.7442 139.904 31.7522 139.904 30.5362C139.904 28.6162 141.088 27.3042 143.456 26.6002C145.824 25.8962 149.952 25.5442 155.84 25.5442C162.048 25.5442 166.464 25.8962 169.088 26.6002C171.776 27.3042 173.12 28.5842 173.12 30.4402C173.12 31.5282 172.32 32.9042 170.72 34.5682C169.184 36.1682 168.8 37.9282 169.568 39.8482L175.616 56.3602C175.744 56.7442 175.936 56.9362 176.192 56.9362C176.512 56.9362 176.736 56.7442 176.864 56.3602L183.392 39.4642C184.224 37.4162 184.032 35.6562 182.816 34.1842C181.6 32.7122 180.992 31.4642 180.992 30.4402C180.992 27.1762 184.288 25.5442 190.88 25.5442C198.112 25.5442 201.728 27.2082 201.728 30.5362C201.728 31.7522 201.28 32.7442 200.384 33.5122C199.552 34.2162 198.464 35.1122 197.12 36.2002C195.776 37.2242 194.72 38.6322 193.952 40.4242L176.672 80.1682C174.048 86.0562 171.136 90.2482 167.936 92.7442C164.8 95.2402 160.8 96.4882 155.936 96.4882ZM291.782 63.1762C292.038 65.2882 292.902 67.1762 294.374 68.8402C295.846 70.5042 296.582 71.8802 296.582 72.9682C296.582 76.2322 291.974 77.8642 282.758 77.8642C273.222 77.8642 268.454 76.2322 268.454 72.9682C268.454 72.0082 268.902 70.7282 269.798 69.1282C270.758 67.4642 271.174 65.6082 271.046 63.5602C270.726 57.8002 270.214 52.1042 269.51 46.4722C269.254 43.7842 268.614 41.8322 267.59 40.6162C266.566 39.4002 265.094 38.7922 263.174 38.7922C261.062 38.7922 259.302 39.5922 257.894 41.1922C256.486 42.7282 255.718 44.8722 255.59 47.6242C255.27 54.2162 255.238 59.8802 255.494 64.6162C255.558 66.3442 256.07 67.9442 257.03 69.4162C257.99 70.8242 258.47 72.0082 258.47 72.9682C258.47 76.2322 253.894 77.8642 244.742 77.8642C235.398 77.8642 230.726 76.2322 230.726 72.9682C230.726 72.0082 231.334 70.6642 232.55 68.9362C233.83 67.1442 234.566 65.3522 234.758 63.5602C235.206 57.2242 235.238 50.8882 234.854 44.5522C234.662 42.1842 233.958 40.2002 232.742 38.6002C231.526 37.0002 230.918 35.6882 230.918 34.6642C230.918 32.2962 233.062 30.1202 237.35 28.1362C241.638 26.0882 245.702 25.0642 249.542 25.0642C252.166 25.0642 253.83 25.7682 254.534 27.1762C255.238 28.5842 255.398 31.1762 255.014 34.9522L255.686 35.0482C259.142 28.3922 264.71 25.0642 272.39 25.0642C282.374 25.0642 288.038 31.0162 289.382 42.9202C290.15 49.0642 290.95 55.8162 291.782 63.1762ZM327.767 78.7282C319.063 78.7282 312.023 76.3602 306.647 71.6242C301.271 66.8242 298.583 60.5522 298.583 52.8082C298.583 44.9362 301.463 38.3442 307.223 33.0322C312.983 27.7202 320.183 25.0642 328.823 25.0642C337.463 25.0642 344.439 27.4002 349.751 32.0722C355.127 36.6802 357.815 42.6962 357.815 50.1202C357.815 58.3122 354.967 65.1282 349.271 70.5682C343.575 76.0082 336.407 78.7282 327.767 78.7282ZM330.935 68.6482C332.983 68.6482 334.615 67.8482 335.831 66.2482C337.047 64.5842 337.655 62.3442 337.655 59.5282C337.655 54.0242 336.503 48.5522 334.199 43.1122C331.959 37.6082 329.111 34.8562 325.655 34.8562C323.543 34.8562 321.879 35.6882 320.663 37.3522C319.447 39.0162 318.839 41.2242 318.839 43.9762C318.839 47.3682 319.287 50.9202 320.183 54.6322C321.079 58.2802 322.487 61.5442 324.407 64.4242C326.327 67.2402 328.503 68.6482 330.935 68.6482ZM394.531 76.5202C393.123 77.4802 390.851 77.9602 387.715 77.9602C384.579 77.9602 382.275 77.4802 380.803 76.5202C379.331 75.4962 378.115 73.6082 377.155 70.8562L366.595 41.1922C365.891 39.2082 364.867 37.6402 363.523 36.4882C362.243 35.2722 361.155 34.3122 360.259 33.6082C359.427 32.9042 359.011 31.9442 359.011 30.7282C359.011 27.3362 364.323 25.6402 374.947 25.6402C386.211 25.6402 391.843 27.2722 391.843 30.5362C391.843 31.6242 391.363 32.5842 390.403 33.4162C389.443 34.2482 388.643 35.1762 388.003 36.2002C387.363 37.1602 387.299 38.4402 387.811 40.0402L392.611 55.4002C392.739 55.8482 392.963 56.0722 393.283 56.0722C393.603 56.0722 393.827 55.8482 393.955 55.4002L399.331 37.9282C400.227 35.1122 401.411 33.2242 402.883 32.2642C404.355 31.3042 406.787 30.8242 410.179 30.8242C413.379 30.8242 415.651 31.3042 416.995 32.2642C418.403 33.2242 419.523 35.1122 420.355 37.9282L425.347 55.3042C425.411 55.6242 425.507 55.8482 425.635 55.9762C425.827 56.0402 426.019 56.0402 426.211 55.9762C426.403 55.8482 426.531 55.6242 426.595 55.3042L431.395 39.6562C432.035 37.4802 431.779 35.6882 430.627 34.2802C429.475 32.8082 428.899 31.5602 428.899 30.5362C428.899 27.2722 432.291 25.6402 439.075 25.6402C445.987 25.6402 449.443 27.3362 449.443 30.7282C449.443 31.6882 449.123 32.5202 448.483 33.2242C447.907 33.8642 447.203 34.4082 446.371 34.8562C445.603 35.2402 444.739 35.9442 443.779 36.9682C442.819 37.9282 442.083 39.1442 441.571 40.6162L431.299 70.6642C430.275 73.5442 429.059 75.4962 427.651 76.5202C426.243 77.4802 423.939 77.9602 420.739 77.9602C417.411 77.9602 415.011 77.4482 413.539 76.4242C412.067 75.3362 410.883 73.2562 409.987 70.1842L405.091 54.4402C405.027 54.1842 404.899 53.9922 404.707 53.8642C404.579 53.7362 404.419 53.7362 404.227 53.8642C404.035 53.9922 403.907 54.1842 403.843 54.4402L398.275 70.6642C397.187 73.5442 395.939 75.4962 394.531 76.5202ZM475.065 45.2242C473.849 48.9362 471.929 50.7922 469.305 50.7922C466.681 50.7922 464.761 48.9362 463.545 45.2242L455.193 14.1202C454.489 11.8162 454.585 9.99216 455.481 8.64816C456.441 7.24016 458.137 6.53616 460.569 6.53616H477.945C480.377 6.53616 482.073 7.24016 483.033 8.64816C483.993 9.99216 484.121 11.8162 483.417 14.1202L475.065 45.2242ZM469.209 78.4402C465.945 78.4402 463.321 77.4802 461.337 75.5602C459.417 73.6402 458.457 71.1442 458.457 68.0722C458.457 65.0642 459.513 62.5682 461.625 60.5842C463.737 58.6002 466.393 57.6082 469.593 57.6082C472.793 57.6082 475.353 58.5362 477.273 60.3922C479.193 62.2482 480.153 64.7442 480.153 67.8802C480.153 70.8882 479.097 73.4162 476.985 75.4642C474.937 77.4482 472.345 78.4402 469.209 78.4402Z" fill="white"/>
<mask id="mask0_4878_12742" style="mask-type:luminance" maskUnits="userSpaceOnUse" x="4" y="2" width="483" height="98">
<path d="M487 2H4V100H487V2Z" fill="white"/>
<path d="M44.0722 77.8642C37.8642 77.8642 33.4162 77.4802 30.7282 76.7122C28.0402 75.9442 26.6962 74.6962 26.6962 72.9682C26.6962 71.7522 27.1762 70.6642 28.1362 69.7042C29.0962 68.6802 30.0882 67.5602 31.1122 66.3442C32.1362 65.0642 32.6802 63.5602 32.7442 61.8322C33.3842 47.3042 33.4162 34.1522 32.8402 22.3762C32.7762 19.6242 31.8482 18.2482 30.0562 18.2482H28.8082C27.0802 18.2482 25.6722 18.9842 24.5842 20.4562C23.5602 21.9282 22.1522 25.0322 20.3602 29.7682C19.1442 32.7762 17.9602 34.8242 16.8082 35.9122C15.7202 37.0002 14.2482 37.5442 12.3922 37.5442C10.5362 37.5442 9.2242 37.0002 8.4562 35.9122C7.6882 34.8242 7.3042 32.9042 7.3042 30.1522C7.3042 27.7842 7.46419 25.2882 7.78419 22.6642C8.16819 19.9762 8.7122 17.3202 9.4162 14.6962C10.1202 12.0722 11.1442 9.89617 12.4882 8.16817C13.8322 6.44017 15.3362 5.57617 17.0002 5.57617C17.9602 5.57617 21.1602 5.76816 26.6002 6.15216C32.0402 6.53616 37.8642 6.72816 44.0722 6.72816C50.2802 6.72816 56.1042 6.53616 61.5442 6.15216C66.9842 5.76816 70.1842 5.57617 71.1442 5.57617C73.3842 5.57617 75.2722 7.08017 76.8082 10.0882C78.4082 13.0962 79.4962 16.3602 80.0722 19.8802C80.6482 23.4002 80.9362 26.8242 80.9362 30.1522C80.9362 32.8402 80.5522 34.7602 79.7842 35.9122C79.0162 37.0002 77.7042 37.5442 75.8482 37.5442C73.8642 37.5442 72.2962 37.0002 71.1442 35.9122C70.0562 34.7602 68.9682 32.7122 67.8802 29.7682C66.1522 24.9682 64.7442 21.8642 63.6562 20.4562C62.6322 18.9842 61.2242 18.2482 59.4322 18.2482H58.2802C57.3202 18.2482 56.6162 18.5682 56.1682 19.2082C55.7842 19.7842 55.5282 20.8402 55.4002 22.3762C54.9522 33.8322 54.9522 46.9842 55.4002 61.8322C55.4642 63.4322 55.9762 64.8722 56.9362 66.1522C57.9602 67.4322 58.9522 68.6162 59.9122 69.7042C60.9362 70.7282 61.4482 71.8162 61.4482 72.9682C61.4482 74.6962 60.0722 75.9442 57.3202 76.7122C54.6322 77.4802 50.2162 77.8642 44.0722 77.8642ZM125.796 25.1602C129.188 25.1602 131.844 26.2802 133.764 28.5202C135.748 30.6962 136.74 33.7042 136.74 37.5442C136.74 41.0002 135.908 43.6882 134.244 45.6082C132.644 47.5282 130.404 48.4882 127.524 48.4882C125.924 48.4882 124.58 48.2002 123.492 47.6242C122.404 46.9842 121.604 46.2802 121.092 45.5122C120.644 44.7442 120.036 44.0722 119.268 43.4962C118.564 42.8562 117.764 42.5362 116.868 42.5362C115.204 42.5362 113.86 43.5602 112.836 45.6082C111.812 47.6562 111.3 50.3442 111.3 53.6722C111.3 56.6162 111.364 59.4002 111.492 62.0242C111.556 63.5602 111.94 64.8722 112.644 65.9602C113.348 67.0482 114.084 67.8482 114.852 68.3602C115.684 68.8722 116.42 69.5442 117.06 70.3762C117.764 71.1442 118.116 72.0402 118.116 73.0642C118.116 76.2642 112.868 77.8642 102.372 77.8642C92.0042 77.8642 86.8202 76.2322 86.8202 72.9682C86.8202 71.9442 87.4282 70.5682 88.6442 68.8402C89.8602 67.1122 90.5642 65.3522 90.7562 63.5602C91.2682 56.5842 91.3002 50.2482 90.8522 44.5522C90.6602 42.1842 89.9562 40.2002 88.7402 38.6002C87.5882 37.0002 87.0122 35.6882 87.0122 34.6642C87.0122 32.2962 89.1562 30.1202 93.4442 28.1362C97.7322 26.0882 101.764 25.0642 105.54 25.0642C108.356 25.0642 110.084 25.8322 110.724 27.3682C111.364 28.9042 111.428 32.1042 110.916 36.9682L111.588 37.0642C112.868 33.4162 114.724 30.5362 117.156 28.4242C119.652 26.2482 122.532 25.1602 125.796 25.1602ZM155.936 96.4882C151.584 96.4882 148.096 95.5602 145.472 93.7042C142.848 91.8482 141.536 89.3842 141.536 86.3122C141.536 84.2002 142.176 82.4722 143.456 81.1282C144.8 79.7842 146.496 79.1122 148.544 79.1122C150.272 79.1122 151.712 79.5602 152.864 80.4562C154.08 81.3522 155.136 82.2482 156.032 83.1442C156.928 84.0402 157.92 84.4882 159.008 84.4882C160.224 84.4882 161.152 84.0722 161.792 83.2402C162.496 82.4082 162.848 81.2562 162.848 79.7842C162.848 77.0962 161.76 73.4162 159.584 68.7442L147.392 41.0002C146.56 39.1442 145.472 37.6402 144.128 36.4882C142.848 35.2722 141.824 34.2802 141.056 33.5122C140.288 32.7442 139.904 31.7522 139.904 30.5362C139.904 28.6162 141.088 27.3042 143.456 26.6002C145.824 25.8962 149.952 25.5442 155.84 25.5442C162.048 25.5442 166.464 25.8962 169.088 26.6002C171.776 27.3042 173.12 28.5842 173.12 30.4402C173.12 31.5282 172.32 32.9042 170.72 34.5682C169.184 36.1682 168.8 37.9282 169.568 39.8482L175.616 56.3602C175.744 56.7442 175.936 56.9362 176.192 56.9362C176.512 56.9362 176.736 56.7442 176.864 56.3602L183.392 39.4642C184.224 37.4162 184.032 35.6562 182.816 34.1842C181.6 32.7122 180.992 31.4642 180.992 30.4402C180.992 27.1762 184.288 25.5442 190.88 25.5442C198.112 25.5442 201.728 27.2082 201.728 30.5362C201.728 31.7522 201.28 32.7442 200.384 33.5122C199.552 34.2162 198.464 35.1122 197.12 36.2002C195.776 37.2242 194.72 38.6322 193.952 40.4242L176.672 80.1682C174.048 86.0562 171.136 90.2482 167.936 92.7442C164.8 95.2402 160.8 96.4882 155.936 96.4882ZM291.782 63.1762C292.038 65.2882 292.902 67.1762 294.374 68.8402C295.846 70.5042 296.582 71.8802 296.582 72.9682C296.582 76.2322 291.974 77.8642 282.758 77.8642C273.222 77.8642 268.454 76.2322 268.454 72.9682C268.454 72.0082 268.902 70.7282 269.798 69.1282C270.758 67.4642 271.174 65.6082 271.046 63.5602C270.726 57.8002 270.214 52.1042 269.51 46.4722C269.254 43.7842 268.614 41.8322 267.59 40.6162C266.566 39.4002 265.094 38.7922 263.174 38.7922C261.062 38.7922 259.302 39.5922 257.894 41.1922C256.486 42.7282 255.718 44.8722 255.59 47.6242C255.27 54.2162 255.238 59.8802 255.494 64.6162C255.558 66.3442 256.07 67.9442 257.03 69.4162C257.99 70.8242 258.47 72.0082 258.47 72.9682C258.47 76.2322 253.894 77.8642 244.742 77.8642C235.398 77.8642 230.726 76.2322 230.726 72.9682C230.726 72.0082 231.334 70.6642 232.55 68.9362C233.83 67.1442 234.566 65.3522 234.758 63.5602C235.206 57.2242 235.238 50.8882 234.854 44.5522C234.662 42.1842 233.958 40.2002 232.742 38.6002C231.526 37.0002 230.918 35.6882 230.918 34.6642C230.918 32.2962 233.062 30.1202 237.35 28.1362C241.638 26.0882 245.702 25.0642 249.542 25.0642C252.166 25.0642 253.83 25.7682 254.534 27.1762C255.238 28.5842 255.398 31.1762 255.014 34.9522L255.686 35.0482C259.142 28.3922 264.71 25.0642 272.39 25.0642C282.374 25.0642 288.038 31.0162 289.382 42.9202C290.15 49.0642 290.95 55.8162 291.782 63.1762ZM327.767 78.7282C319.063 78.7282 312.023 76.3602 306.647 71.6242C301.271 66.8242 298.583 60.5522 298.583 52.8082C298.583 44.9362 301.463 38.3442 307.223 33.0322C312.983 27.7202 320.183 25.0642 328.823 25.0642C337.463 25.0642 344.439 27.4002 349.751 32.0722C355.127 36.6802 357.815 42.6962 357.815 50.1202C357.815 58.3122 354.967 65.1282 349.271 70.5682C343.575 76.0082 336.407 78.7282 327.767 78.7282ZM330.935 68.6482C332.983 68.6482 334.615 67.8482 335.831 66.2482C337.047 64.5842 337.655 62.3442 337.655 59.5282C337.655 54.0242 336.503 48.5522 334.199 43.1122C331.959 37.6082 329.111 34.8562 325.655 34.8562C323.543 34.8562 321.879 35.6882 320.663 37.3522C319.447 39.0162 318.839 41.2242 318.839 43.9762C318.839 47.3682 319.287 50.9202 320.183 54.6322C321.079 58.2802 322.487 61.5442 324.407 64.4242C326.327 67.2402 328.503 68.6482 330.935 68.6482ZM394.531 76.5202C393.123 77.4802 390.851 77.9602 387.715 77.9602C384.579 77.9602 382.275 77.4802 380.803 76.5202C379.331 75.4962 378.115 73.6082 377.155 70.8562L366.595 41.1922C365.891 39.2082 364.867 37.6402 363.523 36.4882C362.243 35.2722 361.155 34.3122 360.259 33.6082C359.427 32.9042 359.011 31.9442 359.011 30.7282C359.011 27.3362 364.323 25.6402 374.947 25.6402C386.211 25.6402 391.843 27.2722 391.843 30.5362C391.843 31.6242 391.363 32.5842 390.403 33.4162C389.443 34.2482 388.643 35.1762 388.003 36.2002C387.363 37.1602 387.299 38.4402 387.811 40.0402L392.611 55.4002C392.739 55.8482 392.963 56.0722 393.283 56.0722C393.603 56.0722 393.827 55.8482 393.955 55.4002L399.331 37.9282C400.227 35.1122 401.411 33.2242 402.883 32.2642C404.355 31.3042 406.787 30.8242 410.179 30.8242C413.379 30.8242 415.651 31.3042 416.995 32.2642C418.403 33.2242 419.523 35.1122 420.355 37.9282L425.347 55.3042C425.411 55.6242 425.507 55.8482 425.635 55.9762C425.827 56.0402 426.019 56.0402 426.211 55.9762C426.403 55.8482 426.531 55.6242 426.595 55.3042L431.395 39.6562C432.035 37.4802 431.779 35.6882 430.627 34.2802C429.475 32.8082 428.899 31.5602 428.899 30.5362C428.899 27.2722 432.291 25.6402 439.075 25.6402C445.987 25.6402 449.443 27.3362 449.443 30.7282C449.443 31.6882 449.123 32.5202 448.483 33.2242C447.907 33.8642 447.203 34.4082 446.371 34.8562C445.603 35.2402 444.739 35.9442 443.779 36.9682C442.819 37.9282 442.083 39.1442 441.571 40.6162L431.299 70.6642C430.275 73.5442 429.059 75.4962 427.651 76.5202C426.243 77.4802 423.939 77.9602 420.739 77.9602C417.411 77.9602 415.011 77.4482 413.539 76.4242C412.067 75.3362 410.883 73.2562 409.987 70.1842L405.091 54.4402C405.027 54.1842 404.899 53.9922 404.707 53.8642C404.579 53.7362 404.419 53.7362 404.227 53.8642C404.035 53.9922 403.907 54.1842 403.843 54.4402L398.275 70.6642C397.187 73.5442 395.939 75.4962 394.531 76.5202ZM475.065 45.2242C473.849 48.9362 471.929 50.7922 469.305 50.7922C466.681 50.7922 464.761 48.9362 463.545 45.2242L455.193 14.1202C454.489 11.8162 454.585 9.99216 455.481 8.64816C456.441 7.24016 458.137 6.53616 460.569 6.53616H477.945C480.377 6.53616 482.073 7.24016 483.033 8.64816C483.993 9.99216 484.121 11.8162 483.417 14.1202L475.065 45.2242ZM469.209 78.4402C465.945 78.4402 463.321 77.4802 461.337 75.5602C459.417 73.6402 458.457 71.1442 458.457 68.0722C458.457 65.0642 459.513 62.5682 461.625 60.5842C463.737 58.6002 466.393 57.6082 469.593 57.6082C472.793 57.6082 475.353 58.5362 477.273 60.3922C479.193 62.2482 480.153 64.7442 480.153 67.8802C480.153 70.8882 479.097 73.4162 476.985 75.4642C474.937 77.4482 472.345 78.4402 469.209 78.4402Z" fill="black"/>
</mask>
<g mask="url(#mask0_4878_12742)">
<path d="M28.1362 69.7042L30.2572 71.8252L30.2922 71.7912L30.3252 71.7562L28.1362 69.7042ZM31.1122 66.3442L33.4072 68.2762L33.4312 68.2482L33.4552 68.2182L31.1122 66.3442ZM32.7442 61.8322L29.7472 61.7002L29.7462 61.7102V61.7212L32.7442 61.8322ZM32.8402 22.3762L29.8412 22.4462L29.8422 22.4842L29.8442 22.5232L32.8402 22.3762ZM24.5842 20.4562L22.1712 18.6732L22.1462 18.7072L22.1212 18.7432L24.5842 20.4562ZM20.3602 29.7682L23.1412 30.8922L23.1542 30.8612L23.1662 30.8302L20.3602 29.7682ZM16.8082 35.9122L14.7482 33.7312L14.7172 33.7602L14.6872 33.7912L16.8082 35.9122ZM7.78419 22.6642L4.8142 22.2402L4.8102 22.2702L4.8062 22.3012L7.78419 22.6642ZM76.8082 10.0882L74.1362 11.4522L74.1482 11.4752L74.1592 11.4972L76.8082 10.0882ZM79.7842 35.9122L82.2352 37.6422L82.2582 37.6092L82.2802 37.5762L79.7842 35.9122ZM71.1442 35.9122L68.9632 37.9722L69.0222 38.0342L69.0842 38.0932L71.1442 35.9122ZM67.8802 29.7682L65.0572 30.7842L65.0622 30.7962L65.0662 30.8082L67.8802 29.7682ZM63.6562 20.4562L61.1932 22.1692L61.2362 22.2312L61.2822 22.2902L63.6562 20.4562ZM56.1682 19.2082L53.7102 17.4882L53.6912 17.5162L53.6722 17.5442L56.1682 19.2082ZM55.4002 22.3762L52.4102 22.1272L52.4052 22.1932L52.4022 22.2592L55.4002 22.3762ZM55.4002 61.8322L52.4012 61.9222L52.4022 61.9372V61.9522L55.4002 61.8322ZM56.9362 66.1522L54.5362 67.9522L54.5642 67.9892L54.5932 68.0262L56.9362 66.1522ZM59.9122 69.7042L57.6622 71.6892L57.7242 71.7592L57.7912 71.8252L59.9122 69.7042ZM57.3202 76.7122L56.5142 73.8222L56.5052 73.8252L56.4962 73.8272L57.3202 76.7122ZM44.0722 74.8642C37.8882 74.8642 33.8052 74.4712 31.5522 73.8272L29.9042 79.5972C33.0272 80.4892 37.8402 80.8642 44.0722 80.8642V74.8642ZM31.5522 73.8272C30.4452 73.5112 29.9372 73.1802 29.7452 73.0022C29.6662 72.9282 29.6672 72.9052 29.6822 72.9392C29.7002 72.9782 29.6962 73.0002 29.6962 72.9682H23.6962C23.6962 74.7222 24.4212 76.2462 25.6632 77.3982C26.8152 78.4682 28.3232 79.1452 29.9042 79.5972L31.5522 73.8272ZM29.6962 72.9682C29.6962 72.6442 29.7882 72.2942 30.2572 71.8252L26.0152 67.5832C24.5642 69.0342 23.6962 70.8602 23.6962 72.9682H29.6962ZM30.3252 71.7562C31.3252 70.6882 32.3532 69.5282 33.4072 68.2762L28.8172 64.4122C27.8232 65.5922 26.8672 66.6722 25.9472 67.6522L30.3252 71.7562ZM33.4552 68.2182C34.9032 66.4072 35.6562 64.2762 35.7422 61.9432L29.7462 61.7212C29.7042 62.8442 29.3692 63.7212 28.7692 64.4702L33.4552 68.2182ZM35.7412 61.9642C36.3842 47.3642 36.4182 34.1172 35.8362 22.2292L29.8442 22.5232C30.4142 34.1872 30.3842 47.2442 29.7472 61.7002L35.7412 61.9642ZM35.8392 22.3062C35.8022 20.6952 35.5162 18.9862 34.5832 17.6032C33.5112 16.0132 31.8552 15.2482 30.0562 15.2482V21.2482C30.1162 21.2482 30.0312 21.2582 29.8842 21.1832C29.7272 21.1042 29.6372 20.9992 29.6092 20.9572C29.5932 20.9342 29.6512 21.0112 29.7132 21.2712C29.7752 21.5302 29.8282 21.9112 29.8412 22.4462L35.8392 22.3062ZM30.0562 15.2482H28.8082V21.2482H30.0562V15.2482ZM28.8082 15.2482C26.0642 15.2482 23.7862 16.4892 22.1712 18.6732L26.9972 22.2392C27.5582 21.4792 28.0962 21.2482 28.8082 21.2482V15.2482ZM22.1212 18.7432C20.8532 20.5652 19.3292 24.0152 17.5542 28.7062L23.1662 30.8302C24.9752 26.0492 26.2672 23.2912 27.0472 22.1692L22.1212 18.7432ZM17.5792 28.6442C16.3902 31.5842 15.4022 33.1132 14.7482 33.7312L18.8682 38.0932C20.5182 36.5352 21.8982 33.9682 23.1412 30.8922L17.5792 28.6442ZM14.6872 33.7912C14.2742 34.2032 13.6282 34.5442 12.3922 34.5442V40.5442C14.8682 40.5442 17.1662 39.7972 18.9292 38.0332L14.6872 33.7912ZM12.3922 34.5442C11.0972 34.5442 10.9102 34.1872 10.9072 34.1822L6.0052 37.6422C7.5382 39.8132 9.9752 40.5442 12.3922 40.5442V34.5442ZM10.9072 34.1822C10.7162 33.9112 10.3042 32.8252 10.3042 30.1522H4.3042C4.3042 32.9832 4.6602 35.7372 6.0052 37.6422L10.9072 34.1822ZM10.3042 30.1522C10.3042 27.9182 10.4552 25.5442 10.7622 23.0272L4.8062 22.3012C4.4732 25.0322 4.3042 27.6502 4.3042 30.1522H10.3042ZM10.7542 23.0882C11.1212 20.5192 11.6412 17.9812 12.3142 15.4732L6.5182 13.9192C5.7832 16.6592 5.2152 19.4332 4.8142 22.2402L10.7542 23.0882ZM12.3142 15.4732C12.9382 13.1462 13.8092 11.3562 14.8562 10.0102L10.1202 6.32617C8.4792 8.43617 7.3022 10.9982 6.5182 13.9192L12.3142 15.4732ZM14.8562 10.0102C15.8262 8.76316 16.5382 8.57617 17.0002 8.57617V2.57617C14.1342 2.57617 11.8382 4.11717 10.1202 6.32617L14.8562 10.0102ZM17.0002 8.57617C17.8252 8.57617 20.8862 8.75617 26.3892 9.14517L26.8112 3.15916C21.4342 2.78016 18.0952 2.57617 17.0002 2.57617V8.57617ZM26.3892 9.14517C31.9082 9.53417 37.8032 9.72816 44.0722 9.72816V3.72816C37.9252 3.72816 32.1722 3.53816 26.8112 3.15916L26.3892 9.14517ZM44.0722 9.72816C50.3412 9.72816 56.2362 9.53417 61.7552 9.14517L61.3332 3.15916C55.9722 3.53816 50.2192 3.72816 44.0722 3.72816V9.72816ZM61.7552 9.14517C67.2582 8.75617 70.3192 8.57617 71.1442 8.57617V2.57617C70.0492 2.57617 66.7102 2.78016 61.3332 3.15916L61.7552 9.14517ZM71.1442 8.57617C71.7382 8.57617 72.8242 8.88316 74.1362 11.4522L79.4802 8.72417C77.7202 5.27717 75.0302 2.57617 71.1442 2.57617V8.57617ZM74.1592 11.4972C75.5992 14.2022 76.5862 17.1522 77.1112 20.3642L83.0332 19.3962C82.4062 15.5682 81.2172 11.9902 79.4572 8.67917L74.1592 11.4972ZM77.1112 20.3642C77.6632 23.7362 77.9362 26.9972 77.9362 30.1522H83.9362C83.9362 26.6512 83.6332 23.0642 83.0332 19.3962L77.1112 20.3642ZM77.9362 30.1522C77.9362 32.7152 77.5392 33.8712 77.2882 34.2482L82.2802 37.5762C83.5652 35.6492 83.9362 32.9652 83.9362 30.1522H77.9362ZM77.3332 34.1822C77.3302 34.1872 77.1432 34.5442 75.8482 34.5442V40.5442C78.2652 40.5442 80.7022 39.8132 82.2352 37.6422L77.3332 34.1822ZM75.8482 34.5442C74.4282 34.5442 73.6682 34.1692 73.2042 33.7312L69.0842 38.0932C70.9242 39.8312 73.3002 40.5442 75.8482 40.5442V34.5442ZM73.3252 33.8522C72.6722 33.1602 71.7522 31.5922 70.6942 28.7282L65.0662 30.8082C66.1842 33.8322 67.4402 36.3602 68.9632 37.9722L73.3252 33.8522ZM70.7032 28.7522C68.9982 24.0162 67.4522 20.4622 66.0302 18.6222L61.2822 22.2902C62.0362 23.2662 63.3062 25.9202 65.0572 30.7842L70.7032 28.7522ZM66.1192 18.7432C64.5342 16.4652 62.2072 15.2482 59.4322 15.2482V21.2482C60.2412 21.2482 60.7302 21.5032 61.1932 22.1692L66.1192 18.7432ZM59.4322 15.2482H58.2802V21.2482H59.4322V15.2482ZM58.2802 15.2482C56.5942 15.2482 54.8512 15.8592 53.7102 17.4882L58.6262 20.9282C58.5922 20.9772 58.5412 21.0362 58.4732 21.0932C58.4042 21.1502 58.3342 21.1912 58.2732 21.2192C58.1532 21.2742 58.1282 21.2482 58.2802 21.2482V15.2482ZM53.6722 17.5442C52.8252 18.8142 52.5412 20.5632 52.4102 22.1272L58.3902 22.6252C58.4462 21.9532 58.5242 21.4692 58.6042 21.1392C58.6902 20.7802 58.7452 20.7502 58.6642 20.8722L53.6722 17.5442ZM52.4022 22.2592C51.9512 33.8012 51.9522 47.0242 52.4012 61.9222L58.3992 61.7422C57.9522 46.9442 57.9532 33.8632 58.3982 22.4932L52.4022 22.2592ZM52.4022 61.9522C52.4912 64.1592 53.2112 66.1852 54.5362 67.9522L59.3362 64.3522C58.7412 63.5592 58.4372 62.7052 58.3982 61.7122L52.4022 61.9522ZM54.5932 68.0262C55.6442 69.3392 56.6672 70.5602 57.6622 71.6892L62.1622 67.7192C61.2372 66.6722 60.2762 65.5252 59.2792 64.2782L54.5932 68.0262ZM57.7912 71.8252C58.4052 72.4392 58.4482 72.8042 58.4482 72.9682H64.4482C64.4482 70.8282 63.4672 69.0172 62.0332 67.5832L57.7912 71.8252ZM58.4482 72.9682C58.4482 72.9892 58.4472 72.9592 58.4672 72.9152C58.4852 72.8762 58.4862 72.9002 58.4012 72.9782C58.1952 73.1652 57.6592 73.5032 56.5142 73.8222L58.1262 79.6022C59.7332 79.1532 61.2622 78.4832 62.4312 77.4222C63.6942 76.2772 64.4482 74.7472 64.4482 72.9682H58.4482ZM56.4962 73.8272C54.2412 74.4722 50.1882 74.8642 44.0722 74.8642V80.8642C50.2442 80.8642 55.0232 80.4882 58.1442 79.5972L56.4962 73.8272ZM133.764 28.5202L131.486 30.4722L131.516 30.5072L131.547 30.5412L133.764 28.5202ZM134.244 45.6082L131.977 43.6432L131.958 43.6652L131.939 43.6872L134.244 45.6082ZM123.492 47.6242L121.971 50.2102L122.029 50.2442L122.088 50.2752L123.492 47.6242ZM121.092 45.5122L118.5 47.0242L118.546 47.1012L118.596 47.1762L121.092 45.5122ZM119.268 43.4962L117.25 45.7162L117.354 45.8112L117.468 45.8962L119.268 43.4962ZM111.492 62.0242L114.489 61.8992V61.8882L114.488 61.8782L111.492 62.0242ZM114.852 68.3602L113.188 70.8562L113.233 70.8862L113.279 70.9152L114.852 68.3602ZM117.06 70.3762L114.682 72.2052L114.761 72.3082L114.848 72.4032L117.06 70.3762ZM90.7562 63.5602L93.7392 63.8802L93.7442 63.8302L93.7482 63.7802L90.7562 63.5602ZM90.8522 44.5522L93.8432 44.3172L93.8422 44.3102L90.8522 44.5522ZM88.7402 38.6002L86.3052 40.3532L86.3282 40.3842L86.3512 40.4152L88.7402 38.6002ZM93.4442 28.1362L94.7042 30.8592L94.7202 30.8512L94.7372 30.8432L93.4442 28.1362ZM110.916 36.9682L107.932 36.6542L107.63 39.5292L110.491 39.9382L110.916 36.9682ZM111.588 37.0642L111.163 40.0342L113.603 40.3822L114.419 38.0572L111.588 37.0642ZM117.156 28.4242L119.123 30.6892L119.127 30.6852L117.156 28.4242ZM125.796 28.1602C128.458 28.1602 130.224 29.0012 131.486 30.4722L136.042 26.5682C133.463 23.5592 129.918 22.1602 125.796 22.1602V28.1602ZM131.547 30.5412C132.889 32.0132 133.74 34.2182 133.74 37.5442H139.74C139.74 33.1902 138.606 29.3792 135.981 26.4992L131.547 30.5412ZM133.74 37.5442C133.74 40.5392 133.021 42.4382 131.977 43.6432L136.511 47.5732C138.794 44.9382 139.74 41.4612 139.74 37.5442H133.74ZM131.939 43.6872C130.999 44.8152 129.665 45.4882 127.524 45.4882V51.4882C131.143 51.4882 134.288 50.2412 136.548 47.5292L131.939 43.6872ZM127.524 45.4882C126.271 45.4882 125.441 45.2612 124.895 44.9732L122.088 50.2752C123.719 51.1392 125.576 51.4882 127.524 51.4882V45.4882ZM125.013 45.0382C124.18 44.5482 123.774 44.1272 123.588 43.8482L118.596 47.1762C119.434 48.4332 120.628 49.4202 121.971 50.2102L125.013 45.0382ZM123.683 44.0002C123.018 42.8602 122.13 41.8932 121.068 41.0962L117.468 45.8962C117.941 46.2512 118.27 46.6282 118.5 47.0242L123.683 44.0002ZM121.286 41.2762C120.067 40.1682 118.559 39.5362 116.868 39.5362V45.5362C116.968 45.5362 117.061 45.5442 117.25 45.7162L121.286 41.2762ZM116.868 39.5362C113.646 39.5362 111.464 41.6442 110.152 44.2662L115.519 46.9502C115.895 46.1972 116.228 45.8442 116.43 45.6902C116.588 45.5702 116.703 45.5362 116.868 45.5362V39.5362ZM110.152 44.2662C108.847 46.8762 108.3 50.0742 108.3 53.6722H114.3C114.3 50.6142 114.776 48.4362 115.519 46.9502L110.152 44.2662ZM108.3 53.6722C108.3 56.6592 108.365 59.4922 108.495 62.1702L114.488 61.8782C114.363 59.3082 114.3 56.5732 114.3 53.6722H108.3ZM108.494 62.1492C108.576 64.1202 109.08 65.9742 110.125 67.5902L115.162 64.3302C114.8 63.7702 114.535 63.0002 114.489 61.8992L108.494 62.1492ZM110.125 67.5902C110.968 68.8932 111.97 70.0452 113.188 70.8562L116.516 65.8642C116.197 65.6512 115.727 65.2032 115.162 64.3302L110.125 67.5902ZM113.279 70.9152C113.779 71.2222 114.247 71.6402 114.682 72.2052L119.438 68.5472C118.592 67.4482 117.589 66.5222 116.424 65.8052L113.279 70.9152ZM114.848 72.4032C115.055 72.6292 115.116 72.8052 115.116 73.0642H121.116C121.116 71.2752 120.473 69.6592 119.271 68.3492L114.848 72.4032ZM115.116 73.0642C115.116 72.5162 115.696 73.0652 113.305 73.7942C111.117 74.4622 107.542 74.8642 102.372 74.8642V80.8642C107.698 80.8642 111.995 80.4662 115.055 79.5342C117.911 78.6632 121.116 76.8122 121.116 73.0642H115.116ZM102.372 74.8642C97.2692 74.8642 93.7532 74.4542 91.6092 73.7782C90.5392 73.4422 90.0422 73.1092 89.8522 72.9292C89.7722 72.8542 89.7752 72.8332 89.7952 72.8762C89.8032 72.8952 89.8112 72.9172 89.8152 72.9392C89.8202 72.9612 89.8202 72.9722 89.8202 72.9682H83.8202C83.8202 76.6932 86.9232 78.5942 89.8072 79.5022C92.8472 80.4582 97.1062 80.8642 102.372 80.8642V74.8642ZM89.8202 72.9682C89.8202 73.0222 89.8122 72.8512 90.0202 72.3802C90.2192 71.9292 90.5612 71.3282 91.0972 70.5662L86.1902 67.1142C84.9282 68.9072 83.8202 70.9472 83.8202 72.9682H89.8202ZM91.0972 70.5662C92.5552 68.4942 93.4842 66.2592 93.7392 63.8802L87.7732 63.2402C87.6442 64.4452 87.1642 65.7302 86.1902 67.1142L91.0972 70.5662ZM93.7482 63.7802C94.2682 56.6842 94.3052 50.1932 93.8432 44.3172L87.8612 44.7872C88.2952 50.3032 88.2672 56.4842 87.7642 63.3402L93.7482 63.7802ZM93.8422 44.3102C93.6122 41.4762 92.7502 38.9182 91.1282 36.7852L86.3512 40.4152C87.1622 41.4822 87.7072 42.8922 87.8622 44.7942L93.8422 44.3102ZM91.1742 36.8472C90.6792 36.1592 90.3692 35.6172 90.1912 35.2102C90.0072 34.7932 90.0122 34.6302 90.0122 34.6642H84.0122C84.0122 36.6762 85.0742 38.6432 86.3052 40.3532L91.1742 36.8472ZM90.0122 34.6642C90.0122 34.4782 90.0712 34.0582 90.7572 33.3622C91.4762 32.6312 92.7272 31.7732 94.7042 30.8592L92.1842 25.4132C89.8722 26.4832 87.9072 27.7052 86.4832 29.1502C85.0252 30.6302 84.0122 32.4822 84.0122 34.6642H90.0122ZM94.7372 30.8432C98.7222 28.9392 102.311 28.0642 105.54 28.0642V22.0642C101.216 22.0642 96.7412 23.2372 92.1512 25.4292L94.7372 30.8432ZM105.54 28.0642C106.715 28.0642 107.389 28.2302 107.729 28.3812C107.884 28.4502 107.94 28.5022 107.948 28.5102C107.951 28.5132 107.949 28.5102 107.955 28.5222L113.493 26.2142C112.115 22.9062 108.651 22.0642 105.54 22.0642V28.0642ZM107.955 28.5222C108.051 28.7542 108.222 29.4742 108.252 30.9802C108.281 32.4082 108.181 34.2892 107.932 36.6542L113.899 37.2822C114.162 34.7832 114.287 32.6322 114.251 30.8602C114.217 29.1662 114.036 27.5182 113.493 26.2142L107.955 28.5222ZM110.491 39.9382L111.163 40.0342L112.012 34.0942L111.34 33.9982L110.491 39.9382ZM114.419 38.0572C115.561 34.8032 117.156 32.3972 119.123 30.6892L115.189 26.1592C112.291 28.6752 110.175 32.0292 108.757 36.0712L114.419 38.0572ZM119.127 30.6852C121.086 28.9782 123.268 28.1602 125.796 28.1602V22.1602C121.795 22.1602 118.218 23.5182 115.184 26.1632L119.127 30.6852ZM143.456 81.1282L141.335 79.0072L141.309 79.0332L141.284 79.0592L143.456 81.1282ZM152.864 80.4562L151.022 82.8242L151.053 82.8482L151.084 82.8712L152.864 80.4562ZM161.792 83.2402L159.502 81.3022L159.457 81.3552L159.414 81.4112L161.792 83.2402ZM159.584 68.7442L156.837 69.9512L156.851 69.9812L156.865 70.0112L159.584 68.7442ZM147.392 41.0002L150.139 39.7932L150.134 39.7832L150.13 39.7732L147.392 41.0002ZM144.128 36.4882L142.062 38.6632L142.117 38.7162L142.176 38.7662L144.128 36.4882ZM169.088 26.6002L168.311 29.4982L168.319 29.5002L168.328 29.5022L169.088 26.6002ZM170.72 34.5682L168.558 32.4892L168.556 32.4902L170.72 34.5682ZM169.568 39.8482L172.385 38.8162L172.37 38.7752L172.353 38.7342L169.568 39.8482ZM175.616 56.3602L178.462 55.4112L178.448 55.3702L178.433 55.3282L175.616 56.3602ZM176.864 56.3602L174.066 55.2792L174.04 55.3452L174.018 55.4112L176.864 56.3602ZM183.392 39.4642L180.613 38.3352L180.603 38.3592L180.594 38.3832L183.392 39.4642ZM200.384 33.5122L202.322 35.8022L202.329 35.7962L202.336 35.7902L200.384 33.5122ZM197.12 36.2002L198.938 38.5862L198.973 38.5602L199.008 38.5322L197.12 36.2002ZM193.952 40.4242L196.703 41.6202L196.706 41.6132L196.709 41.6062L193.952 40.4242ZM176.672 80.1682L179.412 81.3892L179.418 81.3772L179.423 81.3642L176.672 80.1682ZM167.936 92.7442L166.091 90.3782L166.079 90.3882L166.068 90.3972L167.936 92.7442ZM155.936 93.4882C151.989 93.4882 149.17 92.6452 147.204 91.2552L143.74 96.1532C147.022 98.4752 151.179 99.4882 155.936 99.4882V93.4882ZM147.204 91.2552C145.332 89.9302 144.536 88.3582 144.536 86.3122H138.536C138.536 90.4102 140.364 93.7662 143.74 96.1532L147.204 91.2552ZM144.536 86.3122C144.536 84.8562 144.954 83.9052 145.628 83.1972L141.284 79.0592C139.398 81.0392 138.536 83.5442 138.536 86.3122H144.536ZM145.577 83.2492C146.312 82.5142 147.224 82.1122 148.544 82.1122V76.1122C145.768 76.1122 143.288 77.0542 141.335 79.0072L145.577 83.2492ZM148.544 82.1122C149.732 82.1122 150.489 82.4102 151.022 82.8242L154.706 78.0882C152.935 76.7102 150.812 76.1122 148.544 76.1122V82.1122ZM151.084 82.8712C152.202 83.6942 153.139 84.4942 153.911 85.2652L158.153 81.0232C157.133 80.0022 155.958 79.0102 154.644 78.0412L151.084 82.8712ZM153.911 85.2652C155.269 86.6242 156.993 87.4882 159.008 87.4882V81.4882C158.847 81.4882 158.587 81.4562 158.153 81.0232L153.911 85.2652ZM159.008 87.4882C160.988 87.4882 162.867 86.7622 164.17 85.0692L159.414 81.4112C159.395 81.4352 159.387 81.4412 159.39 81.4392C159.393 81.4362 159.395 81.4362 159.389 81.4382C159.379 81.4432 159.274 81.4882 159.008 81.4882V87.4882ZM164.082 85.1782C165.383 83.6402 165.848 81.7162 165.848 79.7842H159.848C159.848 80.7962 159.609 81.1762 159.502 81.3022L164.082 85.1782ZM165.848 79.7842C165.848 76.4182 164.525 72.2482 162.304 67.4772L156.865 70.0112C158.995 74.5842 159.848 77.7742 159.848 79.7842H165.848ZM162.331 67.5372L150.139 39.7932L144.645 42.2072L156.837 69.9512L162.331 67.5372ZM150.13 39.7732C149.143 37.5732 147.807 35.6902 146.08 34.2102L142.176 38.7662C143.137 39.5902 143.977 40.7152 144.654 42.2272L150.13 39.7732ZM146.194 34.3132C144.923 33.1052 143.92 32.1332 143.177 31.3912L138.935 35.6332C139.728 36.4272 140.773 37.4392 142.062 38.6632L146.194 34.3132ZM143.177 31.3912C143.041 31.2552 142.904 31.0602 142.904 30.5362H136.904C136.904 32.4442 137.535 34.2332 138.935 35.6332L143.177 31.3912ZM142.904 30.5362C142.904 30.3682 142.929 30.2792 142.943 30.2422C142.955 30.2082 142.974 30.1732 143.019 30.1222C143.123 30.0072 143.454 29.7302 144.311 29.4762L142.601 23.7242C141.09 24.1742 139.645 24.9052 138.565 26.1022C137.431 27.3592 136.904 28.9032 136.904 30.5362H142.904ZM144.311 29.4762C146.218 28.9092 149.952 28.5442 155.84 28.5442V22.5442C149.952 22.5442 145.43 22.8832 142.601 23.7242L144.311 29.4762ZM155.84 28.5442C162.034 28.5442 166.102 28.9052 168.311 29.4982L169.865 23.7022C166.826 22.8872 162.062 22.5442 155.84 22.5442V28.5442ZM168.328 29.5022C169.406 29.7852 169.877 30.1022 170.043 30.2602C170.111 30.3252 170.116 30.3512 170.111 30.3382C170.105 30.3252 170.12 30.3462 170.12 30.4402H176.12C176.12 28.6912 175.448 27.1222 174.181 25.9162C173.003 24.7942 171.458 24.1192 169.848 23.6982L168.328 29.5022ZM170.12 30.4402C170.12 30.2642 170.176 30.3522 169.926 30.7802C169.687 31.1912 169.259 31.7592 168.558 32.4892L172.883 36.6472C173.781 35.7132 174.553 34.7612 175.114 33.7962C175.664 32.8482 176.12 31.7042 176.12 30.4402H170.12ZM168.556 32.4902C167.493 33.5982 166.684 34.9152 166.349 36.4482C166.011 37.9982 166.21 39.5302 166.783 40.9622L172.353 38.7342C172.158 38.2462 172.165 37.9382 172.211 37.7272C172.26 37.5012 172.411 37.1382 172.884 36.6462L168.556 32.4902ZM166.751 40.8802L172.799 57.3922L178.433 55.3282L172.385 38.8162L166.751 40.8802ZM172.77 57.3092C173.029 58.0852 173.943 59.9362 176.192 59.9362V53.9362C176.912 53.9362 177.549 54.2422 177.977 54.6712C178.332 55.0262 178.445 55.3602 178.462 55.4112L172.77 57.3092ZM176.192 59.9362C177.003 59.9362 177.849 59.6732 178.552 59.0702C179.203 58.5122 179.536 57.8322 179.71 57.3092L174.018 55.4112C174.064 55.2722 174.221 54.8802 174.648 54.5142C175.127 54.1032 175.701 53.9362 176.192 53.9362V59.9362ZM179.662 57.4412L186.19 40.5452L180.594 38.3832L174.066 55.2792L179.662 57.4412ZM186.171 40.5932C187.339 37.7182 187.172 34.7472 185.129 32.2732L180.503 36.0952C180.892 36.5652 181.109 37.1142 180.613 38.3352L186.171 40.5932ZM185.129 32.2732C184.62 31.6572 184.314 31.1782 184.145 30.8302C183.973 30.4772 183.992 30.3652 183.992 30.4402H177.992C177.992 32.5512 179.179 34.4922 180.503 36.0952L185.129 32.2732ZM183.992 30.4402C183.992 30.1552 184.055 30.0382 184.099 29.9732C184.156 29.8882 184.325 29.6892 184.795 29.4562C185.82 28.9492 187.735 28.5442 190.88 28.5442V22.5442C187.433 22.5442 184.404 22.9552 182.133 24.0802C180.955 24.6632 179.888 25.4842 179.121 26.6232C178.341 27.7822 177.992 29.0932 177.992 30.4402H183.992ZM190.88 28.5442C194.36 28.5442 196.549 28.9592 197.762 29.5172C198.331 29.7792 198.546 30.0102 198.62 30.1122C198.672 30.1822 198.728 30.2832 198.728 30.5362H204.728C204.728 29.1252 204.332 27.7702 203.48 26.5922C202.65 25.4462 201.509 24.6372 200.27 24.0672C197.867 22.9612 194.632 22.5442 190.88 22.5442V28.5442ZM198.728 30.5362C198.728 30.9072 198.64 31.0562 198.432 31.2342L202.336 35.7902C203.92 34.4322 204.728 32.5972 204.728 30.5362H198.728ZM198.446 31.2222C197.637 31.9062 196.568 32.7872 195.232 33.8682L199.008 38.5322C200.36 37.4372 201.467 36.5262 202.322 35.8022L198.446 31.2222ZM195.302 33.8142C193.486 35.1972 192.135 37.0482 191.195 39.2422L196.709 41.6062C197.305 40.2162 198.066 39.2512 198.938 38.5862L195.302 33.8142ZM191.201 39.2282L173.921 78.9722L179.423 81.3642L196.703 41.6202L191.201 39.2282ZM173.932 78.9472C171.402 84.6232 168.74 88.3122 166.091 90.3782L169.781 95.1102C173.532 92.1842 176.694 87.4892 179.412 81.3892L173.932 78.9472ZM166.068 90.3972C163.569 92.3852 160.271 93.4882 155.936 93.4882V99.4882C161.329 99.4882 166.031 98.0952 169.804 95.0912L166.068 90.3972ZM291.782 63.1762L288.801 63.5132L288.802 63.5252L288.804 63.5372L291.782 63.1762ZM269.798 69.1282L267.199 67.6292L267.19 67.6452L267.18 67.6622L269.798 69.1282ZM271.046 63.5602L268.051 63.7262V63.7372L268.052 63.7472L271.046 63.5602ZM269.51 46.4722L266.524 46.7562L266.528 46.8002L266.533 46.8442L269.51 46.4722ZM257.894 41.1922L260.105 43.2192L260.126 43.1972L260.146 43.1742L257.894 41.1922ZM255.59 47.6242L258.586 47.7692L258.587 47.7632L255.59 47.6242ZM255.494 64.6162L258.492 64.5052L258.491 64.4802L258.49 64.4542L255.494 64.6162ZM257.03 69.4162L254.517 71.0552L254.534 71.0812L254.551 71.1062L257.03 69.4162ZM232.55 68.9362L230.109 67.1922L230.103 67.2012L230.097 67.2102L232.55 68.9362ZM234.758 63.5602L237.741 63.8802L237.747 63.8262L237.751 63.7722L234.758 63.5602ZM234.854 44.5522L237.849 44.3712L237.847 44.3402L237.844 44.3102L234.854 44.5522ZM237.35 28.1362L238.61 30.8592L238.626 30.8512L238.643 30.8432L237.35 28.1362ZM255.014 34.9522L252.029 34.6482L251.738 37.5142L254.59 37.9222L255.014 34.9522ZM255.686 35.0482L255.262 38.0182L257.368 38.3192L258.348 36.4302L255.686 35.0482ZM289.382 42.9202L286.401 43.2572L286.403 43.2742L286.405 43.2922L289.382 42.9202ZM288.804 63.5372C289.136 66.2812 290.271 68.7302 292.127 70.8282L296.621 66.8522C295.533 65.6222 294.94 64.2952 294.76 62.8152L288.804 63.5372ZM292.127 70.8282C292.768 71.5522 293.162 72.1192 293.385 72.5352C293.614 72.9652 293.582 73.0852 293.582 72.9682H299.582C299.582 70.6912 298.151 68.5822 296.621 66.8522L292.127 70.8282ZM293.582 72.9682C293.582 72.9952 293.603 72.9802 293.533 73.0542C293.399 73.1962 293.016 73.4962 292.124 73.8122C290.313 74.4542 287.271 74.8642 282.758 74.8642V80.8642C287.461 80.8642 291.331 80.4582 294.128 79.4682C295.54 78.9682 296.885 78.2482 297.903 77.1662C298.985 76.0162 299.582 74.5732 299.582 72.9682H293.582ZM282.758 74.8642C278.081 74.8642 274.906 74.4542 273.002 73.8022C272.06 73.4792 271.646 73.1702 271.497 73.0172C271.435 72.9532 271.435 72.9342 271.446 72.9602C271.458 72.9892 271.454 73.0012 271.454 72.9682H265.454C265.454 76.5462 268.239 78.5132 271.058 79.4782C273.922 80.4582 277.899 80.8642 282.758 80.8642V74.8642ZM271.454 72.9682C271.454 72.8052 271.58 72.0852 272.416 70.5942L267.18 67.6622C266.224 69.3712 265.454 71.2112 265.454 72.9682H271.454ZM272.397 70.6272C273.672 68.4172 274.202 65.9682 274.04 63.3732L268.052 63.7472C268.146 65.2482 267.844 66.5112 267.199 67.6292L272.397 70.6272ZM274.041 63.3942C273.718 57.5662 273.2 51.8012 272.487 46.1002L266.533 46.8442C267.228 52.4072 267.734 58.0342 268.051 63.7262L274.041 63.3942ZM272.496 46.1882C272.219 43.2722 271.491 40.5912 269.885 38.6842L265.295 42.5482C265.737 43.0732 266.289 44.2962 266.524 46.7562L272.496 46.1882ZM269.885 38.6842C268.172 36.6502 265.777 35.7922 263.174 35.7922V41.7922C264.411 41.7922 264.96 42.1502 265.295 42.5482L269.885 38.6842ZM263.174 35.7922C260.191 35.7922 257.613 36.9702 255.642 39.2102L260.146 43.1742C260.991 42.2142 261.933 41.7922 263.174 41.7922V35.7922ZM255.683 39.1652C253.665 41.3652 252.743 44.2592 252.593 47.4852L258.587 47.7632C258.693 45.4852 259.307 44.0912 260.105 43.2192L255.683 39.1652ZM252.594 47.4792C252.27 54.1372 252.235 59.9092 252.498 64.7782L258.49 64.4542C258.241 59.8512 258.27 54.2952 258.586 47.7692L252.594 47.4792ZM252.496 64.7272C252.581 67.0082 253.265 69.1352 254.517 71.0552L259.543 67.7772C258.875 66.7532 258.535 65.6802 258.492 64.5052L252.496 64.7272ZM254.551 71.1062C254.948 71.6882 255.191 72.1462 255.33 72.4872C255.47 72.8332 255.47 72.9792 255.47 72.9682H261.47C261.47 71.0962 260.578 69.2942 259.509 67.7262L254.551 71.1062ZM255.47 72.9682C255.47 73.0012 255.488 72.9892 255.42 73.0622C255.289 73.2022 254.912 73.5002 254.03 73.8142C252.237 74.4542 249.222 74.8642 244.742 74.8642V80.8642C249.414 80.8642 253.263 80.4582 256.046 79.4662C257.452 78.9642 258.791 78.2422 259.804 77.1582C260.88 76.0072 261.47 74.5672 261.47 72.9682H255.47ZM244.742 74.8642C240.163 74.8642 237.068 74.4542 235.219 73.8082C234.308 73.4892 233.912 73.1852 233.772 73.0392C233.699 72.9622 233.726 72.9822 233.726 72.9682H227.726C227.726 76.5102 230.436 78.4922 233.241 79.4722C236.064 80.4582 239.977 80.8642 244.742 80.8642V74.8642ZM233.726 72.9682C233.726 73.0812 233.702 72.9482 233.915 72.4772C234.116 72.0322 234.462 71.4322 235.003 70.6622L230.097 67.2102C229.422 68.1682 228.856 69.1042 228.449 70.0032C228.054 70.8762 227.726 71.8952 227.726 72.9682H233.726ZM234.991 70.6802C236.505 68.5602 237.483 66.2872 237.741 63.8802L231.775 63.2402C231.649 64.4172 231.155 65.7282 230.109 67.1922L234.991 70.6802ZM237.751 63.7722C238.208 57.3052 238.24 50.8382 237.849 44.3712L231.859 44.7332C232.236 50.9382 232.204 57.1432 231.765 63.3482L237.751 63.7722ZM237.844 44.3102C237.614 41.4762 236.752 38.9182 235.13 36.7852L230.354 40.4152C231.164 41.4822 231.71 42.8922 231.864 44.7942L237.844 44.3102ZM235.13 36.7852C234.607 36.0962 234.282 35.5552 234.096 35.1552C233.905 34.7422 233.918 34.5992 233.918 34.6642H227.918C227.918 36.7292 229.064 38.7182 230.354 40.4152L235.13 36.7852ZM233.918 34.6642C233.918 34.4782 233.977 34.0582 234.663 33.3622C235.383 32.6312 236.634 31.7732 238.61 30.8592L236.09 25.4132C233.778 26.4832 231.813 27.7052 230.389 29.1502C228.931 30.6302 227.918 32.4822 227.918 34.6642H233.918ZM238.643 30.8432C242.621 28.9432 246.243 28.0642 249.542 28.0642V22.0642C245.161 22.0642 240.655 23.2332 236.057 25.4292L238.643 30.8432ZM249.542 28.0642C250.619 28.0642 251.254 28.2132 251.589 28.3552C251.744 28.4202 251.81 28.4742 251.829 28.4912C251.844 28.5042 251.846 28.5082 251.851 28.5182L257.217 25.8342C255.724 22.8472 252.495 22.0642 249.542 22.0642V28.0642ZM251.851 28.5182C251.942 28.7012 252.118 29.2392 252.188 30.3612C252.254 31.4382 252.212 32.8562 252.029 34.6482L257.999 35.2562C258.2 33.2722 258.27 31.5062 258.176 29.9912C258.086 28.5212 257.83 27.0592 257.217 25.8342L251.851 28.5182ZM254.59 37.9222L255.262 38.0182L256.11 32.0782L255.438 31.9822L254.59 37.9222ZM258.348 36.4302C259.861 33.5182 261.758 31.4712 263.993 30.1352C266.233 28.7972 268.991 28.0642 272.39 28.0642V22.0642C268.109 22.0642 264.243 22.9952 260.915 24.9852C257.582 26.9772 254.967 29.9222 253.024 33.6662L258.348 36.4302ZM272.39 28.0642C276.75 28.0642 279.806 29.3402 281.953 31.5962C284.169 33.9252 285.77 37.6682 286.401 43.2572L292.363 42.5832C291.65 36.2682 289.747 31.0832 286.299 27.4602C282.782 23.7642 278.014 22.0642 272.39 22.0642V28.0642ZM286.405 43.2922C287.171 49.4222 287.97 56.1632 288.801 63.5132L294.763 62.8392C293.93 55.4692 293.129 48.7062 292.359 42.5482L286.405 43.2922ZM306.647 71.6242L304.649 73.8622L304.656 73.8682L304.664 73.8752L306.647 71.6242ZM349.751 32.0722L347.77 34.3252L347.784 34.3372L347.799 34.3502L349.751 32.0722ZM335.831 66.2482L338.219 68.0632L338.237 68.0412L338.253 68.0182L335.831 66.2482ZM334.199 43.1122L331.42 44.2432L331.428 44.2622L331.437 44.2822L334.199 43.1122ZM320.183 54.6322L317.267 55.3362L317.27 55.3482L320.183 54.6322ZM324.407 64.4242L321.911 66.0882L321.92 66.1012L321.928 66.1142L324.407 64.4242ZM327.767 75.7282C319.629 75.7282 313.346 73.5282 308.63 69.3732L304.664 73.8752C310.7 79.1922 318.497 81.7282 327.767 81.7282V75.7282ZM308.645 69.3862C303.958 65.2012 301.583 59.7692 301.583 52.8082H295.583C295.583 61.3352 298.584 68.4472 304.649 73.8622L308.645 69.3862ZM301.583 52.8082C301.583 45.7692 304.116 39.9782 309.257 35.2372L305.189 30.8272C298.81 36.7102 295.583 44.1032 295.583 52.8082H301.583ZM309.257 35.2372C314.404 30.4902 320.853 28.0642 328.823 28.0642V22.0642C319.513 22.0642 311.562 24.9502 305.189 30.8272L309.257 35.2372ZM328.823 28.0642C336.902 28.0642 343.12 30.2352 347.77 34.3252L351.732 29.8192C345.758 24.5652 338.024 22.0642 328.823 22.0642V28.0642ZM347.799 34.3502C352.474 38.3572 354.815 43.5232 354.815 50.1202H360.815C360.815 41.8692 357.78 35.0032 351.703 29.7942L347.799 34.3502ZM354.815 50.1202C354.815 57.5292 352.276 63.5502 347.199 68.3982L351.343 72.7382C357.658 66.7062 360.815 59.0952 360.815 50.1202H354.815ZM347.199 68.3982C342.118 73.2522 335.717 75.7282 327.767 75.7282V81.7282C337.097 81.7282 345.032 78.7642 351.343 72.7382L347.199 68.3982ZM330.935 71.6482C333.9 71.6482 336.424 70.4262 338.219 68.0632L333.443 64.4332C332.806 65.2702 332.066 65.6482 330.935 65.6482V71.6482ZM338.253 68.0182C339.96 65.6822 340.655 62.7522 340.655 59.5282H334.655C334.655 61.9362 334.134 63.4862 333.409 64.4782L338.253 68.0182ZM340.655 59.5282C340.655 53.5932 339.411 47.7252 336.961 41.9422L331.437 44.2822C333.595 49.3792 334.655 54.4552 334.655 59.5282H340.655ZM336.978 41.9812C334.638 36.2322 331.065 31.8562 325.655 31.8562V37.8562C327.157 37.8562 329.28 38.9842 331.42 44.2432L336.978 41.9812ZM325.655 31.8562C322.614 31.8562 320.038 33.1232 318.241 35.5822L323.085 39.1222C323.72 38.2532 324.472 37.8562 325.655 37.8562V31.8562ZM318.241 35.5822C316.541 37.9072 315.839 40.7992 315.839 43.9762H321.839C321.839 41.6492 322.353 40.1252 323.085 39.1222L318.241 35.5822ZM315.839 43.9762C315.839 47.6332 316.322 51.4222 317.267 55.3362L323.099 53.9282C322.252 50.4182 321.839 47.1032 321.839 43.9762H315.839ZM317.27 55.3482C318.242 59.3052 319.782 62.8952 321.911 66.0882L326.903 62.7602C325.192 60.1932 323.916 57.2552 323.096 53.9162L317.27 55.3482ZM321.928 66.1142C324.164 69.3932 327.146 71.6482 330.935 71.6482V65.6482C329.86 65.6482 328.49 65.0872 326.886 62.7342L321.928 66.1142ZM394.531 76.5202L396.221 78.9992L396.259 78.9732L396.296 78.9462L394.531 76.5202ZM380.803 76.5202L379.09 78.9832L379.127 79.0082L379.164 79.0332L380.803 76.5202ZM377.155 70.8562L379.988 69.8682L379.985 69.8592L379.982 69.8502L377.155 70.8562ZM366.595 41.1922L363.768 42.1952L363.769 42.1982L366.595 41.1922ZM363.523 36.4882L361.457 38.6632L361.513 38.7162L361.571 38.7662L363.523 36.4882ZM360.259 33.6082L358.321 35.8982L358.363 35.9332L358.406 35.9672L360.259 33.6082ZM388.003 36.2002L390.499 37.8642L390.524 37.8272L390.547 37.7902L388.003 36.2002ZM387.811 40.0402L390.675 39.1452L390.672 39.1352L390.669 39.1262L387.811 40.0402ZM392.611 55.4002L395.496 54.5762L395.486 54.5402L395.475 54.5052L392.611 55.4002ZM393.955 55.4002L391.088 54.5182L391.079 54.5472L391.071 54.5762L393.955 55.4002ZM399.331 37.9282L396.472 37.0182L396.468 37.0322L396.464 37.0462L399.331 37.9282ZM416.995 32.2642L415.252 34.7052L415.278 34.7242L415.305 34.7432L416.995 32.2642ZM420.355 37.9282L423.239 37.1002L423.236 37.0892L423.232 37.0782L420.355 37.9282ZM425.347 55.3042L428.289 54.7162L428.265 54.5942L428.231 54.4762L425.347 55.3042ZM425.635 55.9762L423.514 58.0972L424.015 58.5982L424.687 58.8222L425.635 55.9762ZM426.211 55.9762L427.16 58.8222L427.541 58.6952L427.875 58.4722L426.211 55.9762ZM426.595 55.3042L423.727 54.4242L423.683 54.5682L423.654 54.7162L426.595 55.3042ZM431.395 39.6562L434.263 40.5362L434.268 40.5192L434.273 40.5022L431.395 39.6562ZM430.627 34.2802L428.265 36.1292L428.285 36.1552L428.305 36.1802L430.627 34.2802ZM448.483 33.2242L446.263 31.2062L446.258 31.2122L446.253 31.2172L448.483 33.2242ZM446.371 34.8562L447.713 37.5392L447.754 37.5192L447.794 37.4972L446.371 34.8562ZM443.779 36.9682L445.901 39.0892L445.935 39.0552L445.968 39.0202L443.779 36.9682ZM441.571 40.6162L438.738 39.6302L438.735 39.6382L438.733 39.6462L441.571 40.6162ZM431.299 70.6642L434.126 71.6692L434.132 71.6522L434.138 71.6342L431.299 70.6642ZM427.651 76.5202L429.341 78.9992L429.379 78.9732L429.416 78.9462L427.651 76.5202ZM413.539 76.4242L411.756 78.8372L411.791 78.8622L411.826 78.8872L413.539 76.4242ZM409.987 70.1842L412.867 69.3442L412.86 69.3192L412.852 69.2932L409.987 70.1842ZM405.091 54.4402L402.181 55.1682L402.201 55.2502L402.227 55.3312L405.091 54.4402ZM404.707 53.8642L402.586 55.9852L402.796 56.1952L403.043 56.3602L404.707 53.8642ZM403.843 54.4402L406.681 55.4142L406.723 55.2922L406.754 55.1682L403.843 54.4402ZM398.275 70.6642L401.082 71.7242L401.098 71.6812L401.113 71.6382L398.275 70.6642ZM392.841 74.0412C392.199 74.4792 390.685 74.9602 387.715 74.9602V80.9602C391.018 80.9602 394.047 80.4812 396.221 78.9992L392.841 74.0412ZM387.715 74.9602C384.764 74.9602 383.176 74.4862 382.442 74.0072L379.164 79.0332C381.375 80.4742 384.395 80.9602 387.715 80.9602V74.9602ZM382.516 74.0572C381.798 73.5582 380.859 72.3652 379.988 69.8682L374.323 71.8442C375.372 74.8512 376.864 77.4342 379.09 78.9832L382.516 74.0572ZM379.982 69.8502L369.422 40.1862L363.769 42.1982L374.329 71.8622L379.982 69.8502ZM369.423 40.1892C368.577 37.8052 367.287 35.7632 365.476 34.2102L361.571 38.7662C362.448 39.5172 363.206 40.6112 363.768 42.1952L369.423 40.1892ZM365.589 34.3132C364.274 33.0632 363.111 32.0332 362.113 31.2492L358.406 35.9672C359.2 36.5912 360.212 37.4812 361.457 38.6632L365.589 34.3132ZM362.197 31.3182C362.122 31.2542 362.011 31.1762 362.011 30.7282H356.011C356.011 32.7122 356.733 34.5542 358.321 35.8982L362.197 31.3182ZM362.011 30.7282C362.011 30.7082 362.013 30.7302 361.999 30.7612C361.987 30.7872 361.994 30.7532 362.082 30.6692C362.29 30.4692 362.81 30.1202 363.908 29.7702C366.111 29.0662 369.718 28.6402 374.947 28.6402V22.6402C369.552 22.6402 365.192 23.0622 362.083 24.0542C359.11 25.0032 356.011 26.9642 356.011 30.7282H362.011ZM374.947 28.6402C380.506 28.6402 384.386 29.0502 386.784 29.7452C387.988 30.0942 388.578 30.4482 388.819 30.6582C388.972 30.7912 388.843 30.7182 388.843 30.5362H394.843C394.843 28.7222 394.011 27.2212 392.755 26.1302C391.589 25.1162 390.067 24.4502 388.454 23.9832C385.221 23.0462 380.653 22.6402 374.947 22.6402V28.6402ZM388.843 30.5362C388.843 30.6052 388.863 30.7812 388.438 31.1492L392.368 35.6832C393.864 34.3872 394.843 32.6432 394.843 30.5362H388.843ZM388.438 31.1492C387.265 32.1662 386.266 33.3202 385.459 34.6102L390.547 37.7902C391.021 37.0322 391.622 36.3302 392.368 35.6832L388.438 31.1492ZM385.507 34.5362C384.162 36.5542 384.295 38.8962 384.954 40.9542L390.669 39.1262C390.49 38.5682 390.462 38.2172 390.472 38.0302C390.476 37.9412 390.488 37.8952 390.493 37.8792C390.496 37.8712 390.498 37.8672 390.498 37.8662C390.498 37.8662 390.499 37.8652 390.499 37.8642L385.507 34.5362ZM384.948 40.9352L389.748 56.2952L395.475 54.5052L390.675 39.1452L384.948 40.9352ZM389.727 56.2242C389.869 56.7242 390.151 57.4222 390.754 58.0252C391.435 58.7062 392.337 59.0722 393.283 59.0722V53.0722C393.91 53.0722 394.54 53.3262 394.997 53.7832C395.375 54.1622 395.481 54.5242 395.496 54.5762L389.727 56.2242ZM393.283 59.0722C394.23 59.0722 395.132 58.7062 395.813 58.0252C396.415 57.4222 396.697 56.7242 396.84 56.2242L391.071 54.5762C391.085 54.5242 391.191 54.1622 391.57 53.7832C392.027 53.3262 392.657 53.0722 393.283 53.0722V59.0722ZM396.823 56.2822L402.199 38.8102L396.464 37.0462L391.088 54.5182L396.823 56.2822ZM402.19 38.8382C403.007 36.2692 403.91 35.1762 404.522 34.7772L401.244 29.7512C398.913 31.2722 397.447 33.9552 396.472 37.0182L402.19 38.8382ZM404.522 34.7772C405.23 34.3152 406.915 33.8242 410.179 33.8242V27.8242C406.659 27.8242 403.48 28.2932 401.244 29.7512L404.522 34.7772ZM410.179 33.8242C413.249 33.8242 414.709 34.3172 415.252 34.7052L418.739 29.8232C416.594 28.2912 413.509 27.8242 410.179 27.8242V33.8242ZM415.305 34.7432C415.855 35.1172 416.714 36.1912 417.478 38.7782L423.232 37.0782C422.333 34.0332 420.952 31.3312 418.685 29.7852L415.305 34.7432ZM417.472 38.7562L422.464 56.1322L428.231 54.4762L423.239 37.1002L417.472 38.7562ZM422.406 55.8922C422.505 56.3882 422.748 57.3322 423.514 58.0972L427.757 53.8552C428.038 54.1362 428.171 54.4062 428.225 54.5302C428.281 54.6612 428.293 54.7362 428.289 54.7162L422.406 55.8922ZM424.687 58.8222C425.494 59.0912 426.352 59.0912 427.16 58.8222L425.263 53.1302C425.686 52.9892 426.16 52.9892 426.584 53.1302L424.687 58.8222ZM427.875 58.4722C428.963 57.7472 429.382 56.6662 429.537 55.8922L423.654 54.7162C423.68 54.5822 423.844 53.9492 424.547 53.4802L427.875 58.4722ZM429.463 56.1842L434.263 40.5362L428.527 38.7762L423.727 54.4242L429.463 56.1842ZM434.273 40.5022C435.115 37.6412 434.886 34.7472 432.949 32.3802L428.305 36.1802C428.673 36.6292 428.955 37.3192 428.517 38.8092L434.273 40.5022ZM432.99 32.4312C432.509 31.8172 432.218 31.3362 432.055 30.9832C431.89 30.6252 431.899 30.4922 431.899 30.5362H425.899C425.899 32.5922 426.999 34.5122 428.265 36.1292L432.99 32.4312ZM431.899 30.5362C431.899 30.2692 431.958 30.1642 432.001 30.1022C432.061 30.0162 432.243 29.8092 432.744 29.5672C433.828 29.0462 435.828 28.6402 439.075 28.6402V22.6402C435.538 22.6402 432.451 23.0502 430.143 24.1612C428.948 24.7352 427.857 25.5482 427.069 26.6862C426.264 27.8482 425.899 29.1712 425.899 30.5362H431.899ZM439.075 28.6402C442.382 28.6402 444.421 29.0612 445.53 29.6052C446.042 29.8572 446.239 30.0782 446.314 30.1882C446.373 30.2762 446.443 30.4172 446.443 30.7282H452.443C452.443 29.3432 452.081 28.0002 451.277 26.8162C450.487 25.6542 449.388 24.8152 448.173 24.2192C445.825 23.0672 442.68 22.6402 439.075 22.6402V28.6402ZM446.443 30.7282C446.443 30.9492 446.396 31.0602 446.263 31.2062L450.703 35.2422C451.85 33.9802 452.443 32.4272 452.443 30.7282H446.443ZM446.253 31.2172C445.93 31.5772 445.507 31.9142 444.949 32.2152L447.794 37.4972C448.9 36.9022 449.885 36.1512 450.713 35.2312L446.253 31.2172ZM445.03 32.1732C443.807 32.7842 442.659 33.7762 441.591 34.9162L445.968 39.0202C446.819 38.1122 447.4 37.6962 447.713 37.5392L445.03 32.1732ZM441.658 34.8472C440.334 36.1712 439.376 37.7942 438.738 39.6302L444.405 41.6022C444.79 40.4942 445.305 39.6852 445.901 39.0892L441.658 34.8472ZM438.733 39.6462L428.461 69.6942L434.138 71.6342L444.41 41.5862L438.733 39.6462ZM428.473 69.6592C427.516 72.3482 426.558 73.6052 425.887 74.0942L429.416 78.9462C431.56 77.3872 433.034 74.7402 434.126 71.6692L428.473 69.6592ZM425.961 74.0412C425.326 74.4742 423.788 74.9602 420.739 74.9602V80.9602C424.09 80.9602 427.16 80.4862 429.341 78.9992L425.961 74.0412ZM420.739 74.9602C417.573 74.9602 415.948 74.4452 415.252 73.9612L411.826 78.8872C414.075 80.4512 417.25 80.9602 420.739 80.9602V74.9602ZM415.322 74.0112C414.646 73.5122 413.702 72.2072 412.867 69.3442L407.107 71.0242C408.064 74.3052 409.488 77.1602 411.756 78.8372L415.322 74.0112ZM412.852 69.2932L407.956 53.5492L402.227 55.3312L407.123 71.0752L412.852 69.2932ZM408.002 53.7122C407.784 52.8442 407.274 51.9692 406.371 51.3682L403.043 56.3602C402.81 56.2042 402.607 56.0022 402.451 55.7682C402.299 55.5402 402.22 55.3262 402.181 55.1682L408.002 53.7122ZM406.829 51.7432C406.283 51.1972 405.474 50.7682 404.491 50.7682C403.611 50.7682 402.944 51.1142 402.563 51.3682L405.891 56.3602C405.702 56.4862 405.212 56.7682 404.491 56.7682C403.669 56.7682 403.004 56.4032 402.586 55.9852L406.829 51.7432ZM402.563 51.3682C401.661 51.9692 401.15 52.8442 400.933 53.7122L406.754 55.1682C406.714 55.3262 406.635 55.5402 406.483 55.7682C406.328 56.0022 406.125 56.2042 405.891 56.3602L402.563 51.3682ZM401.006 53.4662L395.438 69.6902L401.113 71.6382L406.681 55.4142L401.006 53.4662ZM395.469 69.6042C394.449 72.3042 393.461 73.5892 392.767 74.0942L396.296 78.9462C398.417 77.4032 399.926 74.7842 401.082 71.7242L395.469 69.6042ZM475.065 45.2242L477.916 46.1582L477.941 46.0812L477.962 46.0022L475.065 45.2242ZM463.545 45.2242L460.647 46.0022L460.668 46.0812L460.694 46.1582L463.545 45.2242ZM455.193 14.1202L458.09 13.3422L458.077 13.2922L458.062 13.2432L455.193 14.1202ZM455.481 8.64816L453.002 6.95816L452.993 6.97116L452.985 6.98416L455.481 8.64816ZM483.033 8.64816L480.554 10.3382L480.573 10.3652L480.592 10.3922L483.033 8.64816ZM483.417 14.1202L480.548 13.2432L480.533 13.2922L480.519 13.3422L483.417 14.1202ZM461.337 75.5602L459.215 77.6812L459.233 77.6992L459.25 77.7162L461.337 75.5602ZM476.985 75.4642L479.072 77.6192L479.073 77.6182L476.985 75.4642ZM472.214 44.2902C471.693 45.8812 471.112 46.7752 470.628 47.2432C470.216 47.6412 469.823 47.7922 469.305 47.7922V53.7922C471.41 53.7922 473.289 53.0152 474.798 51.5572C476.234 50.1692 477.221 48.2792 477.916 46.1582L472.214 44.2902ZM469.305 47.7922C468.786 47.7922 468.393 47.6412 467.982 47.2432C467.498 46.7752 466.917 45.8812 466.396 44.2902L460.694 46.1582C461.389 48.2792 462.376 50.1692 463.812 51.5572C465.32 53.0152 467.199 53.7922 469.305 53.7922V47.7922ZM466.442 44.4462L458.09 13.3422L452.295 14.8982L460.647 46.0022L466.442 44.4462ZM458.062 13.2432C457.488 11.3672 457.786 10.5992 457.977 10.3122L452.985 6.98416C451.384 9.38516 451.489 12.2652 452.324 14.9972L458.062 13.2432ZM457.959 10.3382C458.145 10.0652 458.673 9.53616 460.569 9.53616V3.53616C457.601 3.53616 454.736 4.41516 453.002 6.95816L457.959 10.3382ZM460.569 9.53616H477.945V3.53616H460.569V9.53616ZM477.945 9.53616C479.841 9.53616 480.368 10.0652 480.554 10.3382L485.511 6.95816C483.777 4.41516 480.913 3.53616 477.945 3.53616V9.53616ZM480.592 10.3922C480.794 10.6752 481.11 11.4042 480.548 13.2432L486.286 14.9972C487.132 12.2282 487.192 9.30917 485.474 6.90417L480.592 10.3922ZM480.519 13.3422L472.167 44.4462L477.962 46.0022L486.314 14.8982L480.519 13.3422ZM469.209 75.4402C466.572 75.4402 464.747 74.6862 463.423 73.4042L459.25 77.7162C461.894 80.2742 465.318 81.4402 469.209 81.4402V75.4402ZM463.458 73.4392C462.176 72.1572 461.457 70.4622 461.457 68.0722H455.457C455.457 71.8262 456.657 75.1232 459.215 77.6812L463.458 73.4392ZM461.457 68.0722C461.457 65.8572 462.196 64.1642 463.679 62.7712L459.571 58.3972C456.83 60.9722 455.457 64.2712 455.457 68.0722H461.457ZM463.679 62.7712C465.174 61.3652 467.069 60.6082 469.593 60.6082V54.6082C465.716 54.6082 462.299 55.8352 459.571 58.3972L463.679 62.7712ZM469.593 60.6082C472.179 60.6082 473.935 61.3382 475.188 62.5492L479.358 58.2352C476.77 55.7342 473.406 54.6082 469.593 54.6082V60.6082ZM475.188 62.5492C476.421 63.7412 477.153 65.4042 477.153 67.8802H483.153C483.153 64.0842 481.964 60.7552 479.358 58.2352L475.188 62.5492ZM477.153 67.8802C477.153 70.0972 476.411 71.8412 474.896 73.3102L479.073 77.6182C481.782 74.9912 483.153 71.6792 483.153 67.8802H477.153ZM474.897 73.3092C473.467 74.6952 471.651 75.4402 469.209 75.4402V81.4402C473.039 81.4402 476.406 80.2012 479.072 77.6192L474.897 73.3092Z" fill="black"/>
</g>
</g>
<defs>
<filter id="filter0_ddii_4878_12742" x="0.929199" y="0.326172" width="489.309" height="103.662" filterUnits="userSpaceOnUse" color-interpolation-filters="sRGB">
<feFlood flood-opacity="0" result="BackgroundImageFix"/>
<feColorMatrix in="SourceAlpha" type="matrix" values="0 0 0 0 0 0 0 0 0 0 0 0 0 0 0 0 0 0 127 0" result="hardAlpha"/>
<feOffset dy="2.25"/>
<feGaussianBlur stdDeviation="0.5625"/>
<feComposite in2="hardAlpha" operator="out"/>
<feColorMatrix type="matrix" values="0 0 0 0 0 0 0 0 0 0 0 0 0 0 0 0 0 0 0.012 0"/>
<feBlend mode="normal" in2="BackgroundImageFix" result="effect1_dropShadow_4878_12742"/>
<feColorMatrix in="SourceAlpha" type="matrix" values="0 0 0 0 0 0 0 0 0 0 0 0 0 0 0 0 0 0 127 0" result="hardAlpha"/>
<feOffset dy="1.125"/>
<feGaussianBlur stdDeviation="1.6875"/>
<feComposite in2="hardAlpha" operator="out"/>
<feColorMatrix type="matrix" values="0 0 0 0 0 0 0 0 0 0 0 0 0 0 0 0 0 0 0.012 0"/>
<feBlend mode="normal" in2="effect1_dropShadow_4878_12742" result="effect2_dropShadow_4878_12742"/>
<feBlend mode="normal" in="SourceGraphic" in2="effect2_dropShadow_4878_12742" result="shape"/>
<feColorMatrix in="SourceAlpha" type="matrix" values="0 0 0 0 0 0 0 0 0 0 0 0 0 0 0 0 0 0 127 0" result="hardAlpha"/>
<feOffset/>
<feGaussianBlur stdDeviation="2"/>
<feComposite in2="hardAlpha" operator="arithmetic" k2="-1" k3="1"/>
<feColorMatrix type="matrix" values="0 0 0 0 0 0 0 0 0 0 0 0 0 0 0 0 0 0 0.012 0"/>
<feBlend mode="normal" in2="shape" result="effect3_innerShadow_4878_12742"/>
<feColorMatrix in="SourceAlpha" type="matrix" values="0 0 0 0 0 0 0 0 0 0 0 0 0 0 0 0 0 0 127 0" result="hardAlpha"/>
<feOffset dy="1.125"/>
<feGaussianBlur stdDeviation="2.25"/>
<feComposite in2="hardAlpha" operator="arithmetic" k2="-1" k3="1"/>
<feColorMatrix type="matrix" values="0 0 0 0 0.00720803 0 0 0 0 0.00720803 0 0 0 0 0.204792 0 0 0 0.079 0"/>
<feBlend mode="normal" in2="effect3_innerShadow_4878_12742" result="effect4_innerShadow_4878_12742"/>
</filter>
</defs>
</svg>
