<svg width="282" height="182" viewBox="0 0 282 182" fill="none" xmlns="http://www.w3.org/2000/svg">
<g clip-path="url(#clip0_4878_12051)">
<mask id="mask0_4878_12051" style="mask-type:luminance" maskUnits="userSpaceOnUse" x="0" y="0" width="282" height="182">
<path d="M281.226 0.859375H0.773926V181.14H281.226V0.859375Z" fill="white"/>
</mask>
<g mask="url(#mask0_4878_12051)">
<path d="M209.591 150.734C160.805 151.272 115.591 151.441 83.5698 151.441C75.6878 151.441 71.7988 146.571 71.7988 137.636C71.7988 114.652 71.7278 80.3083 72.0448 51.9713C72.0828 48.5503 72.5368 43.7403 74.5798 40.9973C77.1148 37.5943 82.4298 34.7363 87.2978 34.7363C136.746 35.1223 168.962 34.8463 213.469 34.8463C219.315 35.1873 222.96 36.0423 225.231 40.9973C226.901 44.6423 226.237 49.7393 226.237 52.3683C226.237 68.1693 226.532 114.469 226.532 133.195C226.532 146.242 220.51 150.167 209.591 150.734Z" fill="#7B5FF1" stroke="#010101" stroke-width="1.5" stroke-linecap="round" stroke-linejoin="round"/>
<path d="M258.471 70.6025C265.298 69.6395 271.106 63.7005 271.917 56.8535C271.338 62.7495 274.993 68.8145 280.477 71.0575C277.669 71.2165 275.184 73.1515 273.745 75.5675C272.306 77.9835 271.769 80.8285 271.505 83.6275C271.355 76.6875 265.155 70.4295 258.471 70.6025Z" stroke="#010101" stroke-width="1.5" stroke-linecap="round" stroke-linejoin="round"/>
<path d="M13.7935 89.0595C20.6205 88.0965 26.4285 82.1575 27.2395 75.3105C26.6605 81.2065 30.3155 87.2715 35.7995 89.5145C32.9915 89.6735 30.5065 91.6086 29.0675 94.0246C27.6285 96.4406 27.0915 99.2855 26.8275 102.085C26.6775 95.1445 20.4775 88.8865 13.7935 89.0595Z" stroke="#010101" stroke-width="1.5" stroke-linecap="round" stroke-linejoin="round"/>
<path d="M98.7337 179.973C91.0477 166.646 91.6887 165.111 84.0027 151.785C78.6227 142.455 72.6557 132.575 61.9917 127.227C56.2387 124.342 48.3557 123.222 43.3777 126.737C31.7637 134.939 41.8297 156.624 53.5327 179.945C71.3167 180.511 77.6627 179.973 98.7337 179.973Z" fill="#55D087" stroke="#010101" stroke-width="1.5" stroke-linecap="round" stroke-linejoin="round"/>
<path d="M51.3677 131.207C57.8867 151.481 63.1917 160.4 72.4867 179.973" stroke="#010101" stroke-width="1.5" stroke-linecap="round" stroke-linejoin="round"/>
<path d="M57.9007 179.973C44.7267 159.992 36.3927 147.11 18.4357 141.522C14.9157 140.427 10.8687 139.928 7.59071 141.31C3.88271 142.873 1.01571 146.45 1.59971 149.941C3.83971 163.33 11.8037 170.716 16.7697 180.38C32.7937 180.463 45.7817 179.91 57.9007 179.973Z" fill="#55D087" stroke="#010101" stroke-width="1.5" stroke-linecap="round" stroke-linejoin="round"/>
<path d="M11.9346 143.521C21.0756 159.404 23.2636 164.553 34.9556 179.277" stroke="#010101" stroke-width="1.5" stroke-linecap="round" stroke-linejoin="round"/>
<path d="M172.62 173.316C172.62 165.296 172.647 159.535 172.647 151.44C157.1 151.44 146.625 151.326 132.367 151.326C131.905 159.154 132.171 165.172 132.171 172.953C149.63 173.545 161.895 173.856 172.62 173.316Z" fill="#7B5FF1" stroke="#010101" stroke-width="1.5" stroke-linecap="round" stroke-linejoin="round"/>
<path d="M177.826 172.662C159.984 173.122 144.512 172.528 127.894 172.956C127.145 173.093 126.395 173.27 125.714 173.609C125.033 173.948 124.419 174.464 124.077 175.144C123.848 175.601 123.749 176.113 123.708 176.623C123.681 176.956 123.678 177.296 123.769 177.618C123.994 178.417 124.77 178.962 125.578 179.153C126.528 179.377 156.774 180.06 177.514 179.094C178.362 179.054 179.291 178.925 179.868 178.302C180.214 177.928 180.374 177.42 180.467 176.919C180.805 175.084 180.098 172.861 177.828 172.662H177.826Z" fill="#7B5FF1" stroke="#010101" stroke-width="1.5" stroke-linecap="round" stroke-linejoin="round"/>
<path d="M209.467 135.651C166.361 136.126 115.531 136.429 87.2387 136.395C85.7687 136.393 78.1447 136.812 78.1447 128.917C78.1447 108.609 78.0817 81.2841 78.3617 56.2461C78.3957 53.2241 78.4397 50.1391 79.4357 47.2851C80.4317 44.4311 83.0327 41.0181 87.3327 41.0181C131.023 41.3591 169.465 40.9961 208.79 40.9961C213.955 41.2971 217.176 42.0531 219.182 46.4311C220.657 49.6511 220.071 54.1551 220.071 56.4781C220.071 70.4401 220.532 106.244 220.331 124.783C220.266 130.761 215.445 135.585 209.467 135.651Z" fill="white" stroke="#010101" stroke-width="1.5" stroke-linecap="round" stroke-linejoin="round"/>
<path d="M118 73.1344C137.269 72.9225 156.537 72.7119 175.807 72.5" stroke="#010101" stroke-width="1.95" stroke-linecap="round" stroke-linejoin="round"/>
<path d="M130 82.402C141.352 82.101 152.704 81.801 164.056 81.5" stroke="#010101" stroke-width="1.5" stroke-linecap="round" stroke-linejoin="round"/>
<path d="M194.211 50.9266C193.283 51.0832 192.336 51.262 191.521 51.733C190.706 52.204 190.036 53.029 190.001 53.9698C189.96 55.1104 190.869 56.1118 191.924 56.5468C192.979 56.9818 194.157 56.9722 195.298 56.9566C198.848 56.9068 202.398 56.8564 205.948 56.8066C207.133 56.7898 208.349 56.767 209.45 56.3278C210.551 55.8886 211.529 54.9346 211.642 53.7544C211.772 52.3834 210.591 50.9248 208.785 50.7622C207.413 50.6386 198.765 50.1574 194.211 50.9266Z" fill="#7B5FF1" stroke="#010101" stroke-width="0.9" stroke-linecap="round" stroke-linejoin="round"/>
<path d="M86.0901 55.0638C85.837 55.0638 85.6081 55.0226 85.4035 54.9404C85.201 54.856 85.0281 54.7389 84.8846 54.5892C84.7433 54.4394 84.6347 54.2633 84.5587 54.0608C84.4828 53.8583 84.4448 53.64 84.4448 53.4058V53.2792C84.4448 53.0114 84.4838 52.7688 84.5619 52.5515C84.6399 52.3342 84.7486 52.1486 84.8878 51.9946C85.027 51.8385 85.1915 51.7194 85.3814 51.6371C85.5712 51.5548 85.7769 51.5137 85.9984 51.5137C86.2431 51.5137 86.4572 51.5548 86.6407 51.6371C86.8242 51.7194 86.9761 51.8354 87.0963 51.9851C87.2186 52.1328 87.3094 52.3089 87.3684 52.5135C87.4296 52.7182 87.4602 52.9439 87.4602 53.1907V53.5166H84.815V52.9692H86.7071V52.9091C86.7029 52.7719 86.6755 52.6433 86.6249 52.523C86.5763 52.4028 86.5015 52.3058 86.4002 52.2319C86.299 52.1581 86.164 52.1212 85.9952 52.1212C85.8686 52.1212 85.7558 52.1486 85.6567 52.2035C85.5596 52.2562 85.4784 52.3332 85.413 52.4344C85.3476 52.5357 85.297 52.658 85.2611 52.8015C85.2274 52.9428 85.2105 53.1021 85.2105 53.2792V53.4058C85.2105 53.5556 85.2306 53.6948 85.2706 53.8235C85.3128 53.95 85.374 54.0608 85.4542 54.1557C85.5343 54.2506 85.6313 54.3255 85.7453 54.3803C85.8592 54.4331 85.9889 54.4594 86.1344 54.4594C86.3179 54.4594 86.4814 54.4225 86.6249 54.3487C86.7683 54.2749 86.8928 54.1705 86.9982 54.0355L87.4001 54.4246C87.3262 54.5322 87.2303 54.6356 87.1121 54.7347C86.994 54.8317 86.8495 54.9109 86.6786 54.972C86.5099 55.0332 86.3137 55.0638 86.0901 55.0638ZM88.6372 51.577L89.289 52.7129L89.9535 51.577H90.7919L89.7541 53.2571L90.8331 55.0005H89.9946L89.2985 53.8171L88.6024 55.0005H87.7608L88.8365 53.2571L87.8019 51.577H88.6372ZM93.2441 54.3139V52.6812C93.2441 52.5589 93.2219 52.4534 93.1776 52.3648C93.1333 52.2762 93.0658 52.2077 92.9751 52.1592C92.8865 52.1107 92.7747 52.0864 92.6397 52.0864C92.5153 52.0864 92.4077 52.1075 92.317 52.1497C92.2263 52.1919 92.1556 52.2488 92.105 52.3205C92.0544 52.3923 92.0291 52.4735 92.0291 52.5642H91.2697C91.2697 52.4292 91.3024 52.2984 91.3678 52.1718C91.4332 52.0453 91.5281 51.9324 91.6526 51.8333C91.777 51.7341 91.9257 51.6561 92.0987 51.5991C92.2717 51.5422 92.4657 51.5137 92.6809 51.5137C92.9382 51.5137 93.166 51.5569 93.3643 51.6434C93.5647 51.7299 93.7219 51.8607 93.8358 52.0358C93.9518 52.2087 94.0098 52.426 94.0098 52.6876V54.2095C94.0098 54.3656 94.0203 54.5059 94.0414 54.6303C94.0646 54.7526 94.0973 54.8592 94.1395 54.9499V55.0005H93.358C93.3221 54.9182 93.2937 54.8138 93.2726 54.6873C93.2536 54.5586 93.2441 54.4341 93.2441 54.3139ZM93.3548 52.9185L93.3612 53.39H92.8138C92.6724 53.39 92.548 53.4037 92.4404 53.4311C92.3328 53.4564 92.2432 53.4944 92.1715 53.545C92.0997 53.5957 92.046 53.6568 92.0101 53.7285C91.9742 53.8003 91.9563 53.8815 91.9563 53.9722C91.9563 54.0629 91.9774 54.1462 92.0196 54.2221C92.0618 54.296 92.1229 54.354 92.2031 54.3962C92.2854 54.4384 92.3845 54.4594 92.5005 54.4594C92.6566 54.4594 92.7927 54.4278 92.9087 54.3645C93.0268 54.2991 93.1196 54.22 93.1871 54.1272C93.2546 54.0323 93.2905 53.9426 93.2947 53.8583L93.5415 54.1968C93.5162 54.2833 93.4729 54.3761 93.4118 54.4753C93.3506 54.5744 93.2704 54.6693 93.1713 54.76C93.0743 54.8486 92.9572 54.9214 92.8201 54.9784C92.6851 55.0353 92.529 55.0638 92.3518 55.0638C92.1282 55.0638 91.9289 55.0195 91.7538 54.9309C91.5787 54.8402 91.4416 54.7189 91.3425 54.567C91.2433 54.413 91.1938 54.239 91.1938 54.045C91.1938 53.8635 91.2275 53.7032 91.295 53.564C91.3646 53.4227 91.4659 53.3046 91.5988 53.2096C91.7338 53.1147 91.8983 53.043 92.0924 52.9945C92.2864 52.9439 92.5079 52.9185 92.7568 52.9185H93.3548Z" fill="#1E293B"/>
<path d="M95.5697 52.2722V54.9996H94.8071V51.5761H95.5254L95.5697 52.2722ZM95.4463 53.1613L95.1868 53.1581C95.1868 52.9219 95.2163 52.7035 95.2754 52.5032C95.3345 52.3028 95.421 52.1287 95.5349 51.9811C95.6488 51.8313 95.7901 51.7164 95.9588 51.6362C96.1297 51.5539 96.3269 51.5128 96.5505 51.5128C96.7066 51.5128 96.849 51.536 96.9777 51.5824C97.1085 51.6267 97.2213 51.6974 97.3162 51.7944C97.4133 51.8914 97.4871 52.0159 97.5377 52.1678C97.5904 52.3196 97.6168 52.5032 97.6168 52.7183V54.9996H96.8543V52.7848C96.8543 52.6181 96.829 52.4873 96.7783 52.3924C96.7298 52.2975 96.6592 52.23 96.5663 52.1899C96.4756 52.1477 96.367 52.1266 96.2404 52.1266C96.097 52.1266 95.9747 52.1541 95.8734 52.2089C95.7743 52.2637 95.6931 52.3386 95.6298 52.4335C95.5665 52.5285 95.5201 52.6382 95.4906 52.7626C95.461 52.8871 95.4463 53.02 95.4463 53.1613ZM97.5694 52.9588L97.2118 53.0379C97.2118 52.8312 97.2403 52.636 97.2972 52.4525C97.3563 52.2669 97.4417 52.1045 97.5535 51.9653C97.6674 51.8239 97.8077 51.7132 97.9744 51.633C98.141 51.5529 98.3319 51.5128 98.547 51.5128C98.7221 51.5128 98.8782 51.5371 99.0153 51.5856C99.1545 51.632 99.2727 51.7058 99.3697 51.8071C99.4667 51.9083 99.5406 52.0401 99.5912 52.2026C99.6418 52.3629 99.6671 52.5569 99.6671 52.7848V54.9996H98.9014V52.7816C98.9014 52.6086 98.8761 52.4747 98.8255 52.3798C98.777 52.2848 98.7074 52.2194 98.6167 52.1836C98.526 52.1456 98.4173 52.1266 98.2908 52.1266C98.1726 52.1266 98.0682 52.1488 97.9775 52.1931C97.8889 52.2353 97.814 52.2954 97.7529 52.3734C97.6917 52.4494 97.6453 52.5369 97.6137 52.636C97.5841 52.7352 97.5694 52.8428 97.5694 52.9588ZM101.268 51.5761V54.9996H100.503V51.5761H101.268ZM100.452 50.6775C100.452 50.5615 100.49 50.4655 100.566 50.3896C100.644 50.3115 100.751 50.2725 100.889 50.2725C101.024 50.2725 101.13 50.3115 101.208 50.3896C101.286 50.4655 101.325 50.5615 101.325 50.6775C101.325 50.7914 101.286 50.8863 101.208 50.9623C101.13 51.0382 101.024 51.0762 100.889 51.0762C100.751 51.0762 100.644 51.0382 100.566 50.9623C100.49 50.8863 100.452 50.7914 100.452 50.6775ZM102.86 52.307V54.9996H102.097V51.5761H102.815L102.86 52.307ZM102.724 53.1613L102.477 53.1581C102.479 52.9155 102.513 52.693 102.578 52.4905C102.646 52.288 102.738 52.114 102.857 51.9684C102.977 51.8229 103.12 51.7111 103.287 51.633C103.454 51.5529 103.639 51.5128 103.844 51.5128C104.008 51.5128 104.157 51.536 104.29 51.5824C104.425 51.6267 104.54 51.6995 104.635 51.8007C104.732 51.902 104.806 52.0338 104.856 52.1962C104.907 52.3566 104.932 52.5538 104.932 52.7879V54.9996H104.167V52.7848C104.167 52.6202 104.142 52.4905 104.094 52.3956C104.047 52.2985 103.979 52.23 103.888 52.1899C103.799 52.1477 103.689 52.1266 103.556 52.1266C103.425 52.1266 103.308 52.1541 103.205 52.2089C103.101 52.2637 103.014 52.3386 102.942 52.4335C102.872 52.5285 102.819 52.6382 102.781 52.7626C102.743 52.8871 102.724 53.02 102.724 53.1613ZM107.641 54.313V52.6803C107.641 52.558 107.619 52.4525 107.574 52.3639C107.53 52.2753 107.462 52.2068 107.372 52.1583C107.283 52.1098 107.171 52.0855 107.036 52.0855C106.912 52.0855 106.804 52.1066 106.714 52.1488C106.623 52.191 106.552 52.2479 106.502 52.3196C106.451 52.3914 106.426 52.4726 106.426 52.5633H105.666C105.666 52.4283 105.699 52.2975 105.764 52.1709C105.83 52.0444 105.925 51.9315 106.049 51.8324C106.174 51.7332 106.322 51.6552 106.495 51.5982C106.668 51.5413 106.862 51.5128 107.077 51.5128C107.335 51.5128 107.563 51.556 107.761 51.6425C107.961 51.729 108.118 51.8598 108.232 52.0349C108.348 52.2078 108.406 52.4251 108.406 52.6867V54.2086C108.406 54.3647 108.417 54.505 108.438 54.6294C108.461 54.7517 108.494 54.8583 108.536 54.949V54.9996H107.755C107.719 54.9173 107.69 54.8129 107.669 54.6864C107.65 54.5577 107.641 54.4332 107.641 54.313ZM107.751 52.9176L107.758 53.3891H107.21C107.069 53.3891 106.945 53.4028 106.837 53.4302C106.729 53.4555 106.64 53.4935 106.568 53.5441C106.496 53.5948 106.443 53.6559 106.407 53.7276C106.371 53.7994 106.353 53.8806 106.353 53.9713C106.353 54.062 106.374 54.1453 106.416 54.2212C106.458 54.2951 106.52 54.3531 106.6 54.3953C106.682 54.4375 106.781 54.4585 106.897 54.4585C107.053 54.4585 107.189 54.4269 107.305 54.3636C107.423 54.2982 107.516 54.2191 107.584 54.1263C107.651 54.0314 107.687 53.9417 107.691 53.8574L107.938 54.1959C107.913 54.2824 107.87 54.3752 107.808 54.4744C107.747 54.5735 107.667 54.6684 107.568 54.7591C107.471 54.8477 107.354 54.9205 107.217 54.9775C107.082 55.0344 106.926 55.0629 106.748 55.0629C106.525 55.0629 106.325 55.0186 106.15 54.93C105.975 54.8393 105.838 54.718 105.739 54.5661C105.64 54.4121 105.59 54.2381 105.59 54.0441C105.59 53.8626 105.624 53.7023 105.692 53.5631C105.761 53.4218 105.862 53.3037 105.995 53.2087C106.13 53.1138 106.295 53.0421 106.489 52.9936C106.683 52.943 106.904 52.9176 107.153 52.9176H107.751Z" fill="#6366F1"/>
<path d="M234.36 132.803C230.194 140.67 225.487 148.251 220.285 155.475L234.36 132.803Z" fill="white"/>
<path d="M140.211 89.9266C139.283 90.0832 138.336 90.262 137.521 90.733C136.706 91.204 136.036 92.029 136.001 92.9698C135.96 94.1104 136.869 95.1118 137.924 95.5468C138.979 95.9818 140.157 95.9722 141.298 95.9566C144.848 95.9068 148.398 95.8564 151.948 95.8066C153.133 95.7898 154.349 95.767 155.45 95.3278C156.551 94.8886 157.529 93.9346 157.642 92.7544C157.772 91.3834 156.591 89.9248 154.785 89.7622C153.413 89.6386 144.765 89.1574 140.211 89.9266Z" fill="#FF8B37" stroke="#010101" stroke-width="0.9" stroke-linecap="round" stroke-linejoin="round"/>
<path d="M223.796 65.303L218.685 69.266C220.081 71.158 221.614 72.883 223.049 74.686C221.99 75.55 220.93 76.414 219.871 77.278C218.332 75.212 215.84 71.983 215.84 71.983L210.166 76.03L203 54.5C203 54.5 216.673 61.656 223.797 65.304L223.796 65.303Z" fill="#010101" stroke="#010101" stroke-width="1.5" stroke-linecap="round" stroke-linejoin="round"/>
<path d="M97.3506 179.974C112.088 179.282 143.091 179.504 163.509 179.504C192.978 179.504 193.523 179.254 207.17 179.254" stroke="#010101" stroke-width="1.5" stroke-linecap="round" stroke-linejoin="round"/>
<mask id="mask1_4878_12051" style="mask-type:luminance" maskUnits="userSpaceOnUse" x="96" y="107" width="26" height="16">
<path d="M121.563 107.607H96.1797V122.393H121.563V107.607Z" fill="white"/>
</mask>
<g mask="url(#mask1_4878_12051)">
<path d="M121.427 119.22C121.477 118.761 121.6 118.076 121.263 117.719C120.894 117.329 120.187 117.284 119.664 117.506C119.142 117.728 118.851 118.141 118.577 118.585C118.777 118.274 118.823 117.941 118.852 117.586C118.888 117.12 118.677 116.56 118.152 116.447C117.929 116.399 117.691 116.444 117.475 116.514C116.826 116.726 116.297 117.159 115.901 117.652C115.505 118.145 115.103 118.812 114.851 119.287C117.31 119.287 118.584 119.22 121.427 119.22Z" fill="#E3E3FF" stroke="#010101" stroke-width="0.145161" stroke-linecap="round" stroke-linejoin="round"/>
<path d="M104.792 113.606C104.266 113.074 103.649 112.451 103.123 111.919C102.556 111.346 101.965 110.757 101.211 110.476C100.457 110.196 99.4908 110.315 99.0206 110.97C98.5637 111.606 98.7184 112.501 99.0586 113.207C98.578 112.502 97.7981 111.907 96.9509 111.99C96.8251 112.002 96.6984 112.03 96.5898 112.095C96.3437 112.241 96.2365 112.554 96.2544 112.841C96.2723 113.127 96.3931 113.396 96.7443 113.589C99.8665 113.589 101.034 113.606 104.792 113.606Z" fill="#E3E3FF" stroke="#010101" stroke-width="0.145161" stroke-linecap="round" stroke-linejoin="round"/>
<path d="M116.423 116.34C116.366 116.993 116.219 117.636 116.003 118.242C115.837 118.707 115.631 119.151 115.391 119.561C115.015 120.205 113.916 121.823 111.35 122.226C110.728 122.323 110.096 122.345 109.47 122.295C108.138 122.191 106.83 121.762 105.7 121.051C105.464 120.901 105.237 120.741 105.018 120.568C104.272 119.98 103.626 119.254 103.185 118.412C102.173 116.482 102.343 114.057 103.358 112.129C103.9 111.099 104.653 110.133 105.656 109.551C105.734 109.505 105.815 109.461 105.897 109.42C107.359 108.69 108.676 108.435 109.843 108.501C113.262 108.699 115.386 111.667 116.081 113.552C116.412 114.451 116.509 115.406 116.423 116.34Z" fill="#7B5FF1" stroke="#010101" stroke-width="0.145161" stroke-linecap="round" stroke-linejoin="round"/>
<path d="M116.422 116.339C115.714 116.568 114.938 116.5 114.214 116.32C113.656 116.182 113.079 115.954 112.75 115.482C112.235 114.742 112.502 113.685 112.086 112.887C111.685 112.116 110.764 111.78 110.191 111.129C109.759 110.639 109.543 109.966 109.606 109.316C109.635 109.032 109.716 108.755 109.841 108.5C113.261 108.698 115.385 111.666 116.08 113.551C116.411 114.45 116.508 115.405 116.422 116.339Z" fill="#55D087" stroke="#010101" stroke-width="0.145161" stroke-linecap="round" stroke-linejoin="round"/>
<path d="M116.002 118.242C115.837 118.707 115.63 119.151 115.39 119.561C115.015 120.205 113.915 121.823 111.349 122.226C110.727 122.323 110.095 122.345 109.469 122.295C109.346 121.931 109.256 121.557 109.222 121.174C109.16 120.453 109.318 119.689 109.775 119.127C110.232 118.565 111.018 118.249 111.711 118.458C112.048 118.56 112.347 118.774 112.693 118.835C113.382 118.959 114.011 118.465 114.679 118.257C115.109 118.122 115.569 118.126 116.002 118.242Z" fill="#55D087" stroke="#010101" stroke-width="0.145161" stroke-linecap="round" stroke-linejoin="round"/>
<path d="M107.905 118.739C107.156 120.395 106.353 120.411 106.096 120.704C105.979 120.837 105.845 120.95 105.7 121.05C105.464 120.9 105.237 120.74 105.018 120.567C104.272 119.979 103.626 119.253 103.185 118.411C102.173 116.481 102.343 114.056 103.358 112.128C103.9 111.098 104.653 110.132 105.656 109.55C106.406 110.004 106.979 110.759 107.132 111.624C107.3 112.568 107.031 113.604 107.464 114.46C107.67 114.868 108.021 115.918 108.128 116.363C108.249 116.859 108.115 118.274 107.905 118.739Z" fill="#55D087" stroke="#010101" stroke-width="0.145161" stroke-linecap="round" stroke-linejoin="round"/>
<path d="M113.592 107.685C111.727 107.819 112.204 109.895 112.563 110.607C112.787 111.051 113.236 111.835 113.499 112.213C113.586 112.337 113.673 112.462 113.759 112.587C114.013 112.137 114.31 111.674 114.574 111.194C114.833 110.722 115.064 110.223 115.149 109.691C115.204 109.341 115.145 107.573 113.592 107.685ZM114.558 109.375C114.485 109.644 114.262 109.864 113.995 109.945C113.728 110.026 113.426 109.97 113.198 109.81C113.081 109.728 112.982 109.619 112.928 109.487C112.886 109.384 112.873 109.27 112.879 109.159C112.894 108.87 113.031 108.584 113.262 108.41C113.66 108.11 114.142 108.378 114.365 108.57C114.576 108.751 114.63 109.106 114.558 109.375Z" fill="#FF8B37" stroke="#010101" stroke-width="0.145161" stroke-linecap="round" stroke-linejoin="round"/>
<path d="M103.147 111.157C101.281 111.291 101.758 113.368 102.117 114.08C102.341 114.524 102.791 115.307 103.053 115.685C103.14 115.81 103.227 115.935 103.313 116.06C103.567 115.609 103.864 115.147 104.128 114.667C104.388 114.194 104.618 113.696 104.703 113.164C104.759 112.814 104.7 111.046 103.147 111.157ZM104.112 112.848C104.04 113.117 103.816 113.337 103.549 113.418C103.282 113.499 102.981 113.443 102.752 113.283C102.636 113.201 102.536 113.091 102.482 112.96C102.44 112.856 102.427 112.743 102.433 112.631C102.448 112.343 102.586 112.056 102.816 111.882C103.214 111.582 103.696 111.851 103.919 112.042C104.131 112.224 104.184 112.578 104.112 112.848Z" fill="#FF8B37" stroke="#010101" stroke-width="0.145161" stroke-linecap="round" stroke-linejoin="round"/>
<path d="M110.785 115.407C108.919 115.541 109.397 117.618 109.756 118.329C109.98 118.774 110.429 119.557 110.692 119.935C110.779 120.06 110.865 120.185 110.952 120.31C111.206 119.859 111.502 119.397 111.766 118.917C112.026 118.444 112.257 117.946 112.342 117.414C112.397 117.064 112.339 115.296 110.785 115.407ZM111.751 117.098C111.678 117.367 111.455 117.587 111.188 117.668C110.921 117.749 110.619 117.693 110.391 117.533C110.274 117.451 110.174 117.341 110.121 117.209C110.078 117.106 110.066 116.992 110.072 116.881C110.087 116.593 110.224 116.306 110.455 116.132C110.853 115.832 111.335 116.101 111.558 116.292C111.769 116.474 111.823 116.828 111.751 117.098Z" fill="#FF8B37" stroke="#010101" stroke-width="0.145161" stroke-linecap="round" stroke-linejoin="round"/>
<path d="M102.927 118.063C101.323 119.402 99.9499 122.094 102.151 121.739C109.514 120.55 120.369 112.608 119.167 111.089C118.828 110.661 116.942 110.528 115.091 111.694" stroke="#010101" stroke-width="0.145161" stroke-linecap="round" stroke-linejoin="round"/>
</g>
<path d="M99.8711 129C105.871 128.666 111.871 128.334 117.871 128" stroke="#010101" stroke-width="1.5" stroke-linecap="round" stroke-linejoin="round"/>
<mask id="mask2_4878_12051" style="mask-type:luminance" maskUnits="userSpaceOnUse" x="140" y="106" width="21" height="17">
<path d="M160.994 106.281H140.231V122.718H160.994V106.281Z" fill="white"/>
</mask>
<g mask="url(#mask2_4878_12051)">
<path d="M156.842 108.056C157.686 107.937 158.404 107.203 158.504 106.356C158.433 107.085 158.884 107.835 159.562 108.112C159.215 108.132 158.908 108.371 158.73 108.669C158.552 108.968 158.486 109.32 158.453 109.666C158.435 108.808 157.668 108.034 156.842 108.056Z" stroke="#010101" stroke-width="0.145161" stroke-linecap="round" stroke-linejoin="round"/>
<path d="M140.304 119.992C141.147 119.873 141.865 119.139 141.966 118.293C141.894 119.022 142.346 119.771 143.023 120.049C142.676 120.068 142.369 120.307 142.191 120.606C142.014 120.905 141.947 121.256 141.915 121.602C141.896 120.745 141.13 119.971 140.304 119.992Z" stroke="#010101" stroke-width="0.145161" stroke-linecap="round" stroke-linejoin="round"/>
<path d="M154.449 119.07C154.941 118.229 154.978 118.1 155.47 117.259C155.815 116.671 156.198 116.048 156.897 115.72C157.274 115.543 157.794 115.481 158.127 115.711C158.905 116.247 158.375 117.667 157.629 119.14C156.741 119.14 155.778 119.117 154.449 119.07Z" fill="#55D087" stroke="#010101" stroke-width="0.145161" stroke-linecap="round" stroke-linejoin="round"/>
<path d="M157.604 115.985C157.197 117.27 156.857 117.832 156.266 119.069" stroke="#010101" stroke-width="0.145161" stroke-linecap="round" stroke-linejoin="round"/>
<path d="M157.34 119.136C158.187 117.878 158.613 117.018 159.794 116.683C160.025 116.617 160.292 116.59 160.511 116.682C160.758 116.786 160.952 117.018 160.917 117.24C160.785 118.09 160.268 118.552 159.951 119.162C158.891 119.148 158.141 119.147 157.34 119.136Z" fill="#55D087" stroke="#010101" stroke-width="0.145161" stroke-linecap="round" stroke-linejoin="round"/>
<path d="M160.226 116.817C159.641 117.819 159.503 118.145 158.747 119.069" stroke="#010101" stroke-width="0.145161" stroke-linecap="round" stroke-linejoin="round"/>
<path d="M156.055 111.446C154.082 110.91 150.935 109.323 150.687 108.476C148.471 110.331 145.898 111.168 144.145 111.225C144.039 113.649 144.102 117.434 145.095 119.282C145.78 120.555 147.072 121.397 148.416 121.929C149.219 122.247 150.059 122.473 150.868 122.649C152.448 121.893 154.095 121.06 155.071 119.605C155.952 118.292 156.018 115.634 156.071 114.054C156.09 113.505 156.232 112.061 156.055 111.446Z" fill="#7B5FF1" stroke="#010101" stroke-width="0.145161" stroke-linecap="round" stroke-linejoin="round"/>
<path d="M149.667 111.927C149.016 112.017 148.429 112.393 147.953 112.846C147.126 113.632 146.635 114.807 146.814 115.935C146.892 116.426 147.09 116.895 147.362 117.312C148.003 118.298 149.067 118.997 150.226 119.196C151.567 119.426 152.188 118.776 152.483 118.52C153.264 117.839 153.955 116.808 153.925 115.685C153.887 114.275 153.002 111.467 149.667 111.927Z" fill="white" stroke="#010101" stroke-width="0.145161" stroke-linecap="round" stroke-linejoin="round"/>
<path d="M152.785 114.436C151.768 115.577 150.695 116.668 149.572 117.705C149.007 117.057 148.442 116.408 147.937 115.782C148.168 115.543 148.401 115.453 148.69 115.224C148.997 115.559 149.307 116 149.647 116.427C150.49 115.64 151.156 114.899 152.155 113.899C152.363 114.084 152.57 114.269 152.785 114.436Z" fill="#FF8B37" stroke="#010101" stroke-width="0.145161" stroke-linecap="round" stroke-linejoin="round"/>
</g>
<path d="M141.613 129.5C147.613 129.166 153.613 128.834 159.613 128.5" stroke="#010101" stroke-width="1.5" stroke-linecap="round" stroke-linejoin="round"/>
<mask id="mask3_4878_12051" style="mask-type:luminance" maskUnits="userSpaceOnUse" x="181" y="108" width="23" height="15">
<path d="M203.405 108.49H181.305V122.51H203.405V108.49Z" fill="white"/>
</mask>
<g mask="url(#mask3_4878_12051)">
<path d="M186.325 121.5C186.283 120.042 186.772 118.632 188.086 117.997C188.884 117.611 189.276 117.355 189.27 116.706C189.261 115.816 188.607 115.469 188.154 115.078C187.37 114.401 186.665 113.508 186.497 112.486C186.441 112.147 186.424 111.598 186.393 111.235H193.435C193.404 111.598 193.387 112.147 193.331 112.486C193.163 113.508 192.458 114.402 191.674 115.078C191.221 115.469 190.567 115.816 190.558 116.706C190.551 117.355 190.944 117.611 191.742 117.997C193.055 118.632 193.545 120.042 193.503 121.5" fill="white"/>
<path d="M186.325 121.5C186.283 120.042 186.772 118.632 188.086 117.997C188.884 117.611 189.276 117.355 189.27 116.706C189.261 115.816 188.607 115.469 188.154 115.078C187.37 114.401 186.665 113.508 186.497 112.486C186.441 112.147 186.424 111.598 186.393 111.235H193.435C193.404 111.598 193.387 112.147 193.331 112.486C193.163 113.508 192.458 114.402 191.674 115.078C191.221 115.469 190.567 115.816 190.558 116.706C190.551 117.355 190.944 117.611 191.742 117.997C193.055 118.632 193.545 120.042 193.503 121.5" stroke="#010101" stroke-width="0.116129" stroke-linecap="round" stroke-linejoin="round"/>
<path d="M193.503 121.501H186.326C186.283 120.043 186.773 118.633 188.086 117.998C188.885 117.612 189.277 117.355 189.27 116.707C189.269 116.551 189.247 116.412 189.21 116.287C189.039 115.694 188.528 115.401 188.154 115.078C187.498 114.512 186.896 113.792 186.619 112.973C186.566 112.814 186.524 112.652 186.497 112.487C186.442 112.147 186.424 111.598 186.393 111.236H193.436C193.405 111.598 193.387 112.147 193.332 112.487C193.305 112.652 193.263 112.814 193.21 112.973V112.975C192.932 113.793 192.331 114.512 191.675 115.078C191.302 115.4 190.793 115.693 190.619 116.282C190.582 116.409 190.56 116.549 190.559 116.707C190.552 117.355 190.945 117.612 191.743 117.998C193.056 118.633 193.546 120.043 193.503 121.501Z" fill="white" stroke="#010101" stroke-width="0.116129" stroke-linecap="round" stroke-linejoin="round"/>
<path d="M190.375 116.205C190.606 116.029 191.429 115.29 191.674 115.079C192.331 114.512 192.932 113.793 193.209 112.975V112.973H186.619C186.896 113.793 187.498 114.512 188.154 115.079C188.395 115.287 189.221 116.025 189.632 116.286C189.78 116.38 189.869 116.542 189.869 116.717V119.335C189.869 119.467 189.817 119.594 189.723 119.687L187.533 121.878H192.361L190.181 119.698C190.088 119.604 190.035 119.477 190.035 119.345V116.631C190.035 116.44 190.262 116.292 190.375 116.205Z" fill="#7B5FF1" stroke="#010101" stroke-width="0.116129" stroke-linecap="round" stroke-linejoin="round"/>
<path d="M193.197 110.367C191.623 110.367 187.945 110.407 186.316 110.407C186.116 110.407 185.884 110.454 185.789 110.629C185.688 110.813 185.815 111.056 186.001 111.154C186.187 111.252 186.374 111.243 186.584 111.243C188.364 111.243 190.968 111.363 193.108 111.268C193.349 111.258 193.638 111.293 193.808 111.122C194.242 110.689 193.833 110.367 193.197 110.367Z" fill="#010101" stroke="#010101" stroke-width="0.116129" stroke-linecap="round" stroke-linejoin="round"/>
<path d="M193.275 121.501C191.7 121.501 188.023 121.541 186.393 121.541C186.194 121.541 185.962 121.587 185.866 121.762C185.765 121.947 185.893 122.189 186.079 122.287C186.265 122.385 186.451 122.376 186.662 122.376C188.441 122.376 191.046 122.497 193.186 122.402C193.426 122.391 193.716 122.426 193.886 122.256C194.319 121.823 193.911 121.501 193.275 121.501Z" fill="#010101" stroke="#010101" stroke-width="0.116129" stroke-linecap="round" stroke-linejoin="round"/>
<path d="M192.938 122.439L193.917 114.103H202.671L201.693 122.439H192.938Z" fill="white" stroke="#010101" stroke-width="0.116129" stroke-linecap="round" stroke-linejoin="round"/>
<path d="M196.489 110.03C197.276 109.926 197.946 109.285 198.039 108.547C197.973 109.183 198.597 109.767 199.229 110.009C198.905 110.026 198.416 110.305 198.25 110.565C198.084 110.826 198.022 111.133 197.992 111.434C197.974 110.686 197.26 110.011 196.489 110.03Z" fill="white" stroke="#010101" stroke-width="0.116129" stroke-linecap="round" stroke-linejoin="round"/>
<path d="M182.061 115.736C182.797 115.646 183.145 115.091 183.233 114.451C183.17 115.002 183.565 115.569 184.156 115.778C183.853 115.793 183.585 115.974 183.43 116.199C183.275 116.425 183.217 116.691 183.188 116.952C183.172 116.304 182.781 115.719 182.061 115.736Z" fill="white" stroke="#010101" stroke-width="0.116129" stroke-linecap="round" stroke-linejoin="round"/>
<path d="M186.946 122.356L185.804 119.771C185.537 119.168 185.24 118.529 184.68 118.181C184.378 117.993 183.958 117.918 183.682 118.143C183.488 118.301 183.417 118.562 183.375 118.809C183.163 120.038 183.408 121.34 184.122 122.431C185.076 122.474 186.091 122.396 186.946 122.356Z" fill="#55D087" stroke="#010101" stroke-width="0.116129" stroke-linecap="round" stroke-linejoin="round"/>
<path d="M184.101 118.434C184.402 119.742 184.78 121.034 185.233 122.298L184.101 118.434Z" fill="white"/>
<path d="M184.101 118.434C184.402 119.742 184.78 121.034 185.233 122.298" stroke="#010101" stroke-width="0.116129" stroke-linecap="round" stroke-linejoin="round"/>
<path d="M184.66 122.45C184.303 121.751 183.945 121.05 183.514 120.394C183.204 119.921 182.83 119.452 182.302 119.249C182.116 119.177 181.9 119.143 181.72 119.231C181.518 119.331 181.411 119.562 181.378 119.785C181.306 120.271 181.503 120.755 181.728 121.191C181.941 121.604 182.182 122.002 182.54 122.415C183.4 122.426 184.009 122.442 184.66 122.45Z" fill="#55D087" stroke="#010101" stroke-width="0.116129" stroke-linecap="round" stroke-linejoin="round"/>
<path d="M181.949 119.375C182.402 120.402 182.927 121.397 183.52 122.35L181.949 119.375Z" fill="white"/>
<path d="M181.949 119.375C182.402 120.402 182.927 121.397 183.52 122.35" stroke="#010101" stroke-width="0.116129" stroke-linecap="round" stroke-linejoin="round"/>
<path d="M194.58 116.624L194.754 115.165H196.282L196.109 116.624H194.58Z" fill="white" stroke="#010101" stroke-width="0.116129" stroke-linecap="round" stroke-linejoin="round"/>
<path d="M195.189 115.589C195.357 115.781 195.524 115.973 195.691 116.165C196.214 115.721 196.736 115.278 197.258 114.834" stroke="#010101" stroke-width="0.116129" stroke-linecap="round" stroke-linejoin="round"/>
<path d="M194.229 119.039L194.403 117.58H195.932L195.758 119.039H194.229Z" fill="white" stroke="#010101" stroke-width="0.116129" stroke-linecap="round" stroke-linejoin="round"/>
<path d="M194.84 118.002C195.007 118.194 195.175 118.386 195.342 118.578C195.864 118.134 196.387 117.691 196.909 117.247" stroke="#010101" stroke-width="0.116129" stroke-linecap="round" stroke-linejoin="round"/>
<path d="M193.986 121.452L194.16 119.993H195.688L195.515 121.452H193.986Z" fill="white" stroke="#010101" stroke-width="0.116129" stroke-linecap="round" stroke-linejoin="round"/>
<path d="M194.596 120.416C194.764 120.608 194.931 120.8 195.099 120.992C195.621 120.548 196.143 120.105 196.665 119.661" stroke="#010101" stroke-width="0.116129" stroke-linecap="round" stroke-linejoin="round"/>
<path d="M197.585 115.578C198.929 115.515 200.276 115.52 201.619 115.594C201.592 115.59 201.565 115.587 201.539 115.583" stroke="#010101" stroke-width="0.116129" stroke-linecap="round" stroke-linejoin="round"/>
<path d="M197.538 116.273C198.033 116.29 198.944 116.272 199.439 116.288" stroke="#010101" stroke-width="0.116129" stroke-linecap="round" stroke-linejoin="round"/>
<path d="M197.305 117.936C198.649 117.872 199.996 117.877 201.339 117.951C201.312 117.948 201.285 117.944 201.259 117.94" stroke="#010101" stroke-width="0.116129" stroke-linecap="round" stroke-linejoin="round"/>
<path d="M197.258 118.633C197.752 118.649 198.664 118.631 199.159 118.648" stroke="#010101" stroke-width="0.116129" stroke-linecap="round" stroke-linejoin="round"/>
<path d="M196.957 120.281C198.3 120.218 199.647 120.223 200.99 120.297C200.963 120.293 200.937 120.29 200.91 120.286" stroke="#010101" stroke-width="0.116129" stroke-linecap="round" stroke-linejoin="round"/>
<path d="M196.909 120.978C197.403 120.994 198.315 120.976 198.809 120.992" stroke="#010101" stroke-width="0.116129" stroke-linecap="round" stroke-linejoin="round"/>
<path d="M200.359 120.191C200.298 120.535 200.187 120.902 200.125 121.24C200.452 121.13 200.726 120.955 201.053 120.845C200.752 120.592 200.564 120.372 200.359 120.191Z" fill="white" stroke="#010101" stroke-width="0.116129" stroke-linecap="round" stroke-linejoin="round"/>
<path d="M200.358 120.193C201.082 119.307 201.893 118.405 202.724 117.61C202.88 117.714 203.234 118.088 203.346 118.223C202.653 119.102 201.785 120.006 201.053 120.847C200.764 120.632 200.623 120.446 200.358 120.193Z" fill="#FF8B37" stroke="#010101" stroke-width="0.116129" stroke-linecap="round" stroke-linejoin="round"/>
<path d="M202.347 118.024C202.515 118.179 202.841 118.479 203.009 118.633L202.347 118.024Z" fill="white"/>
<path d="M202.347 118.024C202.515 118.179 202.841 118.479 203.009 118.633" stroke="#010101" stroke-width="0.116129" stroke-linecap="round" stroke-linejoin="round"/>
</g>
<path d="M183.355 128.5C189.355 128.166 195.355 127.834 201.355 127.5" stroke="#010101" stroke-width="1.5" stroke-linecap="round" stroke-linejoin="round"/>
</g>
</g>
<defs>
<clipPath id="clip0_4878_12051">
<rect width="282" height="181" fill="white" transform="translate(0 0.5)"/>
</clipPath>
</defs>
</svg>
