<svg width="282" height="182" viewBox="0 0 282 182" fill="none" xmlns="http://www.w3.org/2000/svg">
<g clip-path="url(#clip0_4878_12186)">
<mask id="mask0_4878_12186" style="mask-type:luminance" maskUnits="userSpaceOnUse" x="0" y="0" width="282" height="182">
<path d="M281.226 0.859375H0.773926V181.14H281.226V0.859375Z" fill="white"/>
</mask>
<g mask="url(#mask0_4878_12186)">
<path d="M30 14.249C36.827 13.286 42.635 7.347 43.446 0.5C42.867 6.396 46.522 12.461 52.006 14.704C49.198 14.863 46.713 16.798 45.274 19.214C43.835 21.63 43.298 24.475 43.034 27.274C42.884 20.334 36.684 14.076 30 14.249Z" stroke="#010101" stroke-width="1.5" stroke-linecap="round" stroke-linejoin="round"/>
<path d="M236 162.249C242.827 161.286 248.635 155.347 249.446 148.5C248.867 154.396 252.522 160.461 258.006 162.704C255.198 162.863 252.713 164.798 251.274 167.214C249.835 169.63 249.298 172.475 249.034 175.274C248.884 168.334 242.684 162.076 236 162.249Z" stroke="#010101" stroke-width="1.5" stroke-linecap="round" stroke-linejoin="round"/>
<path d="M138.377 44.0046C125.203 24.0236 116.869 11.1416 98.9118 5.55356C95.3918 4.45856 91.3448 3.95956 88.0668 5.34156C84.3588 6.90456 81.4918 10.4815 82.0758 13.9726C84.3158 27.3616 92.2798 34.7476 97.2458 44.4116C113.27 44.4946 126.258 43.9416 138.377 44.0046Z" fill="#55D087" stroke="#010101" stroke-width="1.5" stroke-linecap="round" stroke-linejoin="round"/>
<path d="M92.4106 7.55273C101.552 23.4357 103.74 28.5847 115.432 43.3087" stroke="#010101" stroke-width="1.5" stroke-linecap="round" stroke-linejoin="round"/>
<path d="M209.591 150.734C160.805 151.272 115.591 151.441 83.5698 151.441C75.6878 151.441 71.7988 146.571 71.7988 137.636C71.7988 114.652 71.7278 80.3083 72.0448 51.9713C72.0828 48.5503 72.5368 43.7403 74.5798 40.9973C77.1148 37.5943 82.4298 34.7363 87.2978 34.7363C136.746 35.1223 168.962 34.8463 213.469 34.8463C219.315 35.1873 222.96 36.0423 225.231 40.9973C226.901 44.6423 226.237 49.7393 226.237 52.3683C226.237 68.1693 226.532 114.469 226.532 133.195C226.532 146.242 220.51 150.167 209.591 150.734Z" fill="#7B5FF1" stroke="#010101" stroke-width="1.5" stroke-linecap="round" stroke-linejoin="round"/>
<path d="M172.62 173.316C172.62 165.296 172.647 159.535 172.647 151.44C157.1 151.44 146.625 151.326 132.367 151.326C131.905 159.154 132.171 165.172 132.171 172.953C149.63 173.545 161.895 173.856 172.62 173.316Z" fill="#7B5FF1" stroke="#010101" stroke-width="1.5" stroke-linecap="round" stroke-linejoin="round"/>
<path d="M177.827 172.662C159.985 173.122 144.513 172.528 127.895 172.956C127.146 173.093 126.396 173.27 125.715 173.609C125.034 173.948 124.42 174.464 124.078 175.144C123.849 175.601 123.75 176.113 123.709 176.623C123.682 176.956 123.679 177.296 123.77 177.618C123.995 178.417 124.771 178.962 125.579 179.153C126.529 179.377 156.775 180.06 177.515 179.094C178.363 179.054 179.292 178.925 179.869 178.302C180.215 177.928 180.375 177.42 180.468 176.919C180.806 175.084 180.099 172.861 177.829 172.662H177.827Z" fill="#7B5FF1" stroke="#010101" stroke-width="1.5" stroke-linecap="round" stroke-linejoin="round"/>
<path d="M209.467 135.651C166.361 136.126 115.531 136.429 87.2387 136.395C85.7687 136.393 78.1447 136.812 78.1447 128.917C78.1447 108.609 78.0817 81.2841 78.3617 56.2461C78.3957 53.2241 78.4397 50.1391 79.4357 47.2851C80.4317 44.4311 83.0327 41.0181 87.3327 41.0181C131.023 41.3591 169.465 40.9961 208.79 40.9961C213.955 41.2971 217.176 42.0531 219.182 46.4311C220.657 49.6511 220.071 54.1551 220.071 56.4781C220.071 70.4401 220.532 106.244 220.331 124.783C220.266 130.761 215.445 135.585 209.467 135.651Z" fill="white" stroke="#010101" stroke-width="1.5" stroke-linecap="round" stroke-linejoin="round"/>
<path d="M147.715 57.5C147.715 56.2784 148 54.3249 148 52.5C141.922 52.5502 136.213 52.5132 130.029 52.536C129.922 54.171 130.146 56.0429 130.146 57.4872C130.146 57.4875 130.147 57.4877 130.148 57.4877C136.565 57.4618 141.681 57.456 147.715 57.5Z" stroke="#010101" stroke-width="1.5" stroke-linecap="round" stroke-linejoin="round"/>
<path d="M169.731 57.5C169.731 56.2784 170 54.3249 170 52.5C164.26 52.5502 158.868 52.5132 153.028 52.536L153.027 52.5361C152.926 54.1711 153.138 56.0429 153.138 57.4872L153.14 57.4877C159.2 57.4618 164.032 57.456 169.731 57.5Z" stroke="#010101" stroke-width="1.5" stroke-linecap="round" stroke-linejoin="round"/>
<path d="M191.731 57.5C191.731 56.2784 192 54.3249 192 52.5C186.26 52.5502 180.868 52.5132 175.028 52.536L175.027 52.5361C174.926 54.1711 175.138 56.0429 175.138 57.4872L175.14 57.4877C181.2 57.4618 186.032 57.456 191.731 57.5Z" fill="#7B5FF1" stroke="#7B5FF1" stroke-width="1.5" stroke-linecap="round" stroke-linejoin="round"/>
<path d="M122.101 96.4712C121.891 95.795 122.083 94.5528 122.028 93.8685C121.904 92.3349 124.713 92.7032 127.213 92.6026C131.525 92.4293 152.565 92.5003 157.83 92.6331C159.492 92.6751 159.887 93.2359 159.887 93.6608C159.887 94.241 160.141 95.5331 159.887 96.3646C159.624 97.2262 158.777 97.4081 157.394 97.4365C152.567 97.5353 146.413 97.4893 125.859 97.4893C125.143 97.4893 124.413 97.5343 123.725 97.432C123.037 97.3296 122.291 97.0872 122.101 96.4712Z" fill="white" stroke="#010101" stroke-width="0.75" stroke-linecap="round" stroke-linejoin="round"/>
<path d="M130 95.5C137.667 95.5 145.333 95.5 153 95.5" stroke="#010101" stroke-linecap="round" stroke-linejoin="round"/>
<path d="M125.687 95.8623C126.06 95.8623 126.362 95.5601 126.362 95.1875C126.362 94.8149 126.06 94.5127 125.687 94.5127C125.314 94.5127 125.012 94.8149 125.012 95.1875C125.012 95.5601 125.314 95.8623 125.687 95.8623Z" fill="#010101" stroke="#010101" stroke-width="0.3" stroke-linecap="round" stroke-linejoin="round"/>
<path d="M122.101 103.471C121.891 102.795 122.083 101.553 122.028 100.869C121.904 99.3349 124.713 99.7032 127.213 99.6026C131.525 99.4293 152.565 99.5003 157.83 99.6331C159.492 99.6751 159.887 100.236 159.887 100.661C159.887 101.241 160.141 102.533 159.887 103.365C159.624 104.226 158.777 104.408 157.394 104.437C152.567 104.535 146.413 104.489 125.859 104.489C125.143 104.489 124.413 104.534 123.725 104.432C123.037 104.33 122.291 104.087 122.101 103.471Z" fill="white" stroke="#55D087" stroke-width="0.75" stroke-linecap="round" stroke-linejoin="round"/>
<path d="M125.675 102.85C126.047 102.85 126.35 102.547 126.35 102.175C126.35 101.802 126.047 101.5 125.675 101.5C125.302 101.5 125 101.802 125 102.175C125 102.547 125.302 102.85 125.675 102.85Z" fill="#55D087" stroke="#55D087" stroke-width="0.3" stroke-linecap="round" stroke-linejoin="round"/>
<path d="M130 101.5C139.334 101.5 148.666 101.5 158 101.5" stroke="#55D087" stroke-linecap="round" stroke-linejoin="round"/>
<path d="M122.101 110.471C121.891 109.795 122.083 108.553 122.028 107.869C121.904 106.335 124.713 106.703 127.213 106.603C131.525 106.429 152.565 106.5 157.83 106.633C159.492 106.675 159.887 107.236 159.887 107.661C159.887 108.241 160.141 109.533 159.887 110.365C159.624 111.226 158.777 111.408 157.394 111.437C152.567 111.535 146.413 111.489 125.859 111.489C125.143 111.489 124.413 111.534 123.725 111.432C123.037 111.33 122.291 111.087 122.101 110.471Z" fill="white" stroke="#010101" stroke-width="0.75" stroke-linecap="round" stroke-linejoin="round"/>
<path d="M125.687 109.862C126.06 109.862 126.362 109.56 126.362 109.187C126.362 108.815 126.06 108.513 125.687 108.513C125.314 108.513 125.012 108.815 125.012 109.187C125.012 109.56 125.314 109.862 125.687 109.862Z" fill="#010101" stroke="#010101" stroke-width="0.3" stroke-linecap="round" stroke-linejoin="round"/>
<path d="M130 109.5C136 109.5 142 109.5 148 109.5" stroke="#010101" stroke-linecap="round" stroke-linejoin="round"/>
<path d="M122.101 117.471C121.891 116.795 122.083 115.553 122.028 114.869C121.904 113.335 124.713 113.703 127.213 113.603C131.525 113.429 152.565 113.5 157.83 113.633C159.492 113.675 159.887 114.236 159.887 114.661C159.887 115.241 160.141 116.533 159.887 117.365C159.624 118.226 158.777 118.408 157.394 118.437C152.567 118.535 146.413 118.489 125.859 118.489C125.143 118.489 124.413 118.534 123.725 118.432C123.037 118.33 122.291 118.087 122.101 117.471Z" fill="white" stroke="#010101" stroke-width="0.75" stroke-linecap="round" stroke-linejoin="round"/>
<path d="M125.687 116.862C126.06 116.862 126.362 116.56 126.362 116.187C126.362 115.815 126.06 115.513 125.687 115.513C125.314 115.513 125.012 115.815 125.012 116.187C125.012 116.56 125.314 116.862 125.687 116.862Z" fill="#010101" stroke="#010101" stroke-width="0.3" stroke-linecap="round" stroke-linejoin="round"/>
<path d="M130 116.5C138 116.5 146 116.5 154 116.5" stroke="#010101" stroke-linecap="round" stroke-linejoin="round"/>
<path d="M122.101 124.471C121.891 123.795 122.083 122.553 122.028 121.869C121.904 120.335 124.713 120.703 127.213 120.603C131.525 120.429 152.565 120.5 157.83 120.633C159.492 120.675 159.887 121.236 159.887 121.661C159.887 122.241 160.141 123.533 159.887 124.365C159.624 125.226 158.777 125.408 157.394 125.437C152.567 125.535 146.413 125.489 125.859 125.489C125.143 125.489 124.413 125.534 123.725 125.432C123.037 125.33 122.291 125.087 122.101 124.471Z" fill="white" stroke="#010101" stroke-width="0.75" stroke-linecap="round" stroke-linejoin="round"/>
<path d="M125.687 123.862C126.06 123.862 126.362 123.56 126.362 123.187C126.362 122.815 126.06 122.513 125.687 122.513C125.314 122.513 125.012 122.815 125.012 123.187C125.012 123.56 125.314 123.862 125.687 123.862Z" fill="#010101" stroke="#010101" stroke-width="0.3" stroke-linecap="round" stroke-linejoin="round"/>
<path d="M130 123.5C137.667 123.5 145.333 123.5 153 123.5" stroke="#010101" stroke-linecap="round" stroke-linejoin="round"/>
<path d="M89.0901 54.5638C88.837 54.5638 88.6081 54.5226 88.4035 54.4404C88.201 54.356 88.0281 54.2389 87.8846 54.0892C87.7433 53.9394 87.6347 53.7633 87.5587 53.5608C87.4828 53.3583 87.4448 53.14 87.4448 52.9058V52.7792C87.4448 52.5114 87.4838 52.2688 87.5619 52.0515C87.6399 51.8342 87.7486 51.6486 87.8878 51.4946C88.027 51.3385 88.1915 51.2194 88.3814 51.1371C88.5712 51.0548 88.7769 51.0137 88.9984 51.0137C89.2431 51.0137 89.4572 51.0548 89.6407 51.1371C89.8242 51.2194 89.9761 51.3354 90.0963 51.4851C90.2186 51.6328 90.3094 51.8089 90.3684 52.0135C90.4296 52.2182 90.4602 52.4439 90.4602 52.6907V53.0166H87.815V52.4692H89.7071V52.4091C89.7029 52.2719 89.6755 52.1433 89.6249 52.023C89.5763 51.9028 89.5015 51.8058 89.4002 51.7319C89.299 51.6581 89.164 51.6212 88.9952 51.6212C88.8686 51.6212 88.7558 51.6486 88.6567 51.7035C88.5596 51.7562 88.4784 51.8332 88.413 51.9344C88.3476 52.0357 88.297 52.158 88.2611 52.3015C88.2274 52.4428 88.2105 52.6021 88.2105 52.7792V52.9058C88.2105 53.0556 88.2306 53.1948 88.2706 53.3235C88.3128 53.45 88.374 53.5608 88.4542 53.6557C88.5343 53.7506 88.6313 53.8255 88.7453 53.8803C88.8592 53.9331 88.9889 53.9594 89.1344 53.9594C89.3179 53.9594 89.4814 53.9225 89.6249 53.8487C89.7683 53.7749 89.8928 53.6705 89.9982 53.5355L90.4001 53.9246C90.3262 54.0322 90.2303 54.1356 90.1121 54.2347C89.994 54.3317 89.8495 54.4109 89.6786 54.472C89.5099 54.5332 89.3137 54.5638 89.0901 54.5638ZM91.6372 51.077L92.289 52.2129L92.9535 51.077H93.7919L92.7541 52.7571L93.8331 54.5005H92.9946L92.2985 53.3171L91.6024 54.5005H90.7608L91.8365 52.7571L90.8019 51.077H91.6372ZM96.2441 53.8139V52.1812C96.2441 52.0589 96.2219 51.9534 96.1776 51.8648C96.1333 51.7762 96.0658 51.7077 95.9751 51.6592C95.8865 51.6107 95.7747 51.5864 95.6397 51.5864C95.5153 51.5864 95.4077 51.6075 95.317 51.6497C95.2263 51.6919 95.1556 51.7488 95.105 51.8205C95.0544 51.8923 95.0291 51.9735 95.0291 52.0642H94.2697C94.2697 51.9292 94.3024 51.7984 94.3678 51.6718C94.4332 51.5453 94.5281 51.4324 94.6526 51.3333C94.777 51.2341 94.9257 51.1561 95.0987 51.0991C95.2717 51.0422 95.4657 51.0137 95.6809 51.0137C95.9382 51.0137 96.166 51.0569 96.3643 51.1434C96.5647 51.2299 96.7219 51.3607 96.8358 51.5358C96.9518 51.7087 97.0098 51.926 97.0098 52.1876V53.7095C97.0098 53.8656 97.0203 54.0059 97.0414 54.1303C97.0646 54.2526 97.0973 54.3592 97.1395 54.4499V54.5005H96.358C96.3221 54.4182 96.2937 54.3138 96.2726 54.1873C96.2536 54.0586 96.2441 53.9341 96.2441 53.8139ZM96.3548 52.4185L96.3612 52.89H95.8138C95.6724 52.89 95.548 52.9037 95.4404 52.9311C95.3328 52.9564 95.2432 52.9944 95.1715 53.045C95.0997 53.0957 95.046 53.1568 95.0101 53.2285C94.9742 53.3003 94.9563 53.3815 94.9563 53.4722C94.9563 53.5629 94.9774 53.6462 95.0196 53.7221C95.0618 53.796 95.1229 53.854 95.2031 53.8962C95.2854 53.9384 95.3845 53.9594 95.5005 53.9594C95.6566 53.9594 95.7927 53.9278 95.9087 53.8645C96.0268 53.7991 96.1196 53.72 96.1871 53.6272C96.2546 53.5323 96.2905 53.4426 96.2947 53.3583L96.5415 53.6968C96.5162 53.7833 96.4729 53.8761 96.4118 53.9753C96.3506 54.0744 96.2704 54.1693 96.1713 54.26C96.0743 54.3486 95.9572 54.4214 95.8201 54.4784C95.6851 54.5353 95.529 54.5638 95.3518 54.5638C95.1282 54.5638 94.9289 54.5195 94.7538 54.4309C94.5787 54.3402 94.4416 54.2189 94.3425 54.067C94.2433 53.913 94.1938 53.739 94.1938 53.545C94.1938 53.3635 94.2275 53.2032 94.295 53.064C94.3646 52.9227 94.4659 52.8046 94.5988 52.7096C94.7338 52.6147 94.8983 52.543 95.0924 52.4945C95.2864 52.4439 95.5079 52.4185 95.7568 52.4185H96.3548Z" fill="#1E293B"/>
<path d="M98.5697 51.7722V54.4996H97.8071V51.0761H98.5254L98.5697 51.7722ZM98.4463 52.6613L98.1868 52.6581C98.1868 52.4219 98.2163 52.2035 98.2754 52.0032C98.3345 51.8028 98.421 51.6287 98.5349 51.4811C98.6488 51.3313 98.7901 51.2164 98.9588 51.1362C99.1297 51.0539 99.3269 51.0128 99.5505 51.0128C99.7066 51.0128 99.849 51.036 99.9777 51.0824C100.109 51.1267 100.221 51.1974 100.316 51.2944C100.413 51.3914 100.487 51.5159 100.538 51.6678C100.591 51.8196 100.617 52.0032 100.617 52.2183V54.4996H99.8543V52.2848C99.8543 52.1181 99.829 51.9873 99.7783 51.8924C99.7298 51.7975 99.6592 51.73 99.5663 51.6899C99.4756 51.6477 99.367 51.6266 99.2404 51.6266C99.097 51.6266 98.9747 51.6541 98.8734 51.7089C98.7743 51.7637 98.6931 51.8386 98.6298 51.9335C98.5665 52.0285 98.5201 52.1382 98.4906 52.2626C98.461 52.3871 98.4463 52.52 98.4463 52.6613ZM100.569 52.4588L100.212 52.5379C100.212 52.3312 100.24 52.136 100.297 51.9525C100.356 51.7669 100.442 51.6045 100.554 51.4653C100.668 51.3239 100.808 51.2132 100.974 51.133C101.141 51.0529 101.332 51.0128 101.547 51.0128C101.722 51.0128 101.878 51.0371 102.015 51.0856C102.155 51.132 102.273 51.2058 102.37 51.3071C102.467 51.4083 102.541 51.5401 102.591 51.7026C102.642 51.8629 102.667 52.0569 102.667 52.2848V54.4996H101.902V52.2816C101.902 52.1086 101.876 51.9747 101.826 51.8798C101.777 51.7848 101.707 51.7194 101.617 51.6836C101.526 51.6456 101.417 51.6266 101.291 51.6266C101.173 51.6266 101.068 51.6488 100.978 51.6931C100.889 51.7353 100.814 51.7954 100.753 51.8734C100.692 51.9494 100.645 52.0369 100.614 52.136C100.584 52.2352 100.569 52.3428 100.569 52.4588ZM104.268 51.0761V54.4996H103.503V51.0761H104.268ZM103.452 50.1775C103.452 50.0615 103.49 49.9655 103.566 49.8896C103.644 49.8115 103.751 49.7725 103.889 49.7725C104.024 49.7725 104.13 49.8115 104.208 49.8896C104.286 49.9655 104.325 50.0615 104.325 50.1775C104.325 50.2914 104.286 50.3863 104.208 50.4623C104.13 50.5382 104.024 50.5762 103.889 50.5762C103.751 50.5762 103.644 50.5382 103.566 50.4623C103.49 50.3863 103.452 50.2914 103.452 50.1775ZM105.86 51.807V54.4996H105.097V51.0761H105.815L105.86 51.807ZM105.724 52.6613L105.477 52.6581C105.479 52.4155 105.513 52.193 105.578 51.9905C105.646 51.788 105.738 51.614 105.857 51.4684C105.977 51.3229 106.12 51.2111 106.287 51.133C106.454 51.0529 106.639 51.0128 106.844 51.0128C107.008 51.0128 107.157 51.036 107.29 51.0824C107.425 51.1267 107.54 51.1995 107.635 51.3007C107.732 51.402 107.806 51.5338 107.856 51.6962C107.907 51.8566 107.932 52.0538 107.932 52.2879V54.4996H107.167V52.2848C107.167 52.1202 107.142 51.9905 107.094 51.8956C107.047 51.7985 106.979 51.73 106.888 51.6899C106.799 51.6477 106.689 51.6266 106.556 51.6266C106.425 51.6266 106.308 51.6541 106.205 51.7089C106.101 51.7637 106.014 51.8386 105.942 51.9335C105.872 52.0285 105.819 52.1382 105.781 52.2626C105.743 52.3871 105.724 52.52 105.724 52.6613ZM110.641 53.813V52.1803C110.641 52.058 110.619 51.9525 110.574 51.8639C110.53 51.7753 110.462 51.7068 110.372 51.6583C110.283 51.6098 110.171 51.5855 110.036 51.5855C109.912 51.5855 109.804 51.6066 109.714 51.6488C109.623 51.691 109.552 51.7479 109.502 51.8196C109.451 51.8914 109.426 51.9726 109.426 52.0633H108.666C108.666 51.9283 108.699 51.7975 108.764 51.6709C108.83 51.5444 108.925 51.4315 109.049 51.3324C109.174 51.2332 109.322 51.1552 109.495 51.0982C109.668 51.0413 109.862 51.0128 110.077 51.0128C110.335 51.0128 110.563 51.056 110.761 51.1425C110.961 51.229 111.118 51.3598 111.232 51.5349C111.348 51.7078 111.406 51.9251 111.406 52.1867V53.7086C111.406 53.8647 111.417 54.005 111.438 54.1294C111.461 54.2517 111.494 54.3583 111.536 54.449V54.4996H110.755C110.719 54.4173 110.69 54.3129 110.669 54.1864C110.65 54.0577 110.641 53.9332 110.641 53.813ZM110.751 52.4176L110.758 52.8891H110.21C110.069 52.8891 109.945 52.9028 109.837 52.9302C109.729 52.9555 109.64 52.9935 109.568 53.0441C109.496 53.0948 109.443 53.1559 109.407 53.2276C109.371 53.2994 109.353 53.3806 109.353 53.4713C109.353 53.562 109.374 53.6453 109.416 53.7212C109.458 53.7951 109.52 53.8531 109.6 53.8953C109.682 53.9375 109.781 53.9585 109.897 53.9585C110.053 53.9585 110.189 53.9269 110.305 53.8636C110.423 53.7982 110.516 53.7191 110.584 53.6263C110.651 53.5314 110.687 53.4417 110.691 53.3574L110.938 53.6959C110.913 53.7824 110.87 53.8752 110.808 53.9744C110.747 54.0735 110.667 54.1684 110.568 54.2591C110.471 54.3477 110.354 54.4205 110.217 54.4775C110.082 54.5344 109.926 54.5629 109.748 54.5629C109.525 54.5629 109.325 54.5186 109.15 54.43C108.975 54.3393 108.838 54.218 108.739 54.0661C108.64 53.9121 108.59 53.7381 108.59 53.5441C108.59 53.3626 108.624 53.2023 108.692 53.0631C108.761 52.9218 108.862 52.8037 108.995 52.7087C109.13 52.6138 109.295 52.5421 109.489 52.4936C109.683 52.443 109.904 52.4176 110.153 52.4176H110.751Z" fill="#6366F1"/>
<path d="M170.013 72.4712C169.986 71.795 170.011 70.5528 170.004 69.8685C169.987 68.3349 170.357 68.7032 170.686 68.6026C171.253 68.4293 174.022 68.5003 174.714 68.6331C174.933 68.6751 174.985 69.2359 174.985 69.6608C174.985 70.241 175.019 71.5331 174.985 72.3646C174.951 73.2262 174.839 73.4081 174.657 73.4365C174.022 73.5353 173.212 73.4893 170.508 73.4893C170.414 73.4893 170.317 73.5343 170.227 73.432C170.136 73.3296 170.038 73.0872 170.013 72.4712Z" fill="white" stroke="#010101" stroke-width="0.75" stroke-linecap="round" stroke-linejoin="round"/>
<path d="M178.013 72.4712C177.986 71.795 178.011 70.5528 178.004 69.8685C177.987 68.3349 178.357 68.7032 178.686 68.6026C179.253 68.4293 182.022 68.5003 182.714 68.6331C182.933 68.6751 182.985 69.2359 182.985 69.6608C182.985 70.241 183.019 71.5331 182.985 72.3646C182.951 73.2262 182.839 73.4081 182.657 73.4365C182.022 73.5353 181.212 73.4893 178.508 73.4893C178.414 73.4893 178.317 73.5343 178.227 73.432C178.136 73.3296 178.038 73.0872 178.013 72.4712Z" fill="white" stroke="#010101" stroke-width="0.75" stroke-linecap="round" stroke-linejoin="round"/>
<path d="M186.013 72.4712C185.986 71.795 186.011 70.5528 186.004 69.8685C185.987 68.3349 186.357 68.7032 186.686 68.6026C187.253 68.4293 190.022 68.5003 190.714 68.6331C190.933 68.6751 190.985 69.2359 190.985 69.6608C190.985 70.241 191.019 71.5331 190.985 72.3646C190.951 73.2262 190.839 73.4081 190.657 73.4365C190.022 73.5353 189.212 73.4893 186.508 73.4893C186.414 73.4893 186.317 73.5343 186.227 73.432C186.136 73.3296 186.038 73.0872 186.013 72.4712Z" fill="white" stroke="#010101" stroke-width="0.75" stroke-linecap="round" stroke-linejoin="round"/>
<path d="M194.013 72.4712C193.986 71.795 194.011 70.5528 194.004 69.8685C193.987 68.3349 194.357 68.7032 194.686 68.6026C195.253 68.4293 198.022 68.5003 198.714 68.6331C198.933 68.6751 198.985 69.2359 198.985 69.6608C198.985 70.241 199.019 71.5331 198.985 72.3646C198.951 73.2262 198.839 73.4081 198.657 73.4365C198.022 73.5353 197.212 73.4893 194.508 73.4893C194.414 73.4893 194.317 73.5343 194.227 73.432C194.136 73.3296 194.038 73.0872 194.013 72.4712Z" fill="white" stroke="#010101" stroke-width="0.75" stroke-linecap="round" stroke-linejoin="round"/>
<path d="M202.013 72.4712C201.986 71.795 202.011 70.5528 202.004 69.8685C201.987 68.3349 202.357 68.7032 202.686 68.6026C203.253 68.4293 206.022 68.5003 206.714 68.6331C206.933 68.6751 206.985 69.2359 206.985 69.6608C206.985 70.241 207.019 71.5331 206.985 72.3646C206.951 73.2262 206.839 73.4081 206.657 73.4365C206.022 73.5353 205.212 73.4893 202.508 73.4893C202.414 73.4893 202.317 73.5343 202.227 73.432C202.136 73.3296 202.038 73.0872 202.013 72.4712Z" fill="white" stroke="#010101" stroke-width="0.75" stroke-linecap="round" stroke-linejoin="round"/>
<path d="M170.013 80.4712C169.986 79.795 170.011 78.5528 170.004 77.8685C169.987 76.3349 170.357 76.7032 170.686 76.6026C171.253 76.4293 174.022 76.5003 174.714 76.6331C174.933 76.6751 174.985 77.2359 174.985 77.6608C174.985 78.241 175.019 79.5331 174.985 80.3646C174.951 81.2262 174.839 81.4081 174.657 81.4365C174.022 81.5353 173.212 81.4893 170.508 81.4893C170.414 81.4893 170.317 81.5343 170.227 81.432C170.136 81.3296 170.038 81.0872 170.013 80.4712Z" fill="white" stroke="#010101" stroke-width="0.75" stroke-linecap="round" stroke-linejoin="round"/>
<path d="M178.013 80.4712C177.986 79.795 178.011 78.5528 178.004 77.8685C177.987 76.3349 178.357 76.7032 178.686 76.6026C179.253 76.4293 182.022 76.5003 182.714 76.6331C182.933 76.6751 182.985 77.2359 182.985 77.6608C182.985 78.241 183.019 79.5331 182.985 80.3646C182.951 81.2262 182.839 81.4081 182.657 81.4365C182.022 81.5353 181.212 81.4893 178.508 81.4893C178.414 81.4893 178.317 81.5343 178.227 81.432C178.136 81.3296 178.038 81.0872 178.013 80.4712Z" fill="white" stroke="#010101" stroke-width="0.75" stroke-linecap="round" stroke-linejoin="round"/>
<path d="M186.013 80.4712C185.986 79.795 186.011 78.5528 186.004 77.8685C185.987 76.3349 186.357 76.7032 186.686 76.6026C187.253 76.4293 190.022 76.5003 190.714 76.6331C190.933 76.6751 190.985 77.2359 190.985 77.6608C190.985 78.241 191.019 79.5331 190.985 80.3646C190.951 81.2262 190.839 81.4081 190.657 81.4365C190.022 81.5353 189.212 81.4893 186.508 81.4893C186.414 81.4893 186.317 81.5343 186.227 81.432C186.136 81.3296 186.038 81.0872 186.013 80.4712Z" fill="white" stroke="#010101" stroke-width="0.75" stroke-linecap="round" stroke-linejoin="round"/>
<path d="M194.013 80.4712C193.986 79.795 194.011 78.5528 194.004 77.8685C193.987 76.3349 194.357 76.7032 194.686 76.6026C195.253 76.4293 198.022 76.5003 198.714 76.6331C198.933 76.6751 198.985 77.2359 198.985 77.6608C198.985 78.241 199.019 79.5331 198.985 80.3646C198.951 81.2262 198.839 81.4081 198.657 81.4365C198.022 81.5353 197.212 81.4893 194.508 81.4893C194.414 81.4893 194.317 81.5343 194.227 81.432C194.136 81.3296 194.038 81.0872 194.013 80.4712Z" fill="white" stroke="#010101" stroke-width="0.75" stroke-linecap="round" stroke-linejoin="round"/>
<path d="M202.013 80.4712C201.986 79.795 202.011 78.5528 202.004 77.8685C201.987 76.3349 202.357 76.7032 202.686 76.6026C203.253 76.4293 206.022 76.5003 206.714 76.6331C206.933 76.6751 206.985 77.2359 206.985 77.6608C206.985 78.241 207.019 79.5331 206.985 80.3646C206.951 81.2262 206.839 81.4081 206.657 81.4365C206.022 81.5353 205.212 81.4893 202.508 81.4893C202.414 81.4893 202.317 81.5343 202.227 81.432C202.136 81.3296 202.038 81.0872 202.013 80.4712Z" fill="white" stroke="#010101" stroke-width="0.75" stroke-linecap="round" stroke-linejoin="round"/>
<path d="M234.36 132.803C230.194 140.67 225.487 148.251 220.285 155.475L234.36 132.803Z" fill="white"/>
<path d="M212.796 131.303L207.685 135.266C209.081 137.158 210.614 138.883 212.049 140.686C210.99 141.55 209.93 142.414 208.871 143.278C207.332 141.212 204.84 137.983 204.84 137.983L199.166 142.03L192 120.5C192 120.5 205.673 127.656 212.797 131.304L212.796 131.303Z" fill="#010101" stroke="#010101" stroke-width="1.5" stroke-linecap="round" stroke-linejoin="round"/>
<path d="M97.3506 179.974C112.088 179.282 143.091 179.504 163.509 179.504C192.978 179.504 193.523 179.254 207.17 179.254" stroke="#010101" stroke-width="1.5" stroke-linecap="round" stroke-linejoin="round"/>
<path d="M111.62 130.5C111.62 113.886 112 87.3192 112 62.5C103.896 63.1829 96.2838 62.6796 88.0393 62.9895C88.0393 62.9895 88.0386 62.9895 88.0386 62.9916C87.896 85.2265 88.1948 110.684 88.1948 130.326C88.1948 130.33 88.1974 130.333 88.1974 130.333C96.7532 129.981 103.574 129.901 111.62 130.5Z" stroke="#010101" stroke-width="1.5" stroke-linecap="round" stroke-linejoin="round"/>
<path d="M94.9184 70.0056C93.9609 69.9806 93.0028 70.0391 92.0481 70.1818C92.0319 71.7839 92.0161 73.3859 92 74.9874C92.9561 75.0544 94.8676 74.8329 94.8676 74.8329C94.8676 74.8329 95.1275 71.1863 94.9184 70.0056Z" fill="#010101" stroke="#010101" stroke-width="0.5" stroke-linecap="round" stroke-linejoin="round"/>
<path d="M97.9995 72.5C101.333 72.5 104.666 72.5 108 72.5" stroke="#010101" stroke-width="1.5" stroke-linecap="round" stroke-linejoin="round"/>
<path d="M94.9179 80.0045C93.9604 79.9845 93.0023 80.0313 92.0476 80.1454C92.0314 81.4271 92.0156 82.7088 91.9995 83.9899C92.9556 84.0435 94.8671 83.8663 94.8671 83.8663C94.8671 83.8663 95.127 80.949 94.9179 80.0045Z" fill="#010101" stroke="#010101" stroke-width="0.5" stroke-linecap="round" stroke-linejoin="round"/>
<path d="M97.9995 82C101.333 82 104.666 82 108 82" stroke="#010101" stroke-width="1.5" stroke-linecap="round" stroke-linejoin="round"/>
<path d="M94.9179 89.0056C93.9604 88.9806 93.0023 89.0391 92.0476 89.1818C92.0314 90.7839 92.0156 92.3859 91.9995 93.9874C92.9556 94.0544 94.8671 93.8329 94.8671 93.8329C94.8671 93.8329 95.127 90.1863 94.9179 89.0056Z" fill="#7B60F1" stroke="#7B60F1" stroke-width="0.5" stroke-linecap="round" stroke-linejoin="round"/>
<path d="M97.9995 91C101.332 91 104.669 91 108 91" stroke="#7B60F1" stroke-width="1.5" stroke-linecap="round" stroke-linejoin="round"/>
<path d="M122.101 83.5906C121.891 81.0209 122.083 76.3007 122.028 73.7003C121.904 67.8726 124.713 69.2721 127.213 68.8899C131.525 68.2312 152.565 68.5012 157.83 69.0058C159.492 69.1653 159.887 71.2964 159.887 72.9112C159.887 75.1159 160.141 80.0256 159.887 83.1854C159.624 86.4594 158.777 87.1508 157.394 87.2587C152.567 87.634 146.413 87.4595 125.859 87.4595C125.143 87.4595 124.413 87.6302 123.725 87.2416C123.037 86.8524 122.291 85.9312 122.101 83.5906Z" fill="white" stroke="#010101" stroke-width="0.75" stroke-linecap="round" stroke-linejoin="round"/>
<path d="M125.97 73.0972C128.656 73.0319 131.343 72.9676 134.03 72.9023" stroke="#010101" stroke-linecap="round" stroke-linejoin="round"/>
<path d="M126.603 77.1477C136.031 77.0825 145.459 77.0165 154.888 76.9512" stroke="#010101" stroke-width="0.900006" stroke-linecap="round" stroke-linejoin="round"/>
<path d="M126 80.3525C136 80.4406 146 80.5287 156 80.6168" stroke="#010101" stroke-width="0.900006" stroke-linecap="round" stroke-linejoin="round"/>
<path d="M126.929 83.6738L136.428 82.9775" stroke="#010101" stroke-width="0.900006" stroke-linecap="round" stroke-linejoin="round"/>
<path d="M177.018 115.211C175.471 115.472 173.893 115.77 172.535 116.555C171.177 117.34 170.059 118.715 170.002 120.283C169.933 122.184 171.448 123.853 173.206 124.578C174.964 125.303 176.928 125.287 178.83 125.261C184.746 125.178 190.663 125.094 196.579 125.011C198.555 124.983 200.582 124.945 202.417 124.213C204.252 123.481 205.881 121.891 206.069 119.924C206.287 117.639 204.318 115.208 201.308 114.937C199.022 114.731 184.608 113.929 177.018 115.211Z" fill="#7B5FF1" stroke="#010101" stroke-width="1.5" stroke-linecap="round" stroke-linejoin="round"/>
<path d="M182.454 117.436C180.679 119.425 178.809 121.328 176.851 123.136C175.866 122.005 174.881 120.875 174 119.783C174.403 119.367 174.809 119.209 175.313 118.811C175.849 119.394 176.388 120.164 176.981 120.907C178.452 119.535 179.613 118.243 181.356 116.5C181.717 116.822 182.079 117.144 182.454 117.436Z" fill="#010101" stroke="#010101" stroke-width="0.253125" stroke-linecap="round" stroke-linejoin="round"/>
</g>
</g>
<defs>
<clipPath id="clip0_4878_12186">
<rect width="282" height="181" fill="white" transform="translate(0 0.5)"/>
</clipPath>
</defs>
</svg>
