<svg width="282" height="182" viewBox="0 0 282 182" fill="none" xmlns="http://www.w3.org/2000/svg">
<mask id="mask0_4878_12145" style="mask-type:luminance" maskUnits="userSpaceOnUse" x="0" y="0" width="282" height="182">
<path d="M281.226 0.859375H0.773926V181.14H281.226V0.859375Z" fill="white"/>
</mask>
<g mask="url(#mask0_4878_12145)">
<path d="M234 25.249C240.827 24.286 246.635 18.347 247.446 11.5C246.867 17.396 250.522 23.461 256.006 25.704C253.198 25.863 250.713 27.798 249.274 30.214C247.835 32.63 247.298 35.475 247.034 38.274C246.884 31.334 240.685 25.076 234.001 25.249H234Z" stroke="#010101" stroke-width="1.5" stroke-linecap="round" stroke-linejoin="round"/>
<path d="M30 152.249C36.827 151.286 42.635 145.347 43.446 138.5C42.867 144.396 46.522 150.461 52.006 152.704C49.198 152.863 46.713 154.798 45.274 157.214C43.835 159.63 43.298 162.475 43.034 165.274C42.884 158.334 36.684 152.076 30 152.249Z" stroke="#010101" stroke-width="1.5" stroke-linecap="round" stroke-linejoin="round"/>
<path d="M209.591 150.734C160.805 151.272 115.591 151.441 83.5698 151.441C75.6878 151.441 71.7988 146.571 71.7988 137.636C71.7988 114.652 71.7278 80.3083 72.0448 51.9713C72.0828 48.5503 72.5368 43.7403 74.5798 40.9973C77.1148 37.5943 82.4298 34.7363 87.2978 34.7363C136.746 35.1223 168.962 34.8463 213.469 34.8463C219.315 35.1873 222.96 36.0423 225.231 40.9973C226.901 44.6423 226.237 49.7393 226.237 52.3683C226.237 68.1693 226.532 114.469 226.532 133.195C226.532 146.242 220.51 150.167 209.591 150.734Z" fill="#7B5FF1" stroke="#010101" stroke-width="1.5" stroke-linecap="round" stroke-linejoin="round"/>
<path d="M172.62 173.316C172.62 165.296 172.647 159.535 172.647 151.44C157.1 151.44 146.625 151.326 132.367 151.326C131.905 159.154 132.171 165.172 132.171 172.953C149.63 173.545 161.895 173.856 172.62 173.316Z" fill="#7B5FF1" stroke="#010101" stroke-width="1.5" stroke-linecap="round" stroke-linejoin="round"/>
<path d="M177.827 172.662C159.985 173.122 144.513 172.528 127.895 172.956C127.146 173.093 126.396 173.27 125.715 173.609C125.034 173.948 124.42 174.464 124.078 175.144C123.849 175.601 123.75 176.113 123.709 176.623C123.682 176.956 123.679 177.296 123.77 177.618C123.995 178.417 124.771 178.962 125.579 179.153C126.529 179.377 156.775 180.06 177.515 179.094C178.363 179.054 179.292 178.925 179.869 178.302C180.215 177.928 180.375 177.42 180.468 176.919C180.806 175.084 180.099 172.861 177.829 172.662H177.827Z" fill="#7B5FF1" stroke="#010101" stroke-width="1.5" stroke-linecap="round" stroke-linejoin="round"/>
<path d="M209.467 135.651C166.361 136.126 115.531 136.429 87.2392 136.395C85.7692 136.393 78.1452 136.812 78.1452 128.917C78.1452 108.609 78.0822 81.2841 78.3622 56.2461C78.3962 53.2241 78.4402 50.1391 79.4362 47.2851C80.4322 44.4311 83.0332 41.0181 87.3332 41.0181C131.023 41.3591 169.465 40.9961 208.79 40.9961C213.955 41.2971 217.176 42.0531 219.182 46.4311C220.657 49.6511 220.071 54.1551 220.071 56.4781C220.071 70.4401 220.532 106.244 220.331 124.783C220.266 130.761 215.445 135.585 209.467 135.651Z" fill="white" stroke="#010101" stroke-width="1.5" stroke-linecap="round" stroke-linejoin="round"/>
<path d="M147.731 57.5C147.731 56.2784 148 54.3249 148 52.5C142.26 52.5502 136.868 52.5132 131.028 52.536L131.027 52.5361C130.926 54.1711 131.138 56.0429 131.138 57.4872L131.14 57.4877C137.2 57.4618 142.032 57.456 147.731 57.5Z" stroke="#010101" stroke-width="1.5" stroke-linecap="round" stroke-linejoin="round"/>
<path d="M170.715 57.5C170.715 56.2784 171 54.3249 171 52.5C164.922 52.5502 159.213 52.5132 153.029 52.536C152.922 54.171 153.146 56.0429 153.146 57.4872L153.148 57.4877C159.565 57.4618 164.681 57.456 170.715 57.5Z" fill="#7B5FF1" stroke="#7B5FF1" stroke-width="1.5" stroke-linecap="round" stroke-linejoin="round"/>
<path d="M192.731 57.5C192.731 56.2784 193 54.3249 193 52.5C187.26 52.5502 181.868 52.5132 176.028 52.536L176.027 52.5361C175.926 54.1711 176.138 56.0429 176.138 57.4872L176.14 57.4877C182.2 57.4618 187.032 57.456 192.731 57.5Z" stroke="#010101" stroke-width="1.5" stroke-linecap="round" stroke-linejoin="round"/>
<path d="M143.101 103.471C142.891 102.795 143.083 101.553 143.028 100.869C142.904 99.3349 145.713 99.7032 148.213 99.6026C152.525 99.4293 173.565 99.5003 178.83 99.6331C180.492 99.6751 180.887 100.236 180.887 100.661C180.887 101.241 181.141 102.533 180.887 103.365C180.624 104.226 179.777 104.408 178.394 104.437C173.567 104.535 167.413 104.489 146.859 104.489C146.143 104.489 145.413 104.534 144.725 104.432C144.037 104.33 143.291 104.087 143.101 103.471Z" fill="white" stroke="#010101" stroke-width="0.75" stroke-linecap="round" stroke-linejoin="round"/>
<path d="M146.687 102.862C147.06 102.862 147.362 102.56 147.362 102.187C147.362 101.815 147.06 101.513 146.687 101.513C146.314 101.513 146.012 101.815 146.012 102.187C146.012 102.56 146.314 102.862 146.687 102.862Z" fill="#010101" stroke="#010101" stroke-width="0.3" stroke-linecap="round" stroke-linejoin="round"/>
<path d="M143.101 94.4712C142.891 93.795 143.083 92.5528 143.028 91.8685C142.904 90.3349 145.713 90.7032 148.213 90.6026C152.525 90.4293 173.565 90.5003 178.83 90.6331C180.492 90.6751 180.887 91.2359 180.887 91.6608C180.887 92.241 181.141 93.5331 180.887 94.3646C180.624 95.2262 179.777 95.4081 178.394 95.4365C173.567 95.5353 167.413 95.4893 146.859 95.4893C146.143 95.4893 145.413 95.5343 144.725 95.432C144.037 95.3296 143.291 95.0872 143.101 94.4712Z" fill="white" stroke="#55D087" stroke-width="0.75" stroke-linecap="round" stroke-linejoin="round"/>
<path d="M146.675 93.8496C147.047 93.8496 147.35 93.5474 147.35 93.1748C147.35 92.8022 147.047 92.5 146.675 92.5C146.302 92.5 146 92.8022 146 93.1748C146 93.5474 146.302 93.8496 146.675 93.8496Z" fill="#55D087" stroke="#55D087" stroke-width="0.3" stroke-linecap="round" stroke-linejoin="round"/>
<path d="M143.101 85.4712C142.891 84.795 143.083 83.5528 143.028 82.8685C142.904 81.3349 145.713 81.7032 148.213 81.6026C152.525 81.4293 173.565 81.5003 178.83 81.6331C180.492 81.6751 180.887 82.2359 180.887 82.6608C180.887 83.241 181.141 84.5331 180.887 85.3646C180.624 86.2262 179.777 86.4081 178.394 86.4365C173.567 86.5353 167.413 86.4893 146.859 86.4893C146.143 86.4893 145.413 86.5343 144.725 86.432C144.037 86.3296 143.291 86.0872 143.101 85.4712Z" fill="white" stroke="#010101" stroke-width="0.75" stroke-linecap="round" stroke-linejoin="round"/>
<path d="M146.687 84.8623C147.06 84.8623 147.362 84.5601 147.362 84.1875C147.362 83.8149 147.06 83.5127 146.687 83.5127C146.314 83.5127 146.012 83.8149 146.012 84.1875C146.012 84.5601 146.314 84.8623 146.687 84.8623Z" fill="#010101" stroke="#010101" stroke-width="0.3" stroke-linecap="round" stroke-linejoin="round"/>
<path d="M143.101 75.6482C142.891 74.431 143.083 72.1951 143.028 70.9633C142.904 68.2028 145.713 68.8657 148.213 68.6847C152.525 68.3727 173.565 68.5006 178.83 68.7396C180.492 68.8151 180.887 69.8246 180.887 70.5895C180.887 71.6338 181.141 73.9595 180.887 75.4562C180.624 77.0071 179.777 77.3346 178.394 77.3857C173.567 77.5635 167.413 77.4808 146.859 77.4808C146.143 77.4808 145.413 77.5617 144.725 77.3776C144.037 77.1932 143.291 76.7569 143.101 75.6482Z" fill="white" stroke="#010101" stroke-width="0.75" stroke-linecap="round" stroke-linejoin="round"/>
<path d="M88.0901 53.5638C87.837 53.5638 87.6081 53.5226 87.4035 53.4404C87.201 53.356 87.0281 53.2389 86.8846 53.0892C86.7433 52.9394 86.6347 52.7633 86.5587 52.5608C86.4828 52.3583 86.4448 52.14 86.4448 51.9058V51.7792C86.4448 51.5114 86.4838 51.2688 86.5619 51.0515C86.6399 50.8342 86.7486 50.6486 86.8878 50.4946C87.027 50.3385 87.1915 50.2194 87.3814 50.1371C87.5712 50.0548 87.7769 50.0137 87.9984 50.0137C88.2431 50.0137 88.4572 50.0548 88.6407 50.1371C88.8242 50.2194 88.9761 50.3354 89.0963 50.4851C89.2186 50.6328 89.3094 50.8089 89.3684 51.0135C89.4296 51.2182 89.4602 51.4439 89.4602 51.6907V52.0166H86.815V51.4692H88.7071V51.4091C88.7029 51.2719 88.6755 51.1433 88.6249 51.023C88.5763 50.9028 88.5015 50.8058 88.4002 50.7319C88.299 50.6581 88.164 50.6212 87.9952 50.6212C87.8686 50.6212 87.7558 50.6486 87.6567 50.7035C87.5596 50.7562 87.4784 50.8332 87.413 50.9344C87.3476 51.0357 87.297 51.158 87.2611 51.3015C87.2274 51.4428 87.2105 51.6021 87.2105 51.7792V51.9058C87.2105 52.0556 87.2306 52.1948 87.2706 52.3235C87.3128 52.45 87.374 52.5608 87.4542 52.6557C87.5343 52.7506 87.6313 52.8255 87.7453 52.8803C87.8592 52.9331 87.9889 52.9594 88.1344 52.9594C88.3179 52.9594 88.4814 52.9225 88.6249 52.8487C88.7683 52.7749 88.8928 52.6705 88.9982 52.5355L89.4001 52.9246C89.3262 53.0322 89.2303 53.1356 89.1121 53.2347C88.994 53.3317 88.8495 53.4109 88.6786 53.472C88.5099 53.5332 88.3137 53.5638 88.0901 53.5638ZM90.6372 50.077L91.289 51.2129L91.9535 50.077H92.7919L91.7541 51.7571L92.8331 53.5005H91.9946L91.2985 52.3171L90.6024 53.5005H89.7608L90.8365 51.7571L89.8019 50.077H90.6372ZM95.2441 52.8139V51.1812C95.2441 51.0589 95.2219 50.9534 95.1776 50.8648C95.1333 50.7762 95.0658 50.7077 94.9751 50.6592C94.8865 50.6107 94.7747 50.5864 94.6397 50.5864C94.5153 50.5864 94.4077 50.6075 94.317 50.6497C94.2263 50.6919 94.1556 50.7488 94.105 50.8205C94.0544 50.8923 94.0291 50.9735 94.0291 51.0642H93.2697C93.2697 50.9292 93.3024 50.7984 93.3678 50.6718C93.4332 50.5453 93.5281 50.4324 93.6526 50.3333C93.777 50.2341 93.9257 50.1561 94.0987 50.0991C94.2717 50.0422 94.4657 50.0137 94.6809 50.0137C94.9382 50.0137 95.166 50.0569 95.3643 50.1434C95.5647 50.2299 95.7219 50.3607 95.8358 50.5358C95.9518 50.7087 96.0098 50.926 96.0098 51.1876V52.7095C96.0098 52.8656 96.0203 53.0059 96.0414 53.1303C96.0646 53.2526 96.0973 53.3592 96.1395 53.4499V53.5005H95.358C95.3221 53.4182 95.2937 53.3138 95.2726 53.1873C95.2536 53.0586 95.2441 52.9341 95.2441 52.8139ZM95.3548 51.4185L95.3612 51.89H94.8138C94.6724 51.89 94.548 51.9037 94.4404 51.9311C94.3328 51.9564 94.2432 51.9944 94.1715 52.045C94.0997 52.0957 94.046 52.1568 94.0101 52.2285C93.9742 52.3003 93.9563 52.3815 93.9563 52.4722C93.9563 52.5629 93.9774 52.6462 94.0196 52.7221C94.0618 52.796 94.1229 52.854 94.2031 52.8962C94.2854 52.9384 94.3845 52.9594 94.5005 52.9594C94.6566 52.9594 94.7927 52.9278 94.9087 52.8645C95.0268 52.7991 95.1196 52.72 95.1871 52.6272C95.2546 52.5323 95.2905 52.4426 95.2947 52.3583L95.5415 52.6968C95.5162 52.7833 95.4729 52.8761 95.4118 52.9753C95.3506 53.0744 95.2704 53.1693 95.1713 53.26C95.0743 53.3486 94.9572 53.4214 94.8201 53.4784C94.6851 53.5353 94.529 53.5638 94.3518 53.5638C94.1282 53.5638 93.9289 53.5195 93.7538 53.4309C93.5787 53.3402 93.4416 53.2189 93.3425 53.067C93.2433 52.913 93.1938 52.739 93.1938 52.545C93.1938 52.3635 93.2275 52.2032 93.295 52.064C93.3646 51.9227 93.4659 51.8046 93.5988 51.7096C93.7338 51.6147 93.8983 51.543 94.0924 51.4945C94.2864 51.4439 94.5079 51.4185 94.7568 51.4185H95.3548Z" fill="#1E293B"/>
<path d="M97.5697 50.7722V53.4996H96.8071V50.0761H97.5254L97.5697 50.7722ZM97.4463 51.6613L97.1868 51.6581C97.1868 51.4219 97.2163 51.2035 97.2754 51.0032C97.3345 50.8028 97.421 50.6287 97.5349 50.4811C97.6488 50.3313 97.7901 50.2164 97.9588 50.1362C98.1297 50.0539 98.3269 50.0128 98.5505 50.0128C98.7066 50.0128 98.849 50.036 98.9777 50.0824C99.1085 50.1267 99.2213 50.1974 99.3162 50.2944C99.4133 50.3914 99.4871 50.5159 99.5377 50.6678C99.5904 50.8196 99.6168 51.0032 99.6168 51.2183V53.4996H98.8543V51.2848C98.8543 51.1181 98.829 50.9873 98.7783 50.8924C98.7298 50.7975 98.6592 50.73 98.5663 50.6899C98.4756 50.6477 98.367 50.6266 98.2404 50.6266C98.097 50.6266 97.9747 50.6541 97.8734 50.7089C97.7743 50.7637 97.6931 50.8386 97.6298 50.9335C97.5665 51.0285 97.5201 51.1382 97.4906 51.2626C97.461 51.3871 97.4463 51.52 97.4463 51.6613ZM99.5694 51.4588L99.2118 51.5379C99.2118 51.3312 99.2403 51.136 99.2972 50.9525C99.3563 50.7669 99.4417 50.6045 99.5535 50.4653C99.6674 50.3239 99.8077 50.2132 99.9744 50.133C100.141 50.0529 100.332 50.0128 100.547 50.0128C100.722 50.0128 100.878 50.0371 101.015 50.0856C101.155 50.132 101.273 50.2058 101.37 50.3071C101.467 50.4083 101.541 50.5401 101.591 50.7026C101.642 50.8629 101.667 51.0569 101.667 51.2848V53.4996H100.902V51.2816C100.902 51.1086 100.876 50.9747 100.826 50.8798C100.777 50.7848 100.707 50.7194 100.617 50.6836C100.526 50.6456 100.417 50.6266 100.291 50.6266C100.173 50.6266 100.068 50.6488 99.9775 50.6931C99.8889 50.7353 99.814 50.7954 99.7529 50.8734C99.6917 50.9494 99.6453 51.0369 99.6137 51.136C99.5841 51.2352 99.5694 51.3428 99.5694 51.4588ZM103.268 50.0761V53.4996H102.503V50.0761H103.268ZM102.452 49.1775C102.452 49.0615 102.49 48.9655 102.566 48.8896C102.644 48.8115 102.751 48.7725 102.889 48.7725C103.024 48.7725 103.13 48.8115 103.208 48.8896C103.286 48.9655 103.325 49.0615 103.325 49.1775C103.325 49.2914 103.286 49.3863 103.208 49.4623C103.13 49.5382 103.024 49.5762 102.889 49.5762C102.751 49.5762 102.644 49.5382 102.566 49.4623C102.49 49.3863 102.452 49.2914 102.452 49.1775ZM104.86 50.807V53.4996H104.097V50.0761H104.815L104.86 50.807ZM104.724 51.6613L104.477 51.6581C104.479 51.4155 104.513 51.193 104.578 50.9905C104.646 50.788 104.738 50.614 104.857 50.4684C104.977 50.3229 105.12 50.2111 105.287 50.133C105.454 50.0529 105.639 50.0128 105.844 50.0128C106.008 50.0128 106.157 50.036 106.29 50.0824C106.425 50.1267 106.54 50.1995 106.635 50.3007C106.732 50.402 106.806 50.5338 106.856 50.6962C106.907 50.8566 106.932 51.0538 106.932 51.2879V53.4996H106.167V51.2848C106.167 51.1202 106.142 50.9905 106.094 50.8956C106.047 50.7985 105.979 50.73 105.888 50.6899C105.799 50.6477 105.689 50.6266 105.556 50.6266C105.425 50.6266 105.308 50.6541 105.205 50.7089C105.101 50.7637 105.014 50.8386 104.942 50.9335C104.872 51.0285 104.819 51.1382 104.781 51.2626C104.743 51.3871 104.724 51.52 104.724 51.6613ZM109.641 52.813V51.1803C109.641 51.058 109.619 50.9525 109.574 50.8639C109.53 50.7753 109.462 50.7068 109.372 50.6583C109.283 50.6098 109.171 50.5855 109.036 50.5855C108.912 50.5855 108.804 50.6066 108.714 50.6488C108.623 50.691 108.552 50.7479 108.502 50.8196C108.451 50.8914 108.426 50.9726 108.426 51.0633H107.666C107.666 50.9283 107.699 50.7975 107.764 50.6709C107.83 50.5444 107.925 50.4315 108.049 50.3324C108.174 50.2332 108.322 50.1552 108.495 50.0982C108.668 50.0413 108.862 50.0128 109.077 50.0128C109.335 50.0128 109.563 50.056 109.761 50.1425C109.961 50.229 110.118 50.3598 110.232 50.5349C110.348 50.7078 110.406 50.9251 110.406 51.1867V52.7086C110.406 52.8647 110.417 53.005 110.438 53.1294C110.461 53.2517 110.494 53.3583 110.536 53.449V53.4996H109.755C109.719 53.4173 109.69 53.3129 109.669 53.1864C109.65 53.0577 109.641 52.9332 109.641 52.813ZM109.751 51.4176L109.758 51.8891H109.21C109.069 51.8891 108.945 51.9028 108.837 51.9302C108.729 51.9555 108.64 51.9935 108.568 52.0441C108.496 52.0948 108.443 52.1559 108.407 52.2276C108.371 52.2994 108.353 52.3806 108.353 52.4713C108.353 52.562 108.374 52.6453 108.416 52.7212C108.458 52.7951 108.52 52.8531 108.6 52.8953C108.682 52.9375 108.781 52.9585 108.897 52.9585C109.053 52.9585 109.189 52.9269 109.305 52.8636C109.423 52.7982 109.516 52.7191 109.584 52.6263C109.651 52.5314 109.687 52.4417 109.691 52.3574L109.938 52.6959C109.913 52.7824 109.87 52.8752 109.808 52.9744C109.747 53.0735 109.667 53.1684 109.568 53.2591C109.471 53.3477 109.354 53.4205 109.217 53.4775C109.082 53.5344 108.926 53.5629 108.748 53.5629C108.525 53.5629 108.325 53.5186 108.15 53.43C107.975 53.3393 107.838 53.218 107.739 53.0661C107.64 52.9121 107.59 52.7381 107.59 52.5441C107.59 52.3626 107.624 52.2023 107.692 52.0631C107.761 51.9218 107.862 51.8037 107.995 51.7087C108.13 51.6138 108.295 51.5421 108.489 51.4936C108.683 51.443 108.904 51.4176 109.153 51.4176H109.751Z" fill="#6366F1"/>
<path d="M234.36 132.803C230.194 140.67 225.487 148.251 220.285 155.475L234.36 132.803Z" fill="white"/>
<path d="M151.018 114.211C149.471 114.472 147.893 114.77 146.535 115.555C145.177 116.34 144.059 117.715 144.002 119.283C143.933 121.184 145.448 122.853 147.206 123.578C148.964 124.303 150.928 124.287 152.83 124.261C158.746 124.178 164.663 124.094 170.579 124.011C172.555 123.983 174.582 123.945 176.417 123.213C178.252 122.481 179.881 120.891 180.069 118.924C180.287 116.639 178.318 114.208 175.308 113.937C173.022 113.731 158.608 112.929 151.018 114.211Z" fill="#7B5FF1" stroke="#010101" stroke-width="1.5" stroke-linecap="round" stroke-linejoin="round"/>
<path d="M188.796 130.303L183.685 134.266C185.081 136.158 186.614 137.883 188.049 139.686C186.99 140.55 185.93 141.414 184.871 142.278C183.332 140.212 180.84 136.983 180.84 136.983L175.166 141.03L168 119.5C168 119.5 181.673 126.656 188.797 130.304L188.796 130.303Z" fill="#010101" stroke="#010101" stroke-width="1.5" stroke-linecap="round" stroke-linejoin="round"/>
<path d="M97.3511 179.974C112.088 179.282 143.091 179.504 163.509 179.504C192.978 179.504 193.523 179.254 207.17 179.254" stroke="#010101" stroke-width="1.5" stroke-linecap="round" stroke-linejoin="round"/>
<path d="M110.62 130.5C110.62 113.886 111 87.3192 111 62.5C102.896 63.1829 95.2838 62.6796 87.0393 62.9895C87.0393 62.9895 87.0386 62.9895 87.0386 62.9916C86.896 85.2265 87.1948 110.684 87.1948 130.326C87.1948 130.33 87.1974 130.333 87.1974 130.333C95.7532 129.981 102.574 129.901 110.62 130.5Z" stroke="#010101" stroke-width="1.5" stroke-linecap="round" stroke-linejoin="round"/>
<path d="M93.9184 70.5056C92.9609 70.4806 92.0028 70.5391 91.0481 70.6818C91.0319 72.2839 91.0161 73.8859 91 75.4874C91.9561 75.5544 93.8676 75.3329 93.8676 75.3329C93.8676 75.3329 94.1275 71.6863 93.9184 70.5056Z" fill="#010101" stroke="#010101" stroke-width="0.5" stroke-linecap="round" stroke-linejoin="round"/>
<path d="M96.9995 73C100.333 73 103.666 73 107 73" stroke="#010101" stroke-width="1.5" stroke-linecap="round" stroke-linejoin="round"/>
<path d="M93.9184 80.5056C92.9609 80.4806 92.0028 80.5391 91.0481 80.6818C91.0319 82.2839 91.0161 83.8859 91 85.4874C91.9561 85.5544 93.8676 85.3329 93.8676 85.3329C93.8676 85.3329 94.1275 81.6863 93.9184 80.5056Z" fill="#7B60F1" stroke="#7B60F1" stroke-width="0.5" stroke-linecap="round" stroke-linejoin="round"/>
<path d="M97 82.5C100.332 82.5 103.67 82.5 107 82.5" stroke="#7B60F1" stroke-width="1.5" stroke-linecap="round" stroke-linejoin="round"/>
<path d="M93.9184 90.5045C92.9609 90.4845 92.0028 90.5313 91.0481 90.6454C91.0319 91.9271 91.0161 93.2088 91 94.4899C91.9561 94.5435 93.8676 94.3663 93.8676 94.3663C93.8676 94.3663 94.1275 91.449 93.9184 90.5045Z" fill="#010101" stroke="#010101" stroke-width="0.5" stroke-linecap="round" stroke-linejoin="round"/>
<path d="M97 92.5C100.333 92.5 103.667 92.5 107 92.5" stroke="#010101" stroke-width="1.5" stroke-linecap="round" stroke-linejoin="round"/>
</g>
<path d="M184.774 179.288C192.46 165.961 191.819 164.426 199.505 151.1C204.885 141.77 210.852 131.89 221.516 126.542C227.269 123.657 235.152 122.537 240.13 126.052C251.744 134.254 241.678 155.939 229.975 179.26C212.191 179.826 205.845 179.288 184.774 179.288Z" fill="#55D087" stroke="#010101" stroke-width="1.5" stroke-linecap="round" stroke-linejoin="round"/>
<path d="M231.14 130.521C224.621 150.795 219.316 159.714 210.021 179.287" stroke="#010101" stroke-width="1.5" stroke-linecap="round" stroke-linejoin="round"/>
</svg>
